G04*
G04 #@! TF.GenerationSoftware,Altium Limited,Altium Designer,21.5.1 (32)*
G04*
G04 Layer_Color=2752767*
%FSLAX25Y25*%
%MOIN*%
G70*
G04*
G04 #@! TF.SameCoordinates,9F226A22-D70E-441E-867E-09538FDFB880*
G04*
G04*
G04 #@! TF.FilePolarity,Positive*
G04*
G01*
G75*
%ADD99C,0.00200*%
%ADD100C,0.00267*%
D99*
X81574Y16208D02*
Y17808D01*
X83174D01*
Y16208D01*
X81574D01*
Y-17808D02*
Y-16208D01*
X83174D01*
Y-17808D01*
X81574D01*
X-24000Y63200D02*
X-24800Y64800D01*
X-23200D01*
X-24000Y63200D01*
X-14000D02*
X-14800Y64800D01*
X-13200D01*
X-14000Y63200D01*
X-4000D02*
X-4800Y64800D01*
X-3200D01*
X-4000Y63200D01*
X6000D02*
X5200Y64800D01*
X6800D01*
X6000Y63200D01*
X0Y-38202D02*
X400Y-37802D01*
X800D01*
X400Y-37402D01*
X800Y-37002D01*
X400D01*
X0Y-36602D01*
X-400Y-37002D01*
X-800D01*
X-400Y-37402D01*
X-800Y-37802D01*
X-400D01*
X0Y-38202D01*
Y36602D02*
X400Y37002D01*
X800D01*
X400Y37402D01*
X800Y37802D01*
X400D01*
X0Y38202D01*
X-400Y37802D01*
X-800D01*
X-400Y37402D01*
X-800Y37002D01*
X-400D01*
X0Y36602D01*
X67200Y-300D02*
X67600Y500D01*
X67200Y1300D01*
X68000Y900D01*
X68800Y1300D01*
X68400Y500D01*
X68800Y-300D01*
X68000Y100D01*
X67200Y-300D01*
X51656Y-3518D02*
X52056Y-2718D01*
X51656Y-1918D01*
X52456Y-2318D01*
X53256Y-1918D01*
X52856Y-2718D01*
X53256Y-3518D01*
X52456Y-3118D01*
X51656Y-3518D01*
X49200Y-5300D02*
X49600Y-4500D01*
X49200Y-3700D01*
X50000Y-4100D01*
X50800Y-3700D01*
X50400Y-4500D01*
X50800Y-5300D01*
X50000Y-4900D01*
X49200Y-5300D01*
X5066Y-2166D02*
X5466Y-1366D01*
X5066Y-566D01*
X5866Y-966D01*
X6666Y-566D01*
X6266Y-1366D01*
X6666Y-2166D01*
X5866Y-1766D01*
X5066Y-2166D01*
X4200Y-4800D02*
X4600Y-4000D01*
X4200Y-3200D01*
X5000Y-3600D01*
X5800Y-3200D01*
X5400Y-4000D01*
X5800Y-4800D01*
X5000Y-4400D01*
X4200Y-4800D01*
X-1800Y-10300D02*
X-1400Y-9500D01*
X-1800Y-8700D01*
X-1000Y-9100D01*
X-200Y-8700D01*
X-600Y-9500D01*
X-200Y-10300D01*
X-1000Y-9900D01*
X-1800Y-10300D01*
X2700Y-7300D02*
X3100Y-6500D01*
X2700Y-5700D01*
X3500Y-6100D01*
X4300Y-5700D01*
X3900Y-6500D01*
X4300Y-7300D01*
X3500Y-6900D01*
X2700Y-7300D01*
X-7300Y-10800D02*
X-6900Y-10000D01*
X-7300Y-9200D01*
X-6500Y-9600D01*
X-5700Y-9200D01*
X-6100Y-10000D01*
X-5700Y-10800D01*
X-6500Y-10400D01*
X-7300Y-10800D01*
Y-5800D02*
X-6900Y-5000D01*
X-7300Y-4200D01*
X-6500Y-4600D01*
X-5700Y-4200D01*
X-6100Y-5000D01*
X-5700Y-5800D01*
X-6500Y-5400D01*
X-7300Y-5800D01*
X-7800Y-2800D02*
X-7400Y-2000D01*
X-7800Y-1200D01*
X-7000Y-1600D01*
X-6200Y-1200D01*
X-6600Y-2000D01*
X-6200Y-2800D01*
X-7000Y-2400D01*
X-7800Y-2800D01*
X36700Y-21800D02*
X37100Y-21000D01*
X36700Y-20200D01*
X37500Y-20600D01*
X38300Y-20200D01*
X37900Y-21000D01*
X38300Y-21800D01*
X37500Y-21400D01*
X36700Y-21800D01*
X34083Y-19840D02*
X34483Y-19040D01*
X34083Y-18240D01*
X34883Y-18640D01*
X35683Y-18240D01*
X35283Y-19040D01*
X35683Y-19840D01*
X34883Y-19440D01*
X34083Y-19840D01*
X39200Y-23800D02*
X39600Y-23000D01*
X39200Y-22200D01*
X40000Y-22600D01*
X40800Y-22200D01*
X40400Y-23000D01*
X40800Y-23800D01*
X40000Y-23400D01*
X39200Y-23800D01*
X41700Y-25800D02*
X42100Y-25000D01*
X41700Y-24200D01*
X42500Y-24600D01*
X43300Y-24200D01*
X42900Y-25000D01*
X43300Y-25800D01*
X42500Y-25400D01*
X41700Y-25800D01*
X52200Y-800D02*
X52600Y0D01*
X52200Y800D01*
X53000Y400D01*
X53800Y800D01*
X53400Y0D01*
X53800Y-800D01*
X53000Y-400D01*
X52200Y-800D01*
X56200Y-1800D02*
X56600Y-1000D01*
X56200Y-200D01*
X57000Y-600D01*
X57800Y-200D01*
X57400Y-1000D01*
X57800Y-1800D01*
X57000Y-1400D01*
X56200Y-1800D01*
X55669Y3654D02*
X56069Y4454D01*
X55669Y5254D01*
X56469Y4854D01*
X57269Y5254D01*
X56869Y4454D01*
X57269Y3654D01*
X56469Y4054D01*
X55669Y3654D01*
X55700Y7628D02*
X56100Y8428D01*
X55700Y9228D01*
X56500Y8828D01*
X57300Y9228D01*
X56900Y8428D01*
X57300Y7628D01*
X56500Y8028D01*
X55700Y7628D01*
X67200Y2700D02*
X67600Y3500D01*
X67200Y4300D01*
X68000Y3900D01*
X68800Y4300D01*
X68400Y3500D01*
X68800Y2700D01*
X68000Y3100D01*
X67200Y2700D01*
X33200Y51700D02*
X33600Y52500D01*
X33200Y53300D01*
X34000Y52900D01*
X34800Y53300D01*
X34400Y52500D01*
X34800Y51700D01*
X34000Y52100D01*
X33200Y51700D01*
X-300Y11200D02*
X100Y12000D01*
X-300Y12800D01*
X500Y12400D01*
X1300Y12800D01*
X900Y12000D01*
X1300Y11200D01*
X500Y11600D01*
X-300Y11200D01*
X-2800Y9700D02*
X-2400Y10500D01*
X-2800Y11300D01*
X-2000Y10900D01*
X-1200Y11300D01*
X-1600Y10500D01*
X-1200Y9700D01*
X-2000Y10100D01*
X-2800Y9700D01*
X-8195Y247D02*
X-7795Y1047D01*
X-8195Y1847D01*
X-7395Y1447D01*
X-6595Y1847D01*
X-6995Y1047D01*
X-6595Y247D01*
X-7395Y647D01*
X-8195Y247D01*
X-45400Y-6400D02*
Y-6800D01*
X-44600D01*
Y-6400D01*
X-44200D01*
Y-5600D01*
X-44600D01*
Y-5200D01*
X-45400D01*
Y-5600D01*
X-45800D01*
Y-6400D01*
X-45400D01*
Y1600D02*
Y1200D01*
X-44600D01*
Y1600D01*
X-44200D01*
Y2400D01*
X-44600D01*
Y2800D01*
X-45400D01*
Y2400D01*
X-45800D01*
Y1600D01*
X-45400D01*
Y-2400D02*
Y-2800D01*
X-44600D01*
Y-2400D01*
X-44200D01*
Y-1600D01*
X-44600D01*
Y-1200D01*
X-45400D01*
Y-1600D01*
X-45800D01*
Y-2400D01*
X-45400D01*
Y5600D02*
Y5200D01*
X-44600D01*
Y5600D01*
X-44200D01*
Y6400D01*
X-44600D01*
Y6800D01*
X-45400D01*
Y6400D01*
X-45800D01*
Y5600D01*
X-45400D01*
Y9100D02*
Y8700D01*
X-44600D01*
Y9100D01*
X-44200D01*
Y9900D01*
X-44600D01*
Y10300D01*
X-45400D01*
Y9900D01*
X-45800D01*
Y9100D01*
X-45400D01*
X54600Y25100D02*
Y24700D01*
X55400D01*
Y25100D01*
X55800D01*
Y25900D01*
X55400D01*
Y26300D01*
X54600D01*
Y25900D01*
X54200D01*
Y25100D01*
X54600D01*
X58600D02*
Y24700D01*
X59400D01*
Y25100D01*
X59800D01*
Y25900D01*
X59400D01*
Y26300D01*
X58600D01*
Y25900D01*
X58200D01*
Y25100D01*
X58600D01*
X-12400Y37600D02*
Y37200D01*
X-11600D01*
Y37600D01*
X-11200D01*
Y38400D01*
X-11600D01*
Y38800D01*
X-12400D01*
Y38400D01*
X-12800D01*
Y37600D01*
X-12400D01*
X-37900Y21100D02*
Y20700D01*
X-37100D01*
Y21100D01*
X-36700D01*
Y21900D01*
X-37100D01*
Y22300D01*
X-37900D01*
Y21900D01*
X-38300D01*
Y21100D01*
X-37900D01*
X-45400Y-9900D02*
Y-10300D01*
X-44600D01*
Y-9900D01*
X-44200D01*
Y-9100D01*
X-44600D01*
Y-8700D01*
X-45400D01*
Y-9100D01*
X-45800D01*
Y-9900D01*
X-45400D01*
Y12600D02*
Y12200D01*
X-44600D01*
Y12600D01*
X-44200D01*
Y13400D01*
X-44600D01*
Y13800D01*
X-45400D01*
Y13400D01*
X-45800D01*
Y12600D01*
X-45400D01*
Y16100D02*
Y15700D01*
X-44600D01*
Y16100D01*
X-44200D01*
Y16900D01*
X-44600D01*
Y17300D01*
X-45400D01*
Y16900D01*
X-45800D01*
Y16100D01*
X-45400D01*
X-53400Y-20900D02*
Y-21300D01*
X-52600D01*
Y-20900D01*
X-52200D01*
Y-20100D01*
X-52600D01*
Y-19700D01*
X-53400D01*
Y-20100D01*
X-53800D01*
Y-20900D01*
X-53400D01*
X-47900Y-19400D02*
Y-19800D01*
X-47100D01*
Y-19400D01*
X-46700D01*
Y-18600D01*
X-47100D01*
Y-18200D01*
X-47900D01*
Y-18600D01*
X-48300D01*
Y-19400D01*
X-47900D01*
X-51400Y-16900D02*
Y-17300D01*
X-50600D01*
Y-16900D01*
X-50200D01*
Y-16100D01*
X-50600D01*
Y-15700D01*
X-51400D01*
Y-16100D01*
X-51800D01*
Y-16900D01*
X-51400D01*
X-48900Y-23900D02*
Y-24300D01*
X-48100D01*
Y-23900D01*
X-47700D01*
Y-23100D01*
X-48100D01*
Y-22700D01*
X-48900D01*
Y-23100D01*
X-49300D01*
Y-23900D01*
X-48900D01*
X-47900Y-27900D02*
Y-28300D01*
X-47100D01*
Y-27900D01*
X-46700D01*
Y-27100D01*
X-47100D01*
Y-26700D01*
X-47900D01*
Y-27100D01*
X-48300D01*
Y-27900D01*
X-47900D01*
X-46900Y-31900D02*
Y-32300D01*
X-46100D01*
Y-31900D01*
X-45700D01*
Y-31100D01*
X-46100D01*
Y-30700D01*
X-46900D01*
Y-31100D01*
X-47300D01*
Y-31900D01*
X-46900D01*
X-65400Y-28400D02*
Y-28800D01*
X-64600D01*
Y-28400D01*
X-64200D01*
Y-27600D01*
X-64600D01*
Y-27200D01*
X-65400D01*
Y-27600D01*
X-65800D01*
Y-28400D01*
X-65400D01*
X-63400Y-33400D02*
Y-33800D01*
X-62600D01*
Y-33400D01*
X-62200D01*
Y-32600D01*
X-62600D01*
Y-32200D01*
X-63400D01*
Y-32600D01*
X-63800D01*
Y-33400D01*
X-63400D01*
X-61400Y-38900D02*
Y-39300D01*
X-60600D01*
Y-38900D01*
X-60200D01*
Y-38100D01*
X-60600D01*
Y-37700D01*
X-61400D01*
Y-38100D01*
X-61800D01*
Y-38900D01*
X-61400D01*
X-50900Y39100D02*
Y38700D01*
X-50100D01*
Y39100D01*
X-49700D01*
Y39900D01*
X-50100D01*
Y40300D01*
X-50900D01*
Y39900D01*
X-51300D01*
Y39100D01*
X-50900D01*
X-60900Y39600D02*
Y39200D01*
X-60100D01*
Y39600D01*
X-59700D01*
Y40400D01*
X-60100D01*
Y40800D01*
X-60900D01*
Y40400D01*
X-61300D01*
Y39600D01*
X-60900D01*
X-64400Y31100D02*
Y30700D01*
X-63600D01*
Y31100D01*
X-63200D01*
Y31900D01*
X-63600D01*
Y32300D01*
X-64400D01*
Y31900D01*
X-64800D01*
Y31100D01*
X-64400D01*
X-37900Y24600D02*
Y24200D01*
X-37100D01*
Y24600D01*
X-36700D01*
Y25400D01*
X-37100D01*
Y25800D01*
X-37900D01*
Y25400D01*
X-38300D01*
Y24600D01*
X-37900D01*
Y28100D02*
Y27700D01*
X-37100D01*
Y28100D01*
X-36700D01*
Y28900D01*
X-37100D01*
Y29300D01*
X-37900D01*
Y28900D01*
X-38300D01*
Y28100D01*
X-37900D01*
X-46400Y30100D02*
Y29700D01*
X-45600D01*
Y30100D01*
X-45200D01*
Y30900D01*
X-45600D01*
Y31300D01*
X-46400D01*
Y30900D01*
X-46800D01*
Y30100D01*
X-46400D01*
X-46900Y35600D02*
Y35200D01*
X-46100D01*
Y35600D01*
X-45700D01*
Y36400D01*
X-46100D01*
Y36800D01*
X-46900D01*
Y36400D01*
X-47300D01*
Y35600D01*
X-46900D01*
X-62400Y35100D02*
Y34700D01*
X-61600D01*
Y35100D01*
X-61200D01*
Y35900D01*
X-61600D01*
Y36300D01*
X-62400D01*
Y35900D01*
X-62800D01*
Y35100D01*
X-62400D01*
X-65900Y26600D02*
Y26200D01*
X-65100D01*
Y26600D01*
X-64700D01*
Y27400D01*
X-65100D01*
Y27800D01*
X-65900D01*
Y27400D01*
X-66300D01*
Y26600D01*
X-65900D01*
X-47900Y26100D02*
Y25700D01*
X-47100D01*
Y26100D01*
X-46700D01*
Y26900D01*
X-47100D01*
Y27300D01*
X-47900D01*
Y26900D01*
X-48300D01*
Y26100D01*
X-47900D01*
X-48900Y15600D02*
Y15200D01*
X-48100D01*
Y15600D01*
X-47700D01*
Y16400D01*
X-48100D01*
Y16800D01*
X-48900D01*
Y16400D01*
X-49300D01*
Y15600D01*
X-48900D01*
X-51900Y17100D02*
Y16700D01*
X-51100D01*
Y17100D01*
X-50700D01*
Y17900D01*
X-51100D01*
Y18300D01*
X-51900D01*
Y17900D01*
X-52300D01*
Y17100D01*
X-51900D01*
X-36400Y42516D02*
Y42116D01*
X-35600D01*
Y42516D01*
X-35200D01*
Y43317D01*
X-35600D01*
Y43716D01*
X-36400D01*
Y43317D01*
X-36800D01*
Y42516D01*
X-36400D01*
Y31683D02*
Y31284D01*
X-35600D01*
Y31683D01*
X-35200D01*
Y32484D01*
X-35600D01*
Y32884D01*
X-36400D01*
Y32484D01*
X-36800D01*
Y31683D01*
X-36400D01*
X-18900Y37600D02*
Y37200D01*
X-18100D01*
Y37600D01*
X-17700D01*
Y38400D01*
X-18100D01*
Y38800D01*
X-18900D01*
Y38400D01*
X-19300D01*
Y37600D01*
X-18900D01*
X27200Y21200D02*
X27600Y22000D01*
X27200Y22800D01*
X28000Y22400D01*
X28800Y22800D01*
X28400Y22000D01*
X28800Y21200D01*
X28000Y21600D01*
X27200Y21200D01*
X-18564Y1661D02*
X-18164Y2461D01*
X-18564Y3261D01*
X-17764Y2861D01*
X-16964Y3261D01*
X-17364Y2461D01*
X-16964Y1661D01*
X-17764Y2061D01*
X-18564Y1661D01*
X-34115D02*
X-33715Y2461D01*
X-34115Y3261D01*
X-33315Y2861D01*
X-32515Y3261D01*
X-32915Y2461D01*
X-32515Y1661D01*
X-33315Y2061D01*
X-34115Y1661D01*
X-28800D02*
X-28400Y2461D01*
X-28800Y3261D01*
X-28000Y2861D01*
X-27200Y3261D01*
X-27600Y2461D01*
X-27200Y1661D01*
X-28000Y2061D01*
X-28800Y1661D01*
X-23485D02*
X-23085Y2461D01*
X-23485Y3261D01*
X-22685Y2861D01*
X-21885Y3261D01*
X-22285Y2461D01*
X-21885Y1661D01*
X-22685Y2061D01*
X-23485Y1661D01*
Y5499D02*
X-23085Y6299D01*
X-23485Y7099D01*
X-22685Y6699D01*
X-21885Y7099D01*
X-22285Y6299D01*
X-21885Y5499D01*
X-22685Y5899D01*
X-23485Y5499D01*
X-28800D02*
X-28400Y6299D01*
X-28800Y7099D01*
X-28000Y6699D01*
X-27200Y7099D01*
X-27600Y6299D01*
X-27200Y5499D01*
X-28000Y5899D01*
X-28800Y5499D01*
X-34115D02*
X-33715Y6299D01*
X-34115Y7099D01*
X-33315Y6699D01*
X-32515Y7099D01*
X-32915Y6299D01*
X-32515Y5499D01*
X-33315Y5899D01*
X-34115Y5499D01*
X-39036Y-3261D02*
X-38636Y-2461D01*
X-39036Y-1661D01*
X-38236Y-2061D01*
X-37436Y-1661D01*
X-37836Y-2461D01*
X-37436Y-3261D01*
X-38236Y-2861D01*
X-39036Y-3261D01*
Y1661D02*
X-38636Y2461D01*
X-39036Y3261D01*
X-38236Y2861D01*
X-37436Y3261D01*
X-37836Y2461D01*
X-37436Y1661D01*
X-38236Y2061D01*
X-39036Y1661D01*
X-34115Y-3261D02*
X-33715Y-2461D01*
X-34115Y-1661D01*
X-33315Y-2061D01*
X-32515Y-1661D01*
X-32915Y-2461D01*
X-32515Y-3261D01*
X-33315Y-2861D01*
X-34115Y-3261D01*
X-28800D02*
X-28400Y-2461D01*
X-28800Y-1661D01*
X-28000Y-2061D01*
X-27200Y-1661D01*
X-27600Y-2461D01*
X-27200Y-3261D01*
X-28000Y-2861D01*
X-28800Y-3261D01*
X-23485D02*
X-23085Y-2461D01*
X-23485Y-1661D01*
X-22685Y-2061D01*
X-21885Y-1661D01*
X-22285Y-2461D01*
X-21885Y-3261D01*
X-22685Y-2861D01*
X-23485Y-3261D01*
X-18564D02*
X-18164Y-2461D01*
X-18564Y-1661D01*
X-17764Y-2061D01*
X-16964Y-1661D01*
X-17364Y-2461D01*
X-16964Y-3261D01*
X-17764Y-2861D01*
X-18564Y-3261D01*
X-23485Y-7099D02*
X-23085Y-6299D01*
X-23485Y-5499D01*
X-22685Y-5899D01*
X-21885Y-5499D01*
X-22285Y-6299D01*
X-21885Y-7099D01*
X-22685Y-6699D01*
X-23485Y-7099D01*
X-28800D02*
X-28400Y-6299D01*
X-28800Y-5499D01*
X-28000Y-5899D01*
X-27200Y-5499D01*
X-27600Y-6299D01*
X-27200Y-7099D01*
X-28000Y-6699D01*
X-28800Y-7099D01*
X-34115D02*
X-33715Y-6299D01*
X-34115Y-5499D01*
X-33315Y-5899D01*
X-32515Y-5499D01*
X-32915Y-6299D01*
X-32515Y-7099D01*
X-33315Y-6699D01*
X-34115Y-7099D01*
X-76726Y32446D02*
Y32046D01*
X-75926D01*
Y32446D01*
X-75526D01*
Y33246D01*
X-75926D01*
Y33646D01*
X-76726D01*
Y33246D01*
X-77126D01*
Y32446D01*
X-76726D01*
X-73274Y39523D02*
Y39123D01*
X-72474D01*
Y39523D01*
X-72074D01*
Y40323D01*
X-72474D01*
Y40723D01*
X-73274D01*
Y40323D01*
X-73674D01*
Y39523D01*
X-73274D01*
X-75000Y35985D02*
Y35585D01*
X-74200D01*
Y35985D01*
X-73800D01*
Y36785D01*
X-74200D01*
Y37185D01*
X-75000D01*
Y36785D01*
X-75400D01*
Y35985D01*
X-75000D01*
X-80264Y34172D02*
Y33772D01*
X-79464D01*
Y34172D01*
X-79064D01*
Y34972D01*
X-79464D01*
Y35372D01*
X-80264D01*
Y34972D01*
X-80664D01*
Y34172D01*
X-80264D01*
X-76813Y41249D02*
Y40849D01*
X-76013D01*
Y41249D01*
X-75613D01*
Y42049D01*
X-76013D01*
Y42449D01*
X-76813D01*
Y42049D01*
X-77213D01*
Y41249D01*
X-76813D01*
X-78539Y37711D02*
Y37311D01*
X-77738D01*
Y37711D01*
X-77338D01*
Y38511D01*
X-77738D01*
Y38911D01*
X-78539D01*
Y38511D01*
X-78939D01*
Y37711D01*
X-78539D01*
X-73187Y30720D02*
Y30320D01*
X-72387D01*
Y30720D01*
X-71987D01*
Y31520D01*
X-72387D01*
Y31920D01*
X-73187D01*
Y31520D01*
X-73587D01*
Y30720D01*
X-73187D01*
X-69735Y37797D02*
Y37398D01*
X-68936D01*
Y37797D01*
X-68536D01*
Y38598D01*
X-68936D01*
Y38998D01*
X-69735D01*
Y38598D01*
X-70135D01*
Y37797D01*
X-69735D01*
X-71461Y34259D02*
Y33859D01*
X-70661D01*
Y34259D01*
X-70261D01*
Y35059D01*
X-70661D01*
Y35459D01*
X-71461D01*
Y35059D01*
X-71861D01*
Y34259D01*
X-71461D01*
X-82158Y14435D02*
Y14035D01*
X-81358D01*
Y14435D01*
X-80958D01*
Y15235D01*
X-81358D01*
Y15635D01*
X-82158D01*
Y15235D01*
X-82558D01*
Y14435D01*
X-82158D01*
X-80387Y22107D02*
Y21707D01*
X-79587D01*
Y22107D01*
X-79187D01*
Y22907D01*
X-79587D01*
Y23307D01*
X-80387D01*
Y22907D01*
X-80787D01*
Y22107D01*
X-80387D01*
X-81273Y18271D02*
Y17871D01*
X-80473D01*
Y18271D01*
X-80073D01*
Y19071D01*
X-80473D01*
Y19471D01*
X-81273D01*
Y19071D01*
X-81673D01*
Y18271D01*
X-81273D01*
X-85994Y15321D02*
Y14920D01*
X-85194D01*
Y15321D01*
X-84794D01*
Y16120D01*
X-85194D01*
Y16521D01*
X-85994D01*
Y16120D01*
X-86395D01*
Y15321D01*
X-85994D01*
X-84223Y22993D02*
Y22593D01*
X-83423D01*
Y22993D01*
X-83023D01*
Y23793D01*
X-83423D01*
Y24193D01*
X-84223D01*
Y23793D01*
X-84623D01*
Y22993D01*
X-84223D01*
X-85109Y19157D02*
Y18757D01*
X-84309D01*
Y19157D01*
X-83909D01*
Y19957D01*
X-84309D01*
Y20357D01*
X-85109D01*
Y19957D01*
X-85509D01*
Y19157D01*
X-85109D01*
X-78322Y13549D02*
Y13149D01*
X-77522D01*
Y13549D01*
X-77122D01*
Y14349D01*
X-77522D01*
Y14749D01*
X-78322D01*
Y14349D01*
X-78722D01*
Y13549D01*
X-78322D01*
X-76551Y21221D02*
Y20821D01*
X-75751D01*
Y21221D01*
X-75351D01*
Y22021D01*
X-75751D01*
Y22421D01*
X-76551D01*
Y22021D01*
X-76951D01*
Y21221D01*
X-76551D01*
X-77437Y17385D02*
Y16985D01*
X-76637D01*
Y17385D01*
X-76237D01*
Y18185D01*
X-76637D01*
Y18585D01*
X-77437D01*
Y18185D01*
X-77837D01*
Y17385D01*
X-77437D01*
X-83400Y-4337D02*
Y-4737D01*
X-82600D01*
Y-4337D01*
X-82200D01*
Y-3537D01*
X-82600D01*
Y-3137D01*
X-83400D01*
Y-3537D01*
X-83800D01*
Y-4337D01*
X-83400D01*
Y3537D02*
Y3137D01*
X-82600D01*
Y3537D01*
X-82200D01*
Y4337D01*
X-82600D01*
Y4737D01*
X-83400D01*
Y4337D01*
X-83800D01*
Y3537D01*
X-83400D01*
Y-400D02*
Y-800D01*
X-82600D01*
Y-400D01*
X-82200D01*
Y400D01*
X-82600D01*
Y800D01*
X-83400D01*
Y400D01*
X-83800D01*
Y-400D01*
X-83400D01*
X-87337Y-4337D02*
Y-4737D01*
X-86537D01*
Y-4337D01*
X-86137D01*
Y-3537D01*
X-86537D01*
Y-3137D01*
X-87337D01*
Y-3537D01*
X-87737D01*
Y-4337D01*
X-87337D01*
Y3537D02*
Y3137D01*
X-86537D01*
Y3537D01*
X-86137D01*
Y4337D01*
X-86537D01*
Y4737D01*
X-87337D01*
Y4337D01*
X-87737D01*
Y3537D01*
X-87337D01*
Y-400D02*
Y-800D01*
X-86537D01*
Y-400D01*
X-86137D01*
Y400D01*
X-86537D01*
Y800D01*
X-87337D01*
Y400D01*
X-87737D01*
Y-400D01*
X-87337D01*
X-79463Y-4337D02*
Y-4737D01*
X-78663D01*
Y-4337D01*
X-78263D01*
Y-3537D01*
X-78663D01*
Y-3137D01*
X-79463D01*
Y-3537D01*
X-79863D01*
Y-4337D01*
X-79463D01*
Y3537D02*
Y3137D01*
X-78663D01*
Y3537D01*
X-78263D01*
Y4337D01*
X-78663D01*
Y4737D01*
X-79463D01*
Y4337D01*
X-79863D01*
Y3537D01*
X-79463D01*
Y-400D02*
Y-800D01*
X-78663D01*
Y-400D01*
X-78263D01*
Y400D01*
X-78663D01*
Y800D01*
X-79463D01*
Y400D01*
X-79863D01*
Y-400D01*
X-79463D01*
X-80387Y-22907D02*
Y-23307D01*
X-79587D01*
Y-22907D01*
X-79187D01*
Y-22107D01*
X-79587D01*
Y-21707D01*
X-80387D01*
Y-22107D01*
X-80787D01*
Y-22907D01*
X-80387D01*
X-82158Y-15235D02*
Y-15635D01*
X-81358D01*
Y-15235D01*
X-80958D01*
Y-14435D01*
X-81358D01*
Y-14035D01*
X-82158D01*
Y-14435D01*
X-82558D01*
Y-15235D01*
X-82158D01*
X-81273Y-19071D02*
Y-19471D01*
X-80473D01*
Y-19071D01*
X-80073D01*
Y-18271D01*
X-80473D01*
Y-17871D01*
X-81273D01*
Y-18271D01*
X-81673D01*
Y-19071D01*
X-81273D01*
X-84223Y-23793D02*
Y-24193D01*
X-83423D01*
Y-23793D01*
X-83023D01*
Y-22993D01*
X-83423D01*
Y-22593D01*
X-84223D01*
Y-22993D01*
X-84623D01*
Y-23793D01*
X-84223D01*
X-85994Y-16120D02*
Y-16521D01*
X-85194D01*
Y-16120D01*
X-84794D01*
Y-15321D01*
X-85194D01*
Y-14920D01*
X-85994D01*
Y-15321D01*
X-86395D01*
Y-16120D01*
X-85994D01*
X-85109Y-19957D02*
Y-20357D01*
X-84309D01*
Y-19957D01*
X-83909D01*
Y-19157D01*
X-84309D01*
Y-18757D01*
X-85109D01*
Y-19157D01*
X-85509D01*
Y-19957D01*
X-85109D01*
X-76551Y-22021D02*
Y-22421D01*
X-75751D01*
Y-22021D01*
X-75351D01*
Y-21221D01*
X-75751D01*
Y-20821D01*
X-76551D01*
Y-21221D01*
X-76951D01*
Y-22021D01*
X-76551D01*
X-78322Y-14349D02*
Y-14749D01*
X-77522D01*
Y-14349D01*
X-77122D01*
Y-13549D01*
X-77522D01*
Y-13149D01*
X-78322D01*
Y-13549D01*
X-78722D01*
Y-14349D01*
X-78322D01*
X-77437Y-18185D02*
Y-18585D01*
X-76637D01*
Y-18185D01*
X-76237D01*
Y-17385D01*
X-76637D01*
Y-16985D01*
X-77437D01*
Y-17385D01*
X-77837D01*
Y-18185D01*
X-77437D01*
X-73274Y-40323D02*
Y-40723D01*
X-72474D01*
Y-40323D01*
X-72074D01*
Y-39523D01*
X-72474D01*
Y-39123D01*
X-73274D01*
Y-39523D01*
X-73674D01*
Y-40323D01*
X-73274D01*
X-76726Y-33246D02*
Y-33646D01*
X-75926D01*
Y-33246D01*
X-75526D01*
Y-32446D01*
X-75926D01*
Y-32046D01*
X-76726D01*
Y-32446D01*
X-77126D01*
Y-33246D01*
X-76726D01*
X-75000Y-36785D02*
Y-37185D01*
X-74200D01*
Y-36785D01*
X-73800D01*
Y-35985D01*
X-74200D01*
Y-35585D01*
X-75000D01*
Y-35985D01*
X-75400D01*
Y-36785D01*
X-75000D01*
X-76813Y-42049D02*
Y-42449D01*
X-76013D01*
Y-42049D01*
X-75613D01*
Y-41249D01*
X-76013D01*
Y-40849D01*
X-76813D01*
Y-41249D01*
X-77213D01*
Y-42049D01*
X-76813D01*
X-80264Y-34972D02*
Y-35372D01*
X-79464D01*
Y-34972D01*
X-79064D01*
Y-34172D01*
X-79464D01*
Y-33772D01*
X-80264D01*
Y-34172D01*
X-80664D01*
Y-34972D01*
X-80264D01*
X-78539Y-38511D02*
Y-38911D01*
X-77738D01*
Y-38511D01*
X-77338D01*
Y-37711D01*
X-77738D01*
Y-37311D01*
X-78539D01*
Y-37711D01*
X-78939D01*
Y-38511D01*
X-78539D01*
X-69735Y-38598D02*
Y-38998D01*
X-68936D01*
Y-38598D01*
X-68536D01*
Y-37797D01*
X-68936D01*
Y-37398D01*
X-69735D01*
Y-37797D01*
X-70135D01*
Y-38598D01*
X-69735D01*
X-73187Y-31520D02*
Y-31920D01*
X-72387D01*
Y-31520D01*
X-71987D01*
Y-30720D01*
X-72387D01*
Y-30320D01*
X-73187D01*
Y-30720D01*
X-73587D01*
Y-31520D01*
X-73187D01*
X-71461Y-35059D02*
Y-35459D01*
X-70661D01*
Y-35059D01*
X-70261D01*
Y-34259D01*
X-70661D01*
Y-33859D01*
X-71461D01*
Y-34259D01*
X-71861D01*
Y-35059D01*
X-71461D01*
X61200Y-13800D02*
X61600Y-13000D01*
X61200Y-12200D01*
X62000Y-12600D01*
X62800Y-12200D01*
X62400Y-13000D01*
X62800Y-13800D01*
X62000Y-13400D01*
X61200Y-13800D01*
Y12200D02*
X61600Y13000D01*
X61200Y13800D01*
X62000Y13400D01*
X62800Y13800D01*
X62400Y13000D01*
X62800Y12200D01*
X62000Y12600D01*
X61200Y12200D01*
X-3800Y14200D02*
X-3400Y15000D01*
X-3800Y15800D01*
X-3000Y15400D01*
X-2200Y15800D01*
X-2600Y15000D01*
X-2200Y14200D01*
X-3000Y14600D01*
X-3800Y14200D01*
X-300Y3700D02*
X100Y4500D01*
X-300Y5300D01*
X500Y4900D01*
X1300Y5300D01*
X900Y4500D01*
X1300Y3700D01*
X500Y4100D01*
X-300Y3700D01*
X23700Y-4300D02*
X24100Y-3500D01*
X23700Y-2700D01*
X24500Y-3100D01*
X25300Y-2700D01*
X24900Y-3500D01*
X25300Y-4300D01*
X24500Y-3900D01*
X23700Y-4300D01*
X54200Y15700D02*
X54600Y16500D01*
X54200Y17300D01*
X55000Y16900D01*
X55800Y17300D01*
X55400Y16500D01*
X55800Y15700D01*
X55000Y16100D01*
X54200Y15700D01*
X56200Y-6800D02*
X56600Y-6000D01*
X56200Y-5200D01*
X57000Y-5600D01*
X57800Y-5200D01*
X57400Y-6000D01*
X57800Y-6800D01*
X57000Y-6400D01*
X56200Y-6800D01*
X56700Y42700D02*
X57100Y43500D01*
X56700Y44300D01*
X57500Y43900D01*
X58300Y44300D01*
X57900Y43500D01*
X58300Y42700D01*
X57500Y43100D01*
X56700Y42700D01*
X42200Y18700D02*
X42600Y19500D01*
X42200Y20300D01*
X43000Y19900D01*
X43800Y20300D01*
X43400Y19500D01*
X43800Y18700D01*
X43000Y19100D01*
X42200Y18700D01*
X40200Y16200D02*
X40600Y17000D01*
X40200Y17800D01*
X41000Y17400D01*
X41800Y17800D01*
X41400Y17000D01*
X41800Y16200D01*
X41000Y16600D01*
X40200Y16200D01*
X28700Y45700D02*
X29100Y46500D01*
X28700Y47300D01*
X29500Y46900D01*
X30300Y47300D01*
X29900Y46500D01*
X30300Y45700D01*
X29500Y46100D01*
X28700Y45700D01*
X30200Y41700D02*
X30600Y42500D01*
X30200Y43300D01*
X31000Y42900D01*
X31800Y43300D01*
X31400Y42500D01*
X31800Y41700D01*
X31000Y42100D01*
X30200Y41700D01*
X19200Y64700D02*
X19600Y65500D01*
X19200Y66300D01*
X20000Y65900D01*
X20800Y66300D01*
X20400Y65500D01*
X20800Y64700D01*
X20000Y65100D01*
X19200Y64700D01*
X-40800Y-13800D02*
X-40400Y-13000D01*
X-40800Y-12200D01*
X-40000Y-12600D01*
X-39200Y-12200D01*
X-39600Y-13000D01*
X-39200Y-13800D01*
X-40000Y-13400D01*
X-40800Y-13800D01*
X-42300Y-30300D02*
X-41900Y-29500D01*
X-42300Y-28700D01*
X-41500Y-29100D01*
X-40700Y-28700D01*
X-41100Y-29500D01*
X-40700Y-30300D01*
X-41500Y-29900D01*
X-42300Y-30300D01*
X2700Y-18800D02*
X3100Y-18000D01*
X2700Y-17200D01*
X3500Y-17600D01*
X4300Y-17200D01*
X3900Y-18000D01*
X4300Y-18800D01*
X3500Y-18400D01*
X2700Y-18800D01*
X-41300Y-20800D02*
X-40900Y-20000D01*
X-41300Y-19200D01*
X-40500Y-19600D01*
X-39700Y-19200D01*
X-40100Y-20000D01*
X-39700Y-20800D01*
X-40500Y-20400D01*
X-41300Y-20800D01*
X15200Y13200D02*
X15600Y14000D01*
X15200Y14800D01*
X16000Y14400D01*
X16800Y14800D01*
X16400Y14000D01*
X16800Y13200D01*
X16000Y13600D01*
X15200Y13200D01*
X48700Y20200D02*
X49100Y21000D01*
X48700Y21800D01*
X49500Y21400D01*
X50300Y21800D01*
X49900Y21000D01*
X50300Y20200D01*
X49500Y20600D01*
X48700Y20200D01*
X24200Y-20800D02*
X24600Y-20000D01*
X24200Y-19200D01*
X25000Y-19600D01*
X25800Y-19200D01*
X25400Y-20000D01*
X25800Y-20800D01*
X25000Y-20400D01*
X24200Y-20800D01*
X-11300Y-23800D02*
X-10900Y-23000D01*
X-11300Y-22200D01*
X-10500Y-22600D01*
X-9700Y-22200D01*
X-10100Y-23000D01*
X-9700Y-23800D01*
X-10500Y-23400D01*
X-11300Y-23800D01*
X-17800Y-14300D02*
X-17400Y-13500D01*
X-17800Y-12700D01*
X-17000Y-13100D01*
X-16200Y-12700D01*
X-16600Y-13500D01*
X-16200Y-14300D01*
X-17000Y-13900D01*
X-17800Y-14300D01*
X6700Y-19800D02*
X7100Y-19000D01*
X6700Y-18200D01*
X7500Y-18600D01*
X8300Y-18200D01*
X7900Y-19000D01*
X8300Y-19800D01*
X7500Y-19400D01*
X6700Y-19800D01*
X49200Y-11800D02*
X49600Y-11000D01*
X49200Y-10200D01*
X50000Y-10600D01*
X50800Y-10200D01*
X50400Y-11000D01*
X50800Y-11800D01*
X50000Y-11400D01*
X49200Y-11800D01*
X-22800Y-18300D02*
X-22400Y-17500D01*
X-22800Y-16700D01*
X-22000Y-17100D01*
X-21200Y-16700D01*
X-21600Y-17500D01*
X-21200Y-18300D01*
X-22000Y-17900D01*
X-22800Y-18300D01*
X-4561Y1127D02*
X-4160Y1928D01*
X-4561Y2727D01*
X-3760Y2327D01*
X-2960Y2727D01*
X-3360Y1928D01*
X-2960Y1127D01*
X-3760Y1527D01*
X-4561Y1127D01*
X-28300Y-19300D02*
X-27900Y-18500D01*
X-28300Y-17700D01*
X-27500Y-18100D01*
X-26700Y-17700D01*
X-27100Y-18500D01*
X-26700Y-19300D01*
X-27500Y-18900D01*
X-28300Y-19300D01*
X-27300Y-15800D02*
X-26900Y-15000D01*
X-27300Y-14200D01*
X-26500Y-14600D01*
X-25700Y-14200D01*
X-26100Y-15000D01*
X-25700Y-15800D01*
X-26500Y-15400D01*
X-27300Y-15800D01*
X-41300Y-17300D02*
X-40900Y-16500D01*
X-41300Y-15700D01*
X-40500Y-16100D01*
X-39700Y-15700D01*
X-40100Y-16500D01*
X-39700Y-17300D01*
X-40500Y-16900D01*
X-41300Y-17300D01*
X-15300Y13700D02*
X-14900Y14500D01*
X-15300Y15300D01*
X-14500Y14900D01*
X-13700Y15300D01*
X-14100Y14500D01*
X-13700Y13700D01*
X-14500Y14100D01*
X-15300Y13700D01*
X-8300Y17700D02*
X-7900Y18500D01*
X-8300Y19300D01*
X-7500Y18900D01*
X-6700Y19300D01*
X-7100Y18500D01*
X-6700Y17700D01*
X-7500Y18100D01*
X-8300Y17700D01*
X5700Y19200D02*
X6100Y20000D01*
X5700Y20800D01*
X6500Y20400D01*
X7300Y20800D01*
X6900Y20000D01*
X7300Y19200D01*
X6500Y19600D01*
X5700Y19200D01*
X40700Y46700D02*
X41100Y47500D01*
X40700Y48300D01*
X41500Y47900D01*
X42300Y48300D01*
X41900Y47500D01*
X42300Y46700D01*
X41500Y47100D01*
X40700Y46700D01*
X49700D02*
X50100Y47500D01*
X49700Y48300D01*
X50500Y47900D01*
X51300Y48300D01*
X50900Y47500D01*
X51300Y46700D01*
X50500Y47100D01*
X49700Y46700D01*
X37700Y39700D02*
X38100Y40500D01*
X37700Y41300D01*
X38500Y40900D01*
X39300Y41300D01*
X38900Y40500D01*
X39300Y39700D01*
X38500Y40100D01*
X37700Y39700D01*
X14700Y60200D02*
X15100Y61000D01*
X14700Y61800D01*
X15500Y61400D01*
X16300Y61800D01*
X15900Y61000D01*
X16300Y60200D01*
X15500Y60600D01*
X14700Y60200D01*
X23743Y7157D02*
X24143Y7957D01*
X23743Y8757D01*
X24543Y8357D01*
X25343Y8757D01*
X24943Y7957D01*
X25343Y7157D01*
X24543Y7557D01*
X23743Y7157D01*
X39700Y7200D02*
X40100Y8000D01*
X39700Y8800D01*
X40500Y8400D01*
X41300Y8800D01*
X40900Y8000D01*
X41300Y7200D01*
X40500Y7600D01*
X39700Y7200D01*
X31700Y-800D02*
X32100Y0D01*
X31700Y800D01*
X32500Y400D01*
X33300Y800D01*
X32900Y0D01*
X33300Y-800D01*
X32500Y-400D01*
X31700Y-800D01*
X39700Y-8800D02*
X40100Y-8000D01*
X39700Y-7200D01*
X40500Y-7600D01*
X41300Y-7200D01*
X40900Y-8000D01*
X41300Y-8800D01*
X40500Y-8400D01*
X39700Y-8800D01*
X23700D02*
X24100Y-8000D01*
X23700Y-7200D01*
X24500Y-7600D01*
X25300Y-7200D01*
X24900Y-8000D01*
X25300Y-8800D01*
X24500Y-8400D01*
X23700Y-8800D01*
X48700Y-30800D02*
X49100Y-30000D01*
X48700Y-29200D01*
X49500Y-29600D01*
X50300Y-29200D01*
X49900Y-30000D01*
X50300Y-30800D01*
X49500Y-30400D01*
X48700Y-30800D01*
X-35300Y-35800D02*
X-34900Y-35000D01*
X-35300Y-34200D01*
X-34500Y-34600D01*
X-33700Y-34200D01*
X-34100Y-35000D01*
X-33700Y-35800D01*
X-34500Y-35400D01*
X-35300Y-35800D01*
X-30800Y-25800D02*
X-30400Y-25000D01*
X-30800Y-24200D01*
X-30000Y-24600D01*
X-29200Y-24200D01*
X-29600Y-25000D01*
X-29200Y-25800D01*
X-30000Y-25400D01*
X-30800Y-25800D01*
X10200Y30700D02*
X10600Y31500D01*
X10200Y32300D01*
X11000Y31900D01*
X11800Y32300D01*
X11400Y31500D01*
X11800Y30700D01*
X11000Y31100D01*
X10200Y30700D01*
X12200Y33700D02*
X12600Y34500D01*
X12200Y35300D01*
X13000Y34900D01*
X13800Y35300D01*
X13400Y34500D01*
X13800Y33700D01*
X13000Y34100D01*
X12200Y33700D01*
X14200Y73200D02*
X14600Y74000D01*
X14200Y74800D01*
X15000Y74400D01*
X15800Y74800D01*
X15400Y74000D01*
X15800Y73200D01*
X15000Y73600D01*
X14200Y73200D01*
X34700Y25200D02*
X35100Y26000D01*
X34700Y26800D01*
X35500Y26400D01*
X36300Y26800D01*
X35900Y26000D01*
X36300Y25200D01*
X35500Y25600D01*
X34700Y25200D01*
X14200Y79700D02*
X14600Y80500D01*
X14200Y81300D01*
X15000Y80900D01*
X15800Y81300D01*
X15400Y80500D01*
X15800Y79700D01*
X15000Y80100D01*
X14200Y79700D01*
X67200Y21200D02*
X67600Y22000D01*
X67200Y22800D01*
X68000Y22400D01*
X68800Y22800D01*
X68400Y22000D01*
X68800Y21200D01*
X68000Y21600D01*
X67200Y21200D01*
X61700Y25200D02*
X62100Y26000D01*
X61700Y26800D01*
X62500Y26400D01*
X63300Y26800D01*
X62900Y26000D01*
X63300Y25200D01*
X62500Y25600D01*
X61700Y25200D01*
X22200Y-31300D02*
X22600Y-30500D01*
X22200Y-29700D01*
X23000Y-30100D01*
X23800Y-29700D01*
X23400Y-30500D01*
X23800Y-31300D01*
X23000Y-30900D01*
X22200Y-31300D01*
D100*
X62072Y17008D02*
G03*
X62072Y17008I-800J0D01*
G01*
Y-17008D02*
G03*
X62072Y-17008I-800J0D01*
G01*
M02*
