G04*
G04 #@! TF.GenerationSoftware,Altium Limited,Altium Designer,21.5.1 (32)*
G04*
G04 Layer_Color=8388736*
%FSLAX25Y25*%
%MOIN*%
G70*
G04*
G04 #@! TF.SameCoordinates,9F226A22-D70E-441E-867E-09538FDFB880*
G04*
G04*
G04 #@! TF.FilePolarity,Negative*
G04*
G01*
G75*
G04:AMPARAMS|DCode=23|XSize=31.5mil|YSize=31.5mil|CornerRadius=7.87mil|HoleSize=0mil|Usage=FLASHONLY|Rotation=90.000|XOffset=0mil|YOffset=0mil|HoleType=Round|Shape=RoundedRectangle|*
%AMROUNDEDRECTD23*
21,1,0.03150,0.01575,0,0,90.0*
21,1,0.01575,0.03150,0,0,90.0*
1,1,0.01575,0.00787,0.00787*
1,1,0.01575,0.00787,-0.00787*
1,1,0.01575,-0.00787,-0.00787*
1,1,0.01575,-0.00787,0.00787*
%
%ADD23ROUNDEDRECTD23*%
G04:AMPARAMS|DCode=32|XSize=15.75mil|YSize=19.68mil|CornerRadius=3.94mil|HoleSize=0mil|Usage=FLASHONLY|Rotation=180.000|XOffset=0mil|YOffset=0mil|HoleType=Round|Shape=RoundedRectangle|*
%AMROUNDEDRECTD32*
21,1,0.01575,0.01181,0,0,180.0*
21,1,0.00787,0.01968,0,0,180.0*
1,1,0.00787,-0.00394,0.00591*
1,1,0.00787,0.00394,0.00591*
1,1,0.00787,0.00394,-0.00591*
1,1,0.00787,-0.00394,-0.00591*
%
%ADD32ROUNDEDRECTD32*%
G04:AMPARAMS|DCode=33|XSize=53.33mil|YSize=71.11mil|CornerRadius=13.33mil|HoleSize=0mil|Usage=FLASHONLY|Rotation=270.000|XOffset=0mil|YOffset=0mil|HoleType=Round|Shape=RoundedRectangle|*
%AMROUNDEDRECTD33*
21,1,0.05333,0.04444,0,0,270.0*
21,1,0.02667,0.07111,0,0,270.0*
1,1,0.02667,-0.02222,-0.01333*
1,1,0.02667,-0.02222,0.01333*
1,1,0.02667,0.02222,0.01333*
1,1,0.02667,0.02222,-0.01333*
%
%ADD33ROUNDEDRECTD33*%
G04:AMPARAMS|DCode=34|XSize=41.34mil|YSize=62.99mil|CornerRadius=10.34mil|HoleSize=0mil|Usage=FLASHONLY|Rotation=0.000|XOffset=0mil|YOffset=0mil|HoleType=Round|Shape=RoundedRectangle|*
%AMROUNDEDRECTD34*
21,1,0.04134,0.04232,0,0,0.0*
21,1,0.02067,0.06299,0,0,0.0*
1,1,0.02067,0.01034,-0.02116*
1,1,0.02067,-0.01034,-0.02116*
1,1,0.02067,-0.01034,0.02116*
1,1,0.02067,0.01034,0.02116*
%
%ADD34ROUNDEDRECTD34*%
G04:AMPARAMS|DCode=47|XSize=45.37mil|YSize=33.56mil|CornerRadius=9.89mil|HoleSize=0mil|Usage=FLASHONLY|Rotation=90.000|XOffset=0mil|YOffset=0mil|HoleType=Round|Shape=RoundedRectangle|*
%AMROUNDEDRECTD47*
21,1,0.04537,0.01378,0,0,90.0*
21,1,0.02559,0.03356,0,0,90.0*
1,1,0.01978,0.00689,0.01280*
1,1,0.01978,0.00689,-0.01280*
1,1,0.01978,-0.00689,-0.01280*
1,1,0.01978,-0.00689,0.01280*
%
%ADD47ROUNDEDRECTD47*%
G04:AMPARAMS|DCode=48|XSize=17.81mil|YSize=33.56mil|CornerRadius=5.95mil|HoleSize=0mil|Usage=FLASHONLY|Rotation=90.000|XOffset=0mil|YOffset=0mil|HoleType=Round|Shape=RoundedRectangle|*
%AMROUNDEDRECTD48*
21,1,0.01781,0.02165,0,0,90.0*
21,1,0.00591,0.03356,0,0,90.0*
1,1,0.01191,0.01083,0.00295*
1,1,0.01191,0.01083,-0.00295*
1,1,0.01191,-0.01083,-0.00295*
1,1,0.01191,-0.01083,0.00295*
%
%ADD48ROUNDEDRECTD48*%
G04:AMPARAMS|DCode=49|XSize=41.43mil|YSize=39.47mil|CornerRadius=11.37mil|HoleSize=0mil|Usage=FLASHONLY|Rotation=180.000|XOffset=0mil|YOffset=0mil|HoleType=Round|Shape=RoundedRectangle|*
%AMROUNDEDRECTD49*
21,1,0.04143,0.01673,0,0,180.0*
21,1,0.01870,0.03947,0,0,180.0*
1,1,0.02273,-0.00935,0.00837*
1,1,0.02273,0.00935,0.00837*
1,1,0.02273,0.00935,-0.00837*
1,1,0.02273,-0.00935,-0.00837*
%
%ADD49ROUNDEDRECTD49*%
G04:AMPARAMS|DCode=50|XSize=27.26mil|YSize=28.84mil|CornerRadius=8.32mil|HoleSize=0mil|Usage=FLASHONLY|Rotation=0.000|XOffset=0mil|YOffset=0mil|HoleType=Round|Shape=RoundedRectangle|*
%AMROUNDEDRECTD50*
21,1,0.02726,0.01221,0,0,0.0*
21,1,0.01063,0.02884,0,0,0.0*
1,1,0.01663,0.00532,-0.00610*
1,1,0.01663,-0.00532,-0.00610*
1,1,0.01663,-0.00532,0.00610*
1,1,0.01663,0.00532,0.00610*
%
%ADD50ROUNDEDRECTD50*%
G04:AMPARAMS|DCode=51|XSize=27.26mil|YSize=28.84mil|CornerRadius=8.32mil|HoleSize=0mil|Usage=FLASHONLY|Rotation=270.000|XOffset=0mil|YOffset=0mil|HoleType=Round|Shape=RoundedRectangle|*
%AMROUNDEDRECTD51*
21,1,0.02726,0.01221,0,0,270.0*
21,1,0.01063,0.02884,0,0,270.0*
1,1,0.01663,-0.00610,-0.00532*
1,1,0.01663,-0.00610,0.00532*
1,1,0.01663,0.00610,0.00532*
1,1,0.01663,0.00610,-0.00532*
%
%ADD51ROUNDEDRECTD51*%
G04:AMPARAMS|DCode=52|XSize=41.43mil|YSize=39.47mil|CornerRadius=11.37mil|HoleSize=0mil|Usage=FLASHONLY|Rotation=90.000|XOffset=0mil|YOffset=0mil|HoleType=Round|Shape=RoundedRectangle|*
%AMROUNDEDRECTD52*
21,1,0.04143,0.01673,0,0,90.0*
21,1,0.01870,0.03947,0,0,90.0*
1,1,0.02273,0.00837,0.00935*
1,1,0.02273,0.00837,-0.00935*
1,1,0.02273,-0.00837,-0.00935*
1,1,0.02273,-0.00837,0.00935*
%
%ADD52ROUNDEDRECTD52*%
G04:AMPARAMS|DCode=53|XSize=37.5mil|YSize=37.5mil|CornerRadius=10.87mil|HoleSize=0mil|Usage=FLASHONLY|Rotation=90.000|XOffset=0mil|YOffset=0mil|HoleType=Round|Shape=RoundedRectangle|*
%AMROUNDEDRECTD53*
21,1,0.03750,0.01575,0,0,90.0*
21,1,0.01575,0.03750,0,0,90.0*
1,1,0.02175,0.00787,0.00787*
1,1,0.02175,0.00787,-0.00787*
1,1,0.02175,-0.00787,-0.00787*
1,1,0.02175,-0.00787,0.00787*
%
%ADD53ROUNDEDRECTD53*%
G04:AMPARAMS|DCode=54|XSize=23.72mil|YSize=23.72mil|CornerRadius=7.43mil|HoleSize=0mil|Usage=FLASHONLY|Rotation=0.000|XOffset=0mil|YOffset=0mil|HoleType=Round|Shape=RoundedRectangle|*
%AMROUNDEDRECTD54*
21,1,0.02372,0.00886,0,0,0.0*
21,1,0.00886,0.02372,0,0,0.0*
1,1,0.01486,0.00443,-0.00443*
1,1,0.01486,-0.00443,-0.00443*
1,1,0.01486,-0.00443,0.00443*
1,1,0.01486,0.00443,0.00443*
%
%ADD54ROUNDEDRECTD54*%
G04:AMPARAMS|DCode=55|XSize=45.37mil|YSize=63.09mil|CornerRadius=12.84mil|HoleSize=0mil|Usage=FLASHONLY|Rotation=90.000|XOffset=0mil|YOffset=0mil|HoleType=Round|Shape=RoundedRectangle|*
%AMROUNDEDRECTD55*
21,1,0.04537,0.03740,0,0,90.0*
21,1,0.01968,0.06309,0,0,90.0*
1,1,0.02568,0.01870,0.00984*
1,1,0.02568,0.01870,-0.00984*
1,1,0.02568,-0.01870,-0.00984*
1,1,0.02568,-0.01870,0.00984*
%
%ADD55ROUNDEDRECTD55*%
%ADD56O,0.04300X0.01542*%
%ADD57O,0.01542X0.04300*%
%ADD58R,0.20600X0.20600*%
G04:AMPARAMS|DCode=59|XSize=25.68mil|YSize=45.37mil|CornerRadius=7.92mil|HoleSize=0mil|Usage=FLASHONLY|Rotation=0.000|XOffset=0mil|YOffset=0mil|HoleType=Round|Shape=RoundedRectangle|*
%AMROUNDEDRECTD59*
21,1,0.02568,0.02953,0,0,0.0*
21,1,0.00984,0.04537,0,0,0.0*
1,1,0.01584,0.00492,-0.01476*
1,1,0.01584,-0.00492,-0.01476*
1,1,0.01584,-0.00492,0.01476*
1,1,0.01584,0.00492,0.01476*
%
%ADD59ROUNDEDRECTD59*%
G04:AMPARAMS|DCode=60|XSize=23.72mil|YSize=23.72mil|CornerRadius=7.43mil|HoleSize=0mil|Usage=FLASHONLY|Rotation=90.000|XOffset=0mil|YOffset=0mil|HoleType=Round|Shape=RoundedRectangle|*
%AMROUNDEDRECTD60*
21,1,0.02372,0.00886,0,0,90.0*
21,1,0.00886,0.02372,0,0,90.0*
1,1,0.01486,0.00443,0.00443*
1,1,0.01486,0.00443,-0.00443*
1,1,0.01486,-0.00443,-0.00443*
1,1,0.01486,-0.00443,0.00443*
%
%ADD60ROUNDEDRECTD60*%
%ADD61O,0.01535X0.03504*%
%ADD62O,0.03504X0.01535*%
%ADD63R,0.22992X0.15118*%
G04:AMPARAMS|DCode=64|XSize=21.75mil|YSize=39.47mil|CornerRadius=6.94mil|HoleSize=0mil|Usage=FLASHONLY|Rotation=90.000|XOffset=0mil|YOffset=0mil|HoleType=Round|Shape=RoundedRectangle|*
%AMROUNDEDRECTD64*
21,1,0.02175,0.02559,0,0,90.0*
21,1,0.00787,0.03947,0,0,90.0*
1,1,0.01387,0.01280,0.00394*
1,1,0.01387,0.01280,-0.00394*
1,1,0.01387,-0.01280,-0.00394*
1,1,0.01387,-0.01280,0.00394*
%
%ADD64ROUNDEDRECTD64*%
G04:AMPARAMS|DCode=65|XSize=113.09mil|YSize=56.79mil|CornerRadius=15.7mil|HoleSize=0mil|Usage=FLASHONLY|Rotation=270.000|XOffset=0mil|YOffset=0mil|HoleType=Round|Shape=RoundedRectangle|*
%AMROUNDEDRECTD65*
21,1,0.11309,0.02539,0,0,270.0*
21,1,0.08169,0.05679,0,0,270.0*
1,1,0.03139,-0.01270,-0.04085*
1,1,0.03139,-0.01270,0.04085*
1,1,0.03139,0.01270,0.04085*
1,1,0.03139,0.01270,-0.04085*
%
%ADD65ROUNDEDRECTD65*%
G04:AMPARAMS|DCode=66|XSize=82.77mil|YSize=49.31mil|CornerRadius=13.83mil|HoleSize=0mil|Usage=FLASHONLY|Rotation=90.000|XOffset=0mil|YOffset=0mil|HoleType=Round|Shape=RoundedRectangle|*
%AMROUNDEDRECTD66*
21,1,0.08277,0.02165,0,0,90.0*
21,1,0.05512,0.04931,0,0,90.0*
1,1,0.02765,0.01083,0.02756*
1,1,0.02765,0.01083,-0.02756*
1,1,0.02765,-0.01083,-0.02756*
1,1,0.02765,-0.01083,0.02756*
%
%ADD66ROUNDEDRECTD66*%
G04:AMPARAMS|DCode=67|XSize=27.65mil|YSize=43.4mil|CornerRadius=8.41mil|HoleSize=0mil|Usage=FLASHONLY|Rotation=270.000|XOffset=0mil|YOffset=0mil|HoleType=Round|Shape=RoundedRectangle|*
%AMROUNDEDRECTD67*
21,1,0.02765,0.02657,0,0,270.0*
21,1,0.01083,0.04340,0,0,270.0*
1,1,0.01683,-0.01329,-0.00541*
1,1,0.01683,-0.01329,0.00541*
1,1,0.01683,0.01329,0.00541*
1,1,0.01683,0.01329,-0.00541*
%
%ADD67ROUNDEDRECTD67*%
G04:AMPARAMS|DCode=68|XSize=31.59mil|YSize=53.24mil|CornerRadius=9.4mil|HoleSize=0mil|Usage=FLASHONLY|Rotation=225.000|XOffset=0mil|YOffset=0mil|HoleType=Round|Shape=RoundedRectangle|*
%AMROUNDEDRECTD68*
21,1,0.03159,0.03445,0,0,225.0*
21,1,0.01280,0.05324,0,0,225.0*
1,1,0.01880,-0.01670,0.00766*
1,1,0.01880,-0.00766,0.01670*
1,1,0.01880,0.01670,-0.00766*
1,1,0.01880,0.00766,-0.01670*
%
%ADD68ROUNDEDRECTD68*%
G04:AMPARAMS|DCode=69|XSize=163.48mil|YSize=124.11mil|CornerRadius=32.53mil|HoleSize=0mil|Usage=FLASHONLY|Rotation=244.000|XOffset=0mil|YOffset=0mil|HoleType=Round|Shape=RoundedRectangle|*
%AMROUNDEDRECTD69*
21,1,0.16348,0.05906,0,0,244.0*
21,1,0.09843,0.12411,0,0,244.0*
1,1,0.06506,-0.04811,-0.03129*
1,1,0.06506,-0.00497,0.05718*
1,1,0.06506,0.04811,0.03129*
1,1,0.06506,0.00497,-0.05718*
%
%ADD69ROUNDEDRECTD69*%
G04:AMPARAMS|DCode=70|XSize=163.48mil|YSize=124.11mil|CornerRadius=32.53mil|HoleSize=0mil|Usage=FLASHONLY|Rotation=257.000|XOffset=0mil|YOffset=0mil|HoleType=Round|Shape=RoundedRectangle|*
%AMROUNDEDRECTD70*
21,1,0.16348,0.05906,0,0,257.0*
21,1,0.09843,0.12411,0,0,257.0*
1,1,0.06506,-0.03984,-0.04131*
1,1,0.06506,-0.01770,0.05459*
1,1,0.06506,0.03984,0.04131*
1,1,0.06506,0.01770,-0.05459*
%
%ADD70ROUNDEDRECTD70*%
G04:AMPARAMS|DCode=71|XSize=163.48mil|YSize=124.11mil|CornerRadius=32.53mil|HoleSize=0mil|Usage=FLASHONLY|Rotation=270.000|XOffset=0mil|YOffset=0mil|HoleType=Round|Shape=RoundedRectangle|*
%AMROUNDEDRECTD71*
21,1,0.16348,0.05906,0,0,270.0*
21,1,0.09843,0.12411,0,0,270.0*
1,1,0.06506,-0.02953,-0.04921*
1,1,0.06506,-0.02953,0.04921*
1,1,0.06506,0.02953,0.04921*
1,1,0.06506,0.02953,-0.04921*
%
%ADD71ROUNDEDRECTD71*%
G04:AMPARAMS|DCode=72|XSize=163.48mil|YSize=124.11mil|CornerRadius=32.53mil|HoleSize=0mil|Usage=FLASHONLY|Rotation=283.000|XOffset=0mil|YOffset=0mil|HoleType=Round|Shape=RoundedRectangle|*
%AMROUNDEDRECTD72*
21,1,0.16348,0.05906,0,0,283.0*
21,1,0.09843,0.12411,0,0,283.0*
1,1,0.06506,-0.01770,-0.05459*
1,1,0.06506,-0.03984,0.04131*
1,1,0.06506,0.01770,0.05459*
1,1,0.06506,0.03984,-0.04131*
%
%ADD72ROUNDEDRECTD72*%
G04:AMPARAMS|DCode=73|XSize=163.48mil|YSize=124.11mil|CornerRadius=32.53mil|HoleSize=0mil|Usage=FLASHONLY|Rotation=296.000|XOffset=0mil|YOffset=0mil|HoleType=Round|Shape=RoundedRectangle|*
%AMROUNDEDRECTD73*
21,1,0.16348,0.05906,0,0,296.0*
21,1,0.09843,0.12411,0,0,296.0*
1,1,0.06506,-0.00497,-0.05718*
1,1,0.06506,-0.04811,0.03129*
1,1,0.06506,0.00497,0.05718*
1,1,0.06506,0.04811,-0.03129*
%
%ADD73ROUNDEDRECTD73*%
G04:AMPARAMS|DCode=74|XSize=68.99mil|YSize=145.76mil|CornerRadius=18.75mil|HoleSize=0mil|Usage=FLASHONLY|Rotation=341.000|XOffset=0mil|YOffset=0mil|HoleType=Round|Shape=RoundedRectangle|*
%AMROUNDEDRECTD74*
21,1,0.06899,0.10827,0,0,341.0*
21,1,0.03150,0.14576,0,0,341.0*
1,1,0.03750,-0.00273,-0.05631*
1,1,0.03750,-0.03251,-0.04606*
1,1,0.03750,0.00273,0.05631*
1,1,0.03750,0.03251,0.04606*
%
%ADD74ROUNDEDRECTD74*%
G04:AMPARAMS|DCode=75|XSize=68.99mil|YSize=145.76mil|CornerRadius=18.75mil|HoleSize=0mil|Usage=FLASHONLY|Rotation=19.000|XOffset=0mil|YOffset=0mil|HoleType=Round|Shape=RoundedRectangle|*
%AMROUNDEDRECTD75*
21,1,0.06899,0.10827,0,0,19.0*
21,1,0.03150,0.14576,0,0,19.0*
1,1,0.03750,0.03251,-0.04606*
1,1,0.03750,0.00273,-0.05631*
1,1,0.03750,-0.03251,0.04606*
1,1,0.03750,-0.00273,0.05631*
%
%ADD75ROUNDEDRECTD75*%
G04:AMPARAMS|DCode=76|XSize=49.31mil|YSize=108.36mil|CornerRadius=24.65mil|HoleSize=0mil|Usage=FLASHONLY|Rotation=90.000|XOffset=0mil|YOffset=0mil|HoleType=Round|Shape=RoundedRectangle|*
%AMROUNDEDRECTD76*
21,1,0.04931,0.05906,0,0,90.0*
21,1,0.00000,0.10836,0,0,90.0*
1,1,0.04931,0.02953,0.00000*
1,1,0.04931,0.02953,0.00000*
1,1,0.04931,-0.02953,0.00000*
1,1,0.04931,-0.02953,0.00000*
%
%ADD76ROUNDEDRECTD76*%
G04:AMPARAMS|DCode=77|XSize=49.31mil|YSize=88.68mil|CornerRadius=24.65mil|HoleSize=0mil|Usage=FLASHONLY|Rotation=90.000|XOffset=0mil|YOffset=0mil|HoleType=Round|Shape=RoundedRectangle|*
%AMROUNDEDRECTD77*
21,1,0.04931,0.03937,0,0,90.0*
21,1,0.00000,0.08868,0,0,90.0*
1,1,0.04931,0.01968,0.00000*
1,1,0.04931,0.01968,0.00000*
1,1,0.04931,-0.01968,0.00000*
1,1,0.04931,-0.01968,0.00000*
%
%ADD77ROUNDEDRECTD77*%
%ADD78C,0.05521*%
%ADD79C,0.18100*%
%ADD80C,0.01800*%
D23*
X26500Y-30248D02*
D03*
Y-23752D02*
D03*
D32*
X-26425Y14500D02*
D03*
X-29575D02*
D03*
D33*
X-36000Y42917D02*
D03*
Y32083D02*
D03*
D34*
X-5693Y21000D02*
D03*
X-17307D02*
D03*
D47*
X64776Y12205D02*
D03*
Y-12205D02*
D03*
D48*
Y-8858D02*
D03*
Y-6890D02*
D03*
Y-4921D02*
D03*
Y-2953D02*
D03*
Y-984D02*
D03*
Y984D02*
D03*
Y2953D02*
D03*
Y4921D02*
D03*
Y6890D02*
D03*
Y8858D02*
D03*
X59658Y11811D02*
D03*
Y9843D02*
D03*
Y7874D02*
D03*
Y5906D02*
D03*
Y3937D02*
D03*
Y1969D02*
D03*
Y-1969D02*
D03*
Y-3937D02*
D03*
Y-5906D02*
D03*
Y-7874D02*
D03*
Y-9843D02*
D03*
Y-11811D02*
D03*
D49*
X32000Y24059D02*
D03*
Y18941D02*
D03*
X-32500Y26059D02*
D03*
Y20941D02*
D03*
X-30000Y-16441D02*
D03*
Y-21559D02*
D03*
D50*
X13500Y465D02*
D03*
Y3535D02*
D03*
X52000Y13035D02*
D03*
Y9965D02*
D03*
X12500Y14965D02*
D03*
Y18035D02*
D03*
X500Y14965D02*
D03*
Y18035D02*
D03*
X-2000Y4535D02*
D03*
Y1465D02*
D03*
X38500Y43465D02*
D03*
Y46535D02*
D03*
D51*
X28965Y-19000D02*
D03*
X32035D02*
D03*
X-2035Y8000D02*
D03*
X1035D02*
D03*
X-5465Y15000D02*
D03*
X-8535D02*
D03*
X-36465Y13500D02*
D03*
X-39535D02*
D03*
X-36465Y17000D02*
D03*
X-39535D02*
D03*
X-3035Y-1500D02*
D03*
X35D02*
D03*
D52*
X9559Y5500D02*
D03*
X4441D02*
D03*
D53*
X52500Y-27248D02*
D03*
Y-20752D02*
D03*
D54*
Y-13425D02*
D03*
Y-16575D02*
D03*
X-37500Y-19575D02*
D03*
Y-16425D02*
D03*
X-13500Y-23075D02*
D03*
Y-19925D02*
D03*
X55500Y14075D02*
D03*
Y10925D02*
D03*
X56000Y-8925D02*
D03*
Y-12075D02*
D03*
X-24500Y-23075D02*
D03*
Y-19925D02*
D03*
X-19500Y-23075D02*
D03*
Y-19925D02*
D03*
X-34000Y-16425D02*
D03*
Y-19575D02*
D03*
Y-22425D02*
D03*
Y-25575D02*
D03*
X22000Y-23500D02*
D03*
Y-20350D02*
D03*
X62500Y28425D02*
D03*
Y31575D02*
D03*
X35000Y44075D02*
D03*
Y40925D02*
D03*
X62000Y44075D02*
D03*
Y40925D02*
D03*
D55*
X10138Y80847D02*
D03*
Y74154D02*
D03*
X-10138Y80847D02*
D03*
Y74154D02*
D03*
D56*
X18856Y6890D02*
D03*
Y2953D02*
D03*
Y984D02*
D03*
Y-984D02*
D03*
Y-2953D02*
D03*
Y-4921D02*
D03*
Y-6890D02*
D03*
Y-8858D02*
D03*
Y-10827D02*
D03*
X46144D02*
D03*
Y-8858D02*
D03*
Y-6890D02*
D03*
Y-4921D02*
D03*
Y-2953D02*
D03*
Y-984D02*
D03*
Y984D02*
D03*
Y2953D02*
D03*
Y4921D02*
D03*
Y6890D02*
D03*
Y8858D02*
D03*
Y10827D02*
D03*
X18856Y8858D02*
D03*
Y4921D02*
D03*
Y10827D02*
D03*
D57*
X21673Y-13644D02*
D03*
X23642D02*
D03*
X25610D02*
D03*
X27579D02*
D03*
X29547D02*
D03*
X31516D02*
D03*
X33484D02*
D03*
X35453D02*
D03*
X37421D02*
D03*
X39390D02*
D03*
X41358D02*
D03*
X43327D02*
D03*
Y13644D02*
D03*
X41358D02*
D03*
X39390D02*
D03*
X37421D02*
D03*
X35453D02*
D03*
X33484D02*
D03*
X31516D02*
D03*
X29547D02*
D03*
X27579D02*
D03*
X25610D02*
D03*
X23642D02*
D03*
X21673D02*
D03*
D58*
X32500Y0D02*
D03*
D59*
X4335Y15000D02*
D03*
X8665D02*
D03*
D60*
X50925Y3000D02*
D03*
X54075D02*
D03*
X50925Y6500D02*
D03*
X54075D02*
D03*
X-8575Y11500D02*
D03*
X-5425D02*
D03*
X-8575Y8000D02*
D03*
X-5425D02*
D03*
X-8575Y4500D02*
D03*
X-5425D02*
D03*
X-35425Y-30000D02*
D03*
X-38575D02*
D03*
X65575Y22000D02*
D03*
X62425D02*
D03*
X62075Y47500D02*
D03*
X58925D02*
D03*
D61*
X-17173Y9449D02*
D03*
X-19142D02*
D03*
X-21110D02*
D03*
X-23079D02*
D03*
X-25047D02*
D03*
X-27016D02*
D03*
X-28984D02*
D03*
X-30953D02*
D03*
X-32921D02*
D03*
X-34890D02*
D03*
X-36858D02*
D03*
X-38827D02*
D03*
Y-9449D02*
D03*
X-36858D02*
D03*
X-34890D02*
D03*
X-32921D02*
D03*
X-30953D02*
D03*
X-28984D02*
D03*
X-27016D02*
D03*
X-25047D02*
D03*
X-23079D02*
D03*
X-21110D02*
D03*
X-19142D02*
D03*
X-17173D02*
D03*
D62*
X-41386Y6890D02*
D03*
Y4921D02*
D03*
Y2953D02*
D03*
Y984D02*
D03*
Y-984D02*
D03*
Y-2953D02*
D03*
Y-4921D02*
D03*
Y-6890D02*
D03*
X-14614D02*
D03*
Y-4921D02*
D03*
Y-2953D02*
D03*
Y-984D02*
D03*
Y984D02*
D03*
Y2953D02*
D03*
Y4921D02*
D03*
Y6890D02*
D03*
D63*
X-28000Y0D02*
D03*
D64*
X-31134Y-29941D02*
D03*
Y-35059D02*
D03*
X-22866Y-32500D02*
D03*
D65*
X-26032Y32000D02*
D03*
X-14968D02*
D03*
D66*
X40035Y33500D02*
D03*
X56965D02*
D03*
D67*
X53815Y43760D02*
D03*
Y47500D02*
D03*
Y51240D02*
D03*
X43185D02*
D03*
Y43760D02*
D03*
D68*
X26461Y49249D02*
D03*
X29106Y51894D02*
D03*
X31751Y54539D02*
D03*
X23539Y62751D02*
D03*
X18249Y57462D02*
D03*
D69*
X-74600Y36385D02*
D03*
D70*
X-80873Y18671D02*
D03*
D71*
X-83000Y0D02*
D03*
D72*
X-80873Y-18671D02*
D03*
D73*
X-74600Y-36385D02*
D03*
D74*
X-54216Y29910D02*
D03*
X-61137Y9809D02*
D03*
D75*
Y-9809D02*
D03*
X-54216Y-29910D02*
D03*
D76*
X82374Y17008D02*
D03*
Y-17008D02*
D03*
D77*
X61272Y17008D02*
D03*
Y-17008D02*
D03*
D78*
X-24000Y64000D02*
D03*
X-14000D02*
D03*
X-4000D02*
D03*
X6000D02*
D03*
D79*
X0Y-37402D02*
D03*
Y37402D02*
D03*
D80*
X-76326Y32846D02*
D03*
X-72874Y39923D02*
D03*
X-74600Y36385D02*
D03*
X-79864Y34572D02*
D03*
X-76413Y41649D02*
D03*
X-78139Y38111D02*
D03*
X-72787Y31120D02*
D03*
X-69336Y38197D02*
D03*
X-71061Y34659D02*
D03*
X-81758Y14835D02*
D03*
X-79987Y22507D02*
D03*
X-80873Y18671D02*
D03*
X-85594Y15721D02*
D03*
X-83823Y23393D02*
D03*
X-84709Y19557D02*
D03*
X-77922Y13949D02*
D03*
X-76151Y21621D02*
D03*
X-77037Y17785D02*
D03*
X-83000Y-3937D02*
D03*
Y3937D02*
D03*
Y0D02*
D03*
X-86937Y-3937D02*
D03*
Y3937D02*
D03*
Y0D02*
D03*
X-79063Y-3937D02*
D03*
Y3937D02*
D03*
Y0D02*
D03*
X-79987Y-22507D02*
D03*
X-81758Y-14835D02*
D03*
X-80873Y-18671D02*
D03*
X-83823Y-23393D02*
D03*
X-85594Y-15721D02*
D03*
X-84709Y-19557D02*
D03*
X-76151Y-21621D02*
D03*
X-77922Y-13949D02*
D03*
X-77037Y-17785D02*
D03*
X-72874Y-39923D02*
D03*
X-76326Y-32846D02*
D03*
X-74600Y-36385D02*
D03*
X-76413Y-41649D02*
D03*
X-79864Y-34572D02*
D03*
X-78139Y-38111D02*
D03*
X-69336Y-38197D02*
D03*
X-72787Y-31120D02*
D03*
X-71061Y-34659D02*
D03*
M02*
