M48
;Layer_Color=9474304
;FILE_FORMAT=2:5
INCH,LZ
;TYPE=PLATED
T1F00S00C0.00787
T2F00S00C0.01200
T3F00S00C0.01968
T5F00S00C0.11811
%
T01
X-00415Y-00295
X-00405Y-002
Y-00165
X-004Y-0013
X-0038236Y-0002461
Y0002461
X-0033315
Y0006299
X-0028
Y0002461
Y-0002461
Y-0006299
X-0022685
Y-0002461
Y0002461
Y0006299
X-0017764Y0002461
Y-0002461
X-0007Y-0002
X-0007395Y0001047
X-000376Y0001928
X00005Y00045
Y0012
X-0002Y00105
X-0003Y0015
X-00075Y00185
X-00145Y00145
X-00065Y-0005
Y-001
X-0001Y-00095
X00035Y-00065
X0005Y-0004
X0005866Y-0001366
X00035Y-0018
X00075Y-0019
X0025Y-002
X0034883Y-001904
X00375Y-0021
X004Y-0023
X00425Y-0025
X00495Y-003
X005Y-0011
Y-00045
X0052456Y-0002718
X0053Y0
X0057Y-0001
Y-0006
X0056469Y0004454
X00565Y0008428
X0055Y00165
X0062Y0013
X0068Y00035
Y00005
X0062Y-0013
X00405Y-0008
Y0008
X0041Y0017
X00325Y0
X00245Y-00035
Y-0008
X0024543Y0007957
X0016Y0014
X0023Y-00305
X-00105Y-0023
X-0017Y-00135
X-0022Y-00175
X-00275Y-00185
X-00265Y-0015
X-003Y-0025
X-00345Y-0035
X-0033315Y-0006299
Y-0002461
X00065Y002
X0011Y00315
X0013Y00345
X0031Y00425
X00295Y00465
X0034Y00525
X00415Y00475
X00505
X00575Y00435
X00385Y00405
X00355Y0026
X0028Y0022
X0043Y00195
X00495Y0021
X00625Y0026
X0068Y0022
X002Y00655
X00155Y0061
X0015Y0074
Y00805
T02
X-0076413Y-0041649
X-0072874Y-0039923
X-00746Y-0036385
X-0076326Y-0032846
X-0079864Y-0034572
X-0078139Y-0038111
X-0069336Y-0038197
X-0071061Y-0034659
X-0072787Y-003112
X-0065Y-0028
X-0063Y-0033
X-0061Y-00385
X-00465Y-00315
X-00475Y-00275
X-00485Y-00235
X-00475Y-0019
X-0051Y-00165
X-0053Y-00205
X-0045Y-00095
Y-0006
Y-0002
Y0002
Y0006
Y00095
Y0013
Y00165
X-00485Y0016
X-00515Y00175
X-0077037Y0017785
X-0080873Y0018671
X-0077922Y0013949
X-0079063Y0003937
Y0
Y-0003937
X-0077922Y-0013949
X-0077037Y-0017785
X-0080873Y-0018671
X-0079987Y-0022507
X-0076151Y-0021621
X-0083823Y-0023393
X-0084709Y-0019557
X-0085594Y-0015721
X-0081758Y-0014835
X-0083Y-0003937
Y0
Y0003937
X-0086937
Y0
Y-0003937
X-0085594Y0015721
X-0081758Y0014835
X-0084709Y0019557
X-0083823Y0023393
X-0079987Y0022507
X-0076151Y0021621
X-0076326Y0032846
X-00746Y0036385
X-0072874Y0039923
X-0076413Y0041649
X-0078139Y0038111
X-0079864Y0034572
X-0071061Y0034659
X-0072787Y003112
X-0064Y00315
X-0062Y00355
X-00605Y004
X-00505Y00395
X-00465Y0036
X-0046Y00305
X-00475Y00265
X-00375Y0025
Y00215
Y00285
X-0036Y0032083
Y0042917
X-00185Y0038
X-0012
X-0069336Y0038197
X-00655Y0027
X0055Y00255
X0059
T03
X-0024Y0064
X-0014
X-0004
X0006
T05
X0Y-0037402
Y0037402
M30
