G04*
G04 #@! TF.GenerationSoftware,Altium Limited,Altium Designer,21.5.1 (32)*
G04*
G04 Layer_Color=65535*
%FSLAX25Y25*%
%MOIN*%
G70*
G04*
G04 #@! TF.SameCoordinates,9F226A22-D70E-441E-867E-09538FDFB880*
G04*
G04*
G04 #@! TF.FilePolarity,Positive*
G04*
G01*
G75*
%ADD10C,0.00984*%
%ADD11C,0.00394*%
%ADD12C,0.00787*%
%ADD13C,0.00800*%
%ADD14C,0.01000*%
D10*
X55661Y-11890D02*
G03*
X55661Y-11890I-492J0D01*
G01*
X52992Y-31087D02*
G03*
X52992Y-31087I-492J0D01*
G01*
X-14665Y74154D02*
G03*
X-14665Y74154I-492J0D01*
G01*
X14349Y10827D02*
G03*
X14349Y10827I-492J0D01*
G01*
X26992Y-33988D02*
G03*
X26992Y-33988I-492J0D01*
G01*
X-13433Y13287D02*
G03*
X-13433Y13287I-492J0D01*
G01*
X-30642Y-26988D02*
G03*
X-30642Y-26988I-492J0D01*
G01*
X54307Y40512D02*
G03*
X54307Y40512I-492J0D01*
G01*
X24518Y46813D02*
G03*
X24518Y46813I-492J0D01*
G01*
D11*
X38461Y38520D02*
G03*
X38461Y38520I-197J0D01*
G01*
D12*
X67020Y17992D02*
X75681D01*
X67020Y-17992D02*
X75681D01*
X49350Y-27347D02*
Y-20653D01*
X55650Y-27347D02*
Y-20653D01*
X-9449Y70413D02*
X9449D01*
Y84291D02*
Y84587D01*
Y70413D02*
Y70709D01*
X-9449Y84587D02*
X9449D01*
X-9449Y84291D02*
Y84587D01*
Y70413D02*
Y70709D01*
X45295Y-13779D02*
X46279D01*
Y-12795D01*
X45295Y13780D02*
X46279D01*
Y12795D02*
Y13780D01*
X18721Y-13779D02*
X19705D01*
X18721D02*
Y-12795D01*
Y13780D02*
X19705D01*
X18721Y12795D02*
Y13780D01*
X3350Y18445D02*
X9650D01*
X3350Y11555D02*
X9650D01*
X24728Y-27197D02*
Y-26803D01*
X28272Y-27197D02*
Y-26803D01*
X-15106Y10728D02*
X-13335D01*
Y8957D02*
Y10728D01*
Y-10728D02*
Y-8957D01*
X-15106Y-10728D02*
X-13335D01*
X-42665D02*
X-40894D01*
X-42665D02*
Y-8957D01*
Y10728D02*
X-40894D01*
X-42665Y8957D02*
Y10728D01*
X-39555Y35931D02*
Y39069D01*
X-32445Y35931D02*
Y39069D01*
X-13764Y17555D02*
X-9236D01*
X-13764Y24445D02*
X-9236D01*
X-28083Y-28563D02*
X-24539D01*
Y-30138D02*
Y-28563D01*
X-28083Y-36437D02*
X-24539D01*
Y-34862D01*
X-22075Y36961D02*
X-18925D01*
X-22075Y27039D02*
X-18925D01*
X46532Y41791D02*
X50468D01*
X46532Y53209D02*
X50468D01*
Y41791D02*
Y53209D01*
X46532Y41791D02*
Y53209D01*
X19293Y53077D02*
X22077Y50293D01*
X27923Y61707D02*
X30707Y58923D01*
X22077Y50293D02*
X30707Y58923D01*
X19293Y53077D02*
X27923Y61707D01*
X-49224Y31106D02*
X-45501Y29825D01*
X-42328Y23319D01*
X-67642Y32035D02*
X-61136Y35208D01*
X-57413Y33926D01*
X-49378Y2845D02*
X-42328Y23319D01*
X-57940Y5793D02*
X-49378Y2845D01*
X-74691Y11561D02*
X-66129Y8613D01*
X-74691Y11561D02*
X-67642Y32035D01*
X-57940Y-5793D02*
X-54217Y-4511D01*
X-47712Y-7684D01*
X-73025Y-16400D02*
X-69852Y-9895D01*
X-66129Y-8613D01*
X-47712Y-7684D02*
X-40662Y-28158D01*
X-49224Y-31106D02*
X-40662Y-28158D01*
X-65975Y-36874D02*
X-57413Y-33926D01*
X-73025Y-16400D02*
X-65975Y-36874D01*
D13*
X-26241Y-48944D02*
X-28241D01*
Y-50444D01*
X-27241D01*
X-28241D01*
Y-51943D01*
X-23742Y-48944D02*
X-24742D01*
X-25242Y-49444D01*
Y-51443D01*
X-24742Y-51943D01*
X-23742D01*
X-23243Y-51443D01*
Y-49444D01*
X-23742Y-48944D01*
X-20244Y-49444D02*
X-20743Y-48944D01*
X-21743D01*
X-22243Y-49444D01*
Y-51443D01*
X-21743Y-51943D01*
X-20743D01*
X-20244Y-51443D01*
X-16245Y-51943D02*
Y-48944D01*
X-15245Y-49944D01*
X-14245Y-48944D01*
Y-51943D01*
X-12746D02*
X-11746D01*
X-11246Y-51443D01*
Y-50444D01*
X-11746Y-49944D01*
X-12746D01*
X-13246Y-50444D01*
Y-51443D01*
X-12746Y-51943D01*
X-9747Y-49444D02*
Y-49944D01*
X-10247D01*
X-9247D01*
X-9747D01*
Y-51443D01*
X-9247Y-51943D01*
X-7248D02*
X-6248D01*
X-5748Y-51443D01*
Y-50444D01*
X-6248Y-49944D01*
X-7248D01*
X-7747Y-50444D01*
Y-51443D01*
X-7248Y-51943D01*
X-4749Y-49944D02*
Y-51943D01*
Y-50943D01*
X-4249Y-50444D01*
X-3749Y-49944D01*
X-3249D01*
X3249Y-49444D02*
X2749Y-48944D01*
X1749D01*
X1250Y-49444D01*
Y-51443D01*
X1749Y-51943D01*
X2749D01*
X3249Y-51443D01*
X4749Y-51943D02*
X5748D01*
X6248Y-51443D01*
Y-50444D01*
X5748Y-49944D01*
X4749D01*
X4249Y-50444D01*
Y-51443D01*
X4749Y-51943D01*
X7248D02*
Y-49944D01*
X8747D01*
X9247Y-50444D01*
Y-51943D01*
X10746Y-49444D02*
Y-49944D01*
X10247D01*
X11246D01*
X10746D01*
Y-51443D01*
X11246Y-51943D01*
X12746Y-49944D02*
Y-51943D01*
Y-50943D01*
X13246Y-50444D01*
X13746Y-49944D01*
X14245D01*
X16245Y-51943D02*
X17244D01*
X17744Y-51443D01*
Y-50444D01*
X17244Y-49944D01*
X16245D01*
X15745Y-50444D01*
Y-51443D01*
X16245Y-51943D01*
X18744D02*
X19744D01*
X19244D01*
Y-48944D01*
X18744D01*
X21243Y-51943D02*
X22243D01*
X21743D01*
Y-48944D01*
X21243D01*
X25242Y-51943D02*
X24242D01*
X23742Y-51443D01*
Y-50444D01*
X24242Y-49944D01*
X25242D01*
X25742Y-50444D01*
Y-50943D01*
X23742D01*
X26741Y-49944D02*
Y-51943D01*
Y-50943D01*
X27241Y-50444D01*
X27741Y-49944D01*
X28241D01*
X-11246Y-54463D02*
X-13246D01*
Y-55963D01*
X-12246D01*
X-13246D01*
Y-57462D01*
X-8747D02*
X-9747D01*
X-10247Y-56962D01*
Y-55963D01*
X-9747Y-55463D01*
X-8747D01*
X-8247Y-55963D01*
Y-56462D01*
X-10247D01*
X-6748Y-55463D02*
X-5748D01*
X-5248Y-55963D01*
Y-57462D01*
X-6748D01*
X-7248Y-56962D01*
X-6748Y-56462D01*
X-5248D01*
X-3749Y-54963D02*
Y-55463D01*
X-4249D01*
X-3249D01*
X-3749D01*
Y-56962D01*
X-3249Y-57462D01*
X-1749Y-55463D02*
Y-56962D01*
X-1250Y-57462D01*
X250D01*
Y-55463D01*
X1250D02*
Y-57462D01*
Y-56462D01*
X1749Y-55963D01*
X2249Y-55463D01*
X2749D01*
X4249Y-57462D02*
X5248D01*
X4749D01*
Y-55463D01*
X4249D01*
X6748Y-57462D02*
Y-55463D01*
X8247D01*
X8747Y-55963D01*
Y-57462D01*
X10746Y-58462D02*
X11246D01*
X11746Y-57962D01*
Y-55463D01*
X10247D01*
X9747Y-55963D01*
Y-56962D01*
X10247Y-57462D01*
X11746D01*
X12746Y-55463D02*
X13246D01*
Y-55963D01*
X12746D01*
Y-55463D01*
Y-56962D02*
X13246D01*
Y-57462D01*
X12746D01*
Y-56962D01*
X-12746Y-62481D02*
X-10746D01*
X-6748Y-60982D02*
Y-63981D01*
X-5248D01*
X-4749Y-63481D01*
Y-61481D01*
X-5248Y-60982D01*
X-6748D01*
X-3749Y-63981D02*
Y-60982D01*
X-2249D01*
X-1749Y-61481D01*
Y-62481D01*
X-2249Y-62981D01*
X-3749D01*
X-2749D02*
X-1749Y-63981D01*
X-750Y-60982D02*
Y-62981D01*
X250Y-63981D01*
X1250Y-62981D01*
Y-60982D01*
X2249Y-61481D02*
X2749Y-60982D01*
X3749D01*
X4249Y-61481D01*
Y-61981D01*
X3749Y-62481D01*
X4249Y-62981D01*
Y-63481D01*
X3749Y-63981D01*
X2749D01*
X2249Y-63481D01*
Y-62981D01*
X2749Y-62481D01*
X2249Y-61981D01*
Y-61481D01*
X2749Y-62481D02*
X3749D01*
X5248Y-61481D02*
X5748Y-60982D01*
X6748D01*
X7248Y-61481D01*
Y-61981D01*
X6748Y-62481D01*
X6248D01*
X6748D01*
X7248Y-62981D01*
Y-63481D01*
X6748Y-63981D01*
X5748D01*
X5248Y-63481D01*
X8247Y-63981D02*
X9247D01*
X8747D01*
Y-60982D01*
X8247Y-61481D01*
X12746Y-60982D02*
X11746Y-61481D01*
X10746Y-62481D01*
Y-63481D01*
X11246Y-63981D01*
X12246D01*
X12746Y-63481D01*
Y-62981D01*
X12246Y-62481D01*
X10746D01*
X-10996Y-68000D02*
X-8997D01*
X-2999Y-67000D02*
X-3499Y-66500D01*
X-4499D01*
X-4998Y-67000D01*
Y-67500D01*
X-4499Y-68000D01*
X-3499D01*
X-2999Y-68500D01*
Y-68999D01*
X-3499Y-69499D01*
X-4499D01*
X-4998Y-68999D01*
X-1999Y-69499D02*
Y-67500D01*
X-1000Y-66500D01*
X0Y-67500D01*
Y-69499D01*
Y-68000D01*
X-1999D01*
X1000Y-69499D02*
Y-66500D01*
X1999Y-67500D01*
X2999Y-66500D01*
Y-69499D01*
X3999Y-66500D02*
Y-69499D01*
X5498D01*
X5998Y-68999D01*
Y-67000D01*
X5498Y-66500D01*
X3999D01*
X8997Y-69499D02*
X6998D01*
X8997Y-67500D01*
Y-67000D01*
X8497Y-66500D01*
X7498D01*
X6998Y-67000D01*
X9997Y-69499D02*
X10996D01*
X10497D01*
Y-66500D01*
X9997Y-67000D01*
X-23992Y-78038D02*
X-23492Y-77538D01*
X-22493D01*
X-21993Y-78038D01*
Y-78538D01*
X-22493Y-79037D01*
X-22993D01*
X-22493D01*
X-21993Y-79537D01*
Y-80037D01*
X-22493Y-80537D01*
X-23492D01*
X-23992Y-80037D01*
X-20993Y-80537D02*
Y-78538D01*
X-19994Y-77538D01*
X-18994Y-78538D01*
Y-80537D01*
Y-79037D01*
X-20993D01*
X-12996Y-78038D02*
X-13496Y-77538D01*
X-14495D01*
X-14995Y-78038D01*
Y-80037D01*
X-14495Y-80537D01*
X-13496D01*
X-12996Y-80037D01*
X-11496Y-80537D02*
X-10497D01*
X-9997Y-80037D01*
Y-79037D01*
X-10497Y-78538D01*
X-11496D01*
X-11996Y-79037D01*
Y-80037D01*
X-11496Y-80537D01*
X-8997D02*
Y-78538D01*
X-7498D01*
X-6998Y-79037D01*
Y-80537D01*
X-5498Y-78038D02*
Y-78538D01*
X-5998D01*
X-4998D01*
X-5498D01*
Y-80037D01*
X-4998Y-80537D01*
X-3499D02*
Y-80037D01*
X-2999D01*
Y-80537D01*
X-3499D01*
X1999Y-78038D02*
X2499Y-77538D01*
X3499D01*
X3999Y-78038D01*
Y-78538D01*
X3499Y-79037D01*
X3999Y-79537D01*
Y-80037D01*
X3499Y-80537D01*
X2499D01*
X1999Y-80037D01*
Y-79537D01*
X2499Y-79037D01*
X1999Y-78538D01*
Y-78038D01*
X2499Y-79037D02*
X3499D01*
X4998Y-80537D02*
Y-78538D01*
X5998Y-77538D01*
X6998Y-78538D01*
Y-80537D01*
Y-79037D01*
X4998D01*
X10996Y-77538D02*
Y-80537D01*
X12496D01*
X12996Y-80037D01*
Y-79537D01*
X12496Y-79037D01*
X10996D01*
X12496D01*
X12996Y-78538D01*
Y-78038D01*
X12496Y-77538D01*
X10996D01*
X13995Y-78538D02*
Y-80037D01*
X14495Y-80537D01*
X15995D01*
Y-78538D01*
X16995D02*
Y-80537D01*
Y-79537D01*
X17494Y-79037D01*
X17994Y-78538D01*
X18494D01*
X19994Y-80537D02*
X21493D01*
X21993Y-80037D01*
X21493Y-79537D01*
X20493D01*
X19994Y-79037D01*
X20493Y-78538D01*
X21993D01*
X23492Y-78038D02*
Y-78538D01*
X22993D01*
X23992D01*
X23492D01*
Y-80037D01*
X23992Y-80537D01*
X-4998Y-83057D02*
X-6998D01*
Y-84556D01*
X-5998Y-84057D01*
X-5498D01*
X-4998Y-84556D01*
Y-85556D01*
X-5498Y-86056D01*
X-6498D01*
X-6998Y-85556D01*
X-3999Y-84556D02*
X-1999D01*
X500Y-86056D02*
Y-83057D01*
X-1000Y-84556D01*
X1000D01*
X1999Y-83557D02*
X2499Y-83057D01*
X3499D01*
X3999Y-83557D01*
Y-85556D01*
X3499Y-86056D01*
X2499D01*
X1999Y-85556D01*
Y-83557D01*
X4998Y-84057D02*
X5998Y-86056D01*
X6998Y-84057D01*
X18300Y76000D02*
Y79000D01*
X19800D01*
X20299Y78500D01*
Y77500D01*
X19800Y77000D01*
X18300D01*
X19300D02*
X20299Y76000D01*
X23298Y79000D02*
X21299D01*
Y76000D01*
X23298D01*
X21299Y77500D02*
X22299D01*
X26297Y78500D02*
X25798Y79000D01*
X24798D01*
X24298Y78500D01*
Y78000D01*
X24798Y77500D01*
X25798D01*
X26297Y77000D01*
Y76500D01*
X25798Y76000D01*
X24798D01*
X24298Y76500D01*
X29296Y79000D02*
X27297D01*
Y76000D01*
X29296D01*
X27297Y77500D02*
X28297D01*
X30296Y79000D02*
X32296D01*
X31296D01*
Y76000D01*
X35204Y-22501D02*
X33204D01*
Y-24000D01*
X34204D01*
X33204D01*
Y-25499D01*
X36204D02*
Y-23500D01*
X37203Y-22501D01*
X38203Y-23500D01*
Y-25499D01*
Y-24000D01*
X36204D01*
X39203Y-22501D02*
Y-25000D01*
X39702Y-25499D01*
X40702D01*
X41202Y-25000D01*
Y-22501D01*
X42202D02*
Y-25499D01*
X44201D01*
X45201Y-22501D02*
X47200D01*
X46200D01*
Y-25499D01*
X14703Y-25501D02*
Y-27500D01*
X15702Y-28499D01*
X16702Y-27500D01*
Y-25501D01*
X17702D02*
Y-28499D01*
X19201D01*
X19701Y-28000D01*
Y-26000D01*
X19201Y-25501D01*
X17702D01*
X20701D02*
Y-28499D01*
X22200D01*
X22700Y-28000D01*
Y-26000D01*
X22200Y-25501D01*
X20701D01*
X-27999Y60000D02*
Y58000D01*
X-26999Y57000D01*
X-25999Y58000D01*
Y60000D01*
X-25000D02*
Y57000D01*
X-23500D01*
X-23000Y57500D01*
Y59500D01*
X-23500Y60000D01*
X-25000D01*
X-22001D02*
Y57000D01*
X-20501D01*
X-20001Y57500D01*
Y59500D01*
X-20501Y60000D01*
X-22001D01*
X-16249D02*
X-15250D01*
X-15749D01*
Y57000D01*
X-16249D01*
X-15250D01*
X-12251Y60000D02*
X-13250D01*
X-13750Y59500D01*
Y57500D01*
X-13250Y57000D01*
X-12251D01*
X-11751Y57500D01*
Y59500D01*
X-12251Y60000D01*
X-5999Y59500D02*
X-6499Y60000D01*
X-7499D01*
X-7999Y59500D01*
Y57500D01*
X-7499Y57000D01*
X-6499D01*
X-5999Y57500D01*
X-5000Y60000D02*
Y57000D01*
X-3000D01*
X-2001Y60000D02*
Y57000D01*
Y58000D01*
X-1Y60000D01*
X-1501Y58500D01*
X-1Y57000D01*
X4001Y59500D02*
X3501Y60000D01*
X2501D01*
X2001Y59500D01*
Y57500D01*
X2501Y57000D01*
X3501D01*
X4001Y57500D01*
Y58500D01*
X3001D01*
X5000Y57000D02*
Y60000D01*
X7000Y57000D01*
Y60000D01*
X7999D02*
Y57000D01*
X9499D01*
X9999Y57500D01*
Y59500D01*
X9499Y60000D01*
X7999D01*
D14*
X-68324Y-47169D02*
X-65973Y-50404D01*
Y50404D02*
X-68324Y47169D01*
X-65531Y47611D02*
X-68766Y49961D01*
M02*
