G04*
G04 #@! TF.GenerationSoftware,Altium Limited,Altium Designer,21.5.1 (32)*
G04*
G04 Layer_Color=16711935*
%FSLAX25Y25*%
%MOIN*%
G70*
G04*
G04 #@! TF.SameCoordinates,9F226A22-D70E-441E-867E-09538FDFB880*
G04*
G04*
G04 #@! TF.FilePolarity,Negative*
G04*
G01*
G75*
G04:AMPARAMS|DCode=51|XSize=27.26mil|YSize=28.84mil|CornerRadius=8.32mil|HoleSize=0mil|Usage=FLASHONLY|Rotation=270.000|XOffset=0mil|YOffset=0mil|HoleType=Round|Shape=RoundedRectangle|*
%AMROUNDEDRECTD51*
21,1,0.02726,0.01221,0,0,270.0*
21,1,0.01063,0.02884,0,0,270.0*
1,1,0.01663,-0.00610,-0.00532*
1,1,0.01663,-0.00610,0.00532*
1,1,0.01663,0.00610,0.00532*
1,1,0.01663,0.00610,-0.00532*
%
%ADD51ROUNDEDRECTD51*%
G04:AMPARAMS|DCode=69|XSize=163.48mil|YSize=124.11mil|CornerRadius=32.53mil|HoleSize=0mil|Usage=FLASHONLY|Rotation=244.000|XOffset=0mil|YOffset=0mil|HoleType=Round|Shape=RoundedRectangle|*
%AMROUNDEDRECTD69*
21,1,0.16348,0.05906,0,0,244.0*
21,1,0.09843,0.12411,0,0,244.0*
1,1,0.06506,-0.04811,-0.03129*
1,1,0.06506,-0.00497,0.05718*
1,1,0.06506,0.04811,0.03129*
1,1,0.06506,0.00497,-0.05718*
%
%ADD69ROUNDEDRECTD69*%
G04:AMPARAMS|DCode=70|XSize=163.48mil|YSize=124.11mil|CornerRadius=32.53mil|HoleSize=0mil|Usage=FLASHONLY|Rotation=257.000|XOffset=0mil|YOffset=0mil|HoleType=Round|Shape=RoundedRectangle|*
%AMROUNDEDRECTD70*
21,1,0.16348,0.05906,0,0,257.0*
21,1,0.09843,0.12411,0,0,257.0*
1,1,0.06506,-0.03984,-0.04131*
1,1,0.06506,-0.01770,0.05459*
1,1,0.06506,0.03984,0.04131*
1,1,0.06506,0.01770,-0.05459*
%
%ADD70ROUNDEDRECTD70*%
G04:AMPARAMS|DCode=71|XSize=163.48mil|YSize=124.11mil|CornerRadius=32.53mil|HoleSize=0mil|Usage=FLASHONLY|Rotation=270.000|XOffset=0mil|YOffset=0mil|HoleType=Round|Shape=RoundedRectangle|*
%AMROUNDEDRECTD71*
21,1,0.16348,0.05906,0,0,270.0*
21,1,0.09843,0.12411,0,0,270.0*
1,1,0.06506,-0.02953,-0.04921*
1,1,0.06506,-0.02953,0.04921*
1,1,0.06506,0.02953,0.04921*
1,1,0.06506,0.02953,-0.04921*
%
%ADD71ROUNDEDRECTD71*%
G04:AMPARAMS|DCode=72|XSize=163.48mil|YSize=124.11mil|CornerRadius=32.53mil|HoleSize=0mil|Usage=FLASHONLY|Rotation=283.000|XOffset=0mil|YOffset=0mil|HoleType=Round|Shape=RoundedRectangle|*
%AMROUNDEDRECTD72*
21,1,0.16348,0.05906,0,0,283.0*
21,1,0.09843,0.12411,0,0,283.0*
1,1,0.06506,-0.01770,-0.05459*
1,1,0.06506,-0.03984,0.04131*
1,1,0.06506,0.01770,0.05459*
1,1,0.06506,0.03984,-0.04131*
%
%ADD72ROUNDEDRECTD72*%
G04:AMPARAMS|DCode=73|XSize=163.48mil|YSize=124.11mil|CornerRadius=32.53mil|HoleSize=0mil|Usage=FLASHONLY|Rotation=296.000|XOffset=0mil|YOffset=0mil|HoleType=Round|Shape=RoundedRectangle|*
%AMROUNDEDRECTD73*
21,1,0.16348,0.05906,0,0,296.0*
21,1,0.09843,0.12411,0,0,296.0*
1,1,0.06506,-0.00497,-0.05718*
1,1,0.06506,-0.04811,0.03129*
1,1,0.06506,0.00497,0.05718*
1,1,0.06506,0.04811,-0.03129*
%
%ADD73ROUNDEDRECTD73*%
G04:AMPARAMS|DCode=76|XSize=49.31mil|YSize=108.36mil|CornerRadius=24.65mil|HoleSize=0mil|Usage=FLASHONLY|Rotation=90.000|XOffset=0mil|YOffset=0mil|HoleType=Round|Shape=RoundedRectangle|*
%AMROUNDEDRECTD76*
21,1,0.04931,0.05906,0,0,90.0*
21,1,0.00000,0.10836,0,0,90.0*
1,1,0.04931,0.02953,0.00000*
1,1,0.04931,0.02953,0.00000*
1,1,0.04931,-0.02953,0.00000*
1,1,0.04931,-0.02953,0.00000*
%
%ADD76ROUNDEDRECTD76*%
G04:AMPARAMS|DCode=77|XSize=49.31mil|YSize=88.68mil|CornerRadius=24.65mil|HoleSize=0mil|Usage=FLASHONLY|Rotation=90.000|XOffset=0mil|YOffset=0mil|HoleType=Round|Shape=RoundedRectangle|*
%AMROUNDEDRECTD77*
21,1,0.04931,0.03937,0,0,90.0*
21,1,0.00000,0.08868,0,0,90.0*
1,1,0.04931,0.01968,0.00000*
1,1,0.04931,0.01968,0.00000*
1,1,0.04931,-0.01968,0.00000*
1,1,0.04931,-0.01968,0.00000*
%
%ADD77ROUNDEDRECTD77*%
%ADD78C,0.05521*%
%ADD79C,0.18100*%
%ADD80C,0.01800*%
%ADD97O,0.06112X0.02372*%
D51*
X-14965Y0D02*
D03*
X-18035D02*
D03*
D69*
X-74600Y36385D02*
D03*
D70*
X-80873Y18671D02*
D03*
D71*
X-83000Y0D02*
D03*
D72*
X-80873Y-18671D02*
D03*
D73*
X-74600Y-36385D02*
D03*
D76*
X82374Y17008D02*
D03*
Y-17008D02*
D03*
D77*
X61272Y17008D02*
D03*
Y-17008D02*
D03*
D78*
X-24000Y64000D02*
D03*
X-14000D02*
D03*
X-4000D02*
D03*
X6000D02*
D03*
D79*
X0Y-37402D02*
D03*
Y37402D02*
D03*
D80*
X-76326Y32846D02*
D03*
X-72874Y39923D02*
D03*
X-74600Y36385D02*
D03*
X-79864Y34572D02*
D03*
X-76413Y41649D02*
D03*
X-78139Y38111D02*
D03*
X-72787Y31120D02*
D03*
X-69336Y38197D02*
D03*
X-71061Y34659D02*
D03*
X-81758Y14835D02*
D03*
X-79987Y22507D02*
D03*
X-80873Y18671D02*
D03*
X-85594Y15721D02*
D03*
X-83823Y23393D02*
D03*
X-84709Y19557D02*
D03*
X-77922Y13949D02*
D03*
X-76151Y21621D02*
D03*
X-77037Y17785D02*
D03*
X-83000Y-3937D02*
D03*
Y3937D02*
D03*
Y0D02*
D03*
X-86937Y-3937D02*
D03*
Y3937D02*
D03*
Y0D02*
D03*
X-79063Y-3937D02*
D03*
Y3937D02*
D03*
Y0D02*
D03*
X-79987Y-22507D02*
D03*
X-81758Y-14835D02*
D03*
X-80873Y-18671D02*
D03*
X-83823Y-23393D02*
D03*
X-85594Y-15721D02*
D03*
X-84709Y-19557D02*
D03*
X-76151Y-21621D02*
D03*
X-77922Y-13949D02*
D03*
X-77037Y-17785D02*
D03*
X-72874Y-39923D02*
D03*
X-76326Y-32846D02*
D03*
X-74600Y-36385D02*
D03*
X-76413Y-41649D02*
D03*
X-79864Y-34572D02*
D03*
X-78139Y-38111D02*
D03*
X-69336Y-38197D02*
D03*
X-72787Y-31120D02*
D03*
X-71061Y-34659D02*
D03*
D97*
X11614Y7677D02*
D03*
Y5118D02*
D03*
Y2559D02*
D03*
Y0D02*
D03*
Y-2559D02*
D03*
Y-5118D02*
D03*
Y-7677D02*
D03*
X-11614Y7677D02*
D03*
Y5118D02*
D03*
Y2559D02*
D03*
Y0D02*
D03*
Y-2559D02*
D03*
Y-5118D02*
D03*
Y-7677D02*
D03*
M02*
