G04*
G04 #@! TF.GenerationSoftware,Altium Limited,Altium Designer,21.5.1 (32)*
G04*
G04 Layer_Physical_Order=4*
G04 Layer_Color=16711680*
%FSLAX25Y25*%
%MOIN*%
G70*
G04*
G04 #@! TF.SameCoordinates,9F226A22-D70E-441E-867E-09538FDFB880*
G04*
G04*
G04 #@! TF.FilePolarity,Positive*
G04*
G01*
G75*
%ADD13C,0.00800*%
%ADD14C,0.01000*%
G04:AMPARAMS|DCode=21|XSize=21.26mil|YSize=22.84mil|CornerRadius=5.32mil|HoleSize=0mil|Usage=FLASHONLY|Rotation=270.000|XOffset=0mil|YOffset=0mil|HoleType=Round|Shape=RoundedRectangle|*
%AMROUNDEDRECTD21*
21,1,0.02126,0.01221,0,0,270.0*
21,1,0.01063,0.02284,0,0,270.0*
1,1,0.01063,-0.00610,-0.00532*
1,1,0.01063,-0.00610,0.00532*
1,1,0.01063,0.00610,0.00532*
1,1,0.01063,0.00610,-0.00532*
%
%ADD21ROUNDEDRECTD21*%
G04:AMPARAMS|DCode=40|XSize=157.48mil|YSize=118.11mil|CornerRadius=29.53mil|HoleSize=0mil|Usage=FLASHONLY|Rotation=244.000|XOffset=0mil|YOffset=0mil|HoleType=Round|Shape=RoundedRectangle|*
%AMROUNDEDRECTD40*
21,1,0.15748,0.05906,0,0,244.0*
21,1,0.09843,0.11811,0,0,244.0*
1,1,0.05906,-0.04811,-0.03129*
1,1,0.05906,-0.00497,0.05718*
1,1,0.05906,0.04811,0.03129*
1,1,0.05906,0.00497,-0.05718*
%
%ADD40ROUNDEDRECTD40*%
G04:AMPARAMS|DCode=41|XSize=157.48mil|YSize=118.11mil|CornerRadius=29.53mil|HoleSize=0mil|Usage=FLASHONLY|Rotation=257.000|XOffset=0mil|YOffset=0mil|HoleType=Round|Shape=RoundedRectangle|*
%AMROUNDEDRECTD41*
21,1,0.15748,0.05906,0,0,257.0*
21,1,0.09843,0.11811,0,0,257.0*
1,1,0.05906,-0.03984,-0.04131*
1,1,0.05906,-0.01770,0.05459*
1,1,0.05906,0.03984,0.04131*
1,1,0.05906,0.01770,-0.05459*
%
%ADD41ROUNDEDRECTD41*%
G04:AMPARAMS|DCode=42|XSize=157.48mil|YSize=118.11mil|CornerRadius=29.53mil|HoleSize=0mil|Usage=FLASHONLY|Rotation=270.000|XOffset=0mil|YOffset=0mil|HoleType=Round|Shape=RoundedRectangle|*
%AMROUNDEDRECTD42*
21,1,0.15748,0.05906,0,0,270.0*
21,1,0.09843,0.11811,0,0,270.0*
1,1,0.05906,-0.02953,-0.04921*
1,1,0.05906,-0.02953,0.04921*
1,1,0.05906,0.02953,0.04921*
1,1,0.05906,0.02953,-0.04921*
%
%ADD42ROUNDEDRECTD42*%
G04:AMPARAMS|DCode=43|XSize=157.48mil|YSize=118.11mil|CornerRadius=29.53mil|HoleSize=0mil|Usage=FLASHONLY|Rotation=283.000|XOffset=0mil|YOffset=0mil|HoleType=Round|Shape=RoundedRectangle|*
%AMROUNDEDRECTD43*
21,1,0.15748,0.05906,0,0,283.0*
21,1,0.09843,0.11811,0,0,283.0*
1,1,0.05906,-0.01770,-0.05459*
1,1,0.05906,-0.03984,0.04131*
1,1,0.05906,0.01770,0.05459*
1,1,0.05906,0.03984,-0.04131*
%
%ADD43ROUNDEDRECTD43*%
G04:AMPARAMS|DCode=44|XSize=157.48mil|YSize=118.11mil|CornerRadius=29.53mil|HoleSize=0mil|Usage=FLASHONLY|Rotation=296.000|XOffset=0mil|YOffset=0mil|HoleType=Round|Shape=RoundedRectangle|*
%AMROUNDEDRECTD44*
21,1,0.15748,0.05906,0,0,296.0*
21,1,0.09843,0.11811,0,0,296.0*
1,1,0.05906,-0.00497,-0.05718*
1,1,0.05906,-0.04811,0.03129*
1,1,0.05906,0.00497,0.05718*
1,1,0.05906,0.04811,-0.03129*
%
%ADD44ROUNDEDRECTD44*%
%ADD86R,0.22441X0.14567*%
G04:AMPARAMS|DCode=87|XSize=43.31mil|YSize=102.36mil|CornerRadius=21.65mil|HoleSize=0mil|Usage=FLASHONLY|Rotation=90.000|XOffset=0mil|YOffset=0mil|HoleType=Round|Shape=RoundedRectangle|*
%AMROUNDEDRECTD87*
21,1,0.04331,0.05906,0,0,90.0*
21,1,0.00000,0.10236,0,0,90.0*
1,1,0.04331,0.02953,0.00000*
1,1,0.04331,0.02953,0.00000*
1,1,0.04331,-0.02953,0.00000*
1,1,0.04331,-0.02953,0.00000*
%
%ADD87ROUNDEDRECTD87*%
G04:AMPARAMS|DCode=88|XSize=43.31mil|YSize=82.68mil|CornerRadius=21.65mil|HoleSize=0mil|Usage=FLASHONLY|Rotation=90.000|XOffset=0mil|YOffset=0mil|HoleType=Round|Shape=RoundedRectangle|*
%AMROUNDEDRECTD88*
21,1,0.04331,0.03937,0,0,90.0*
21,1,0.00000,0.08268,0,0,90.0*
1,1,0.04331,0.01968,0.00000*
1,1,0.04331,0.01968,0.00000*
1,1,0.04331,-0.01968,0.00000*
1,1,0.04331,-0.01968,0.00000*
%
%ADD88ROUNDEDRECTD88*%
%ADD89C,0.04921*%
%ADD90C,0.17500*%
%ADD91C,0.01772*%
%ADD92C,0.02400*%
%ADD93C,0.00787*%
%ADD94C,0.01200*%
%ADD95C,0.01600*%
%ADD96O,0.05512X0.01772*%
G36*
X-10867Y39696D02*
X-10305Y39133D01*
X-10026Y38461D01*
X-10000Y38000D01*
Y38000D01*
X-10000D01*
X-10000Y38000D01*
X-10000Y36500D01*
X-9952Y35520D01*
X-9569Y33597D01*
X-8819Y31786D01*
X-7730Y30156D01*
X-6344Y28770D01*
X-4714Y27681D01*
X-2903Y26930D01*
X-980Y26548D01*
X-0Y26500D01*
X33704Y26500D01*
X33814Y26335D01*
Y25665D01*
X34071Y25045D01*
X34545Y24571D01*
X35165Y24314D01*
X35835D01*
X36455Y24571D01*
X36929Y25045D01*
X37186Y25665D01*
Y26000D01*
X37618Y26500D01*
X49000Y26500D01*
X49398Y26500D01*
X50133Y26196D01*
X50696Y25633D01*
X50974Y24961D01*
X51000Y24500D01*
Y24500D01*
X51000D01*
X51000Y24500D01*
X51000Y21000D01*
X51000Y20702D01*
X50772Y20150D01*
X50350Y19728D01*
X49959Y19566D01*
X49500Y19500D01*
X49500Y19500D01*
Y19500D01*
X49500Y19500D01*
X49110Y19462D01*
X49041Y19433D01*
X48389Y19163D01*
X47837Y18611D01*
X47538Y17890D01*
X47500Y17500D01*
Y-25500D01*
Y-25898D01*
X47196Y-26633D01*
X46633Y-27196D01*
X45898Y-27500D01*
X34999D01*
X34500Y-27499D01*
X34000Y-27499D01*
X31414Y-27500D01*
X31078Y-27500D01*
X30418Y-27369D01*
X29797Y-27112D01*
X29366Y-26824D01*
X29000Y-26500D01*
X29000Y-26500D01*
X29000Y-26500D01*
X28627Y-26163D01*
X27793Y-25605D01*
X26865Y-25221D01*
X25881Y-25025D01*
X25379Y-25000D01*
X25379Y-25000D01*
X25379Y-25000D01*
X-28314Y-25000D01*
Y-24665D01*
X-28571Y-24045D01*
X-29045Y-23571D01*
X-29665Y-23314D01*
X-30335D01*
X-30955Y-23571D01*
X-31429Y-24045D01*
X-31686Y-24665D01*
Y-25000D01*
X-40500D01*
X-40799Y-25000D01*
X-41350Y-24772D01*
X-41772Y-24350D01*
X-42000Y-23798D01*
X-42000Y-23500D01*
Y-18091D01*
X-41500Y-17884D01*
X-41455Y-17929D01*
X-40835Y-18186D01*
X-40165D01*
X-39545Y-17929D01*
X-39071Y-17455D01*
X-38814Y-16835D01*
Y-16165D01*
X-39071Y-15545D01*
X-39116Y-15500D01*
X-38909Y-15000D01*
X-28186D01*
Y-15335D01*
X-27929Y-15955D01*
X-27570Y-16314D01*
X-27733Y-16814D01*
X-27835D01*
X-28455Y-17071D01*
X-28929Y-17545D01*
X-29186Y-18165D01*
Y-18835D01*
X-28929Y-19455D01*
X-28455Y-19929D01*
X-27835Y-20186D01*
X-27165D01*
X-26545Y-19929D01*
X-26071Y-19455D01*
X-25814Y-18835D01*
Y-18165D01*
X-26071Y-17545D01*
X-26430Y-17186D01*
X-26267Y-16686D01*
X-26165D01*
X-25545Y-16429D01*
X-25071Y-15955D01*
X-24814Y-15335D01*
Y-15000D01*
X-17784D01*
X-17335Y-15186D01*
X-16665D01*
X-16216Y-15000D01*
X16358D01*
X17338Y-14952D01*
X19261Y-14570D01*
X21072Y-13819D01*
X22702Y-12730D01*
X23429Y-12071D01*
X23429Y-12071D01*
X25500Y-10000D01*
X25725Y-9752D01*
X26097Y-9195D01*
X26353Y-8577D01*
X26484Y-7920D01*
X26500Y-7586D01*
X26500Y-7586D01*
X26500Y4000D01*
X26477Y4473D01*
X26292Y5402D01*
X25930Y6276D01*
X25656Y6686D01*
X25972Y7002D01*
X26229Y7622D01*
Y8292D01*
X25972Y8912D01*
X25498Y9386D01*
X24878Y9643D01*
X24208D01*
X23588Y9386D01*
X23275Y9073D01*
X22793Y9395D01*
X21865Y9780D01*
X20881Y9975D01*
X20379Y10000D01*
X20379Y10000D01*
X20379Y10000D01*
X17223Y10000D01*
Y12839D01*
X17429Y13045D01*
X17686Y13665D01*
Y14335D01*
X17429Y14955D01*
X16955Y15429D01*
X16335Y15686D01*
X15665D01*
X15045Y15429D01*
X14571Y14955D01*
X14314Y14335D01*
Y13665D01*
X14571Y13045D01*
X14776Y12839D01*
Y10000D01*
X9500Y10000D01*
X9263Y9988D01*
X8799Y9896D01*
X8362Y9715D01*
X7968Y9452D01*
X7793Y9293D01*
X7793Y9293D01*
X7793Y9293D01*
X7446Y8946D01*
X3686Y5186D01*
X3580Y5130D01*
X2686Y4395D01*
X2186Y4632D01*
Y4835D01*
X1929Y5455D01*
X1455Y5929D01*
X835Y6186D01*
X165D01*
X-455Y5929D01*
X-929Y5455D01*
X-1186Y4835D01*
Y4165D01*
X-929Y3545D01*
X-455Y3071D01*
X165Y2814D01*
X377D01*
X584Y2314D01*
X-1462Y269D01*
X-2405Y-362D01*
X-4225Y-1116D01*
X-5441Y-1358D01*
X-5571Y-1045D01*
X-6045Y-571D01*
X-6075Y-17D01*
X-5966Y92D01*
X-5709Y711D01*
Y920D01*
X-5209Y1020D01*
X-5190Y972D01*
X-4715Y498D01*
X-4096Y242D01*
X-3425D01*
X-2805Y498D01*
X-2331Y972D01*
X-2075Y1592D01*
Y2263D01*
X-2331Y2882D01*
X-2805Y3357D01*
X-3425Y3613D01*
X-4096D01*
X-4715Y3357D01*
X-5190Y2882D01*
X-5446Y2263D01*
Y2054D01*
X-5946Y1954D01*
X-5966Y2002D01*
X-6440Y2476D01*
X-7060Y2733D01*
X-7730D01*
X-8350Y2476D01*
X-8824Y2002D01*
X-9081Y1382D01*
Y711D01*
X-8824Y92D01*
X-8350Y-382D01*
X-8320Y-936D01*
X-8429Y-1045D01*
X-8805Y-1159D01*
X-9086Y-971D01*
X-9744Y-840D01*
X-13484D01*
X-14142Y-971D01*
X-14700Y-1344D01*
X-14804Y-1500D01*
X-15699D01*
X-15980Y-1384D01*
Y3793D01*
X-14535D01*
X-14142Y3530D01*
X-13484Y3399D01*
X-9744D01*
X-9086Y3530D01*
X-8529Y3903D01*
X-8156Y4460D01*
X-8151Y4487D01*
X-8019Y4805D01*
X-8000Y5000D01*
Y13000D01*
X-8038Y13390D01*
X-8337Y14111D01*
X-8889Y14663D01*
X-9610Y14962D01*
X-10000Y15000D01*
X-12882D01*
X-13071Y15455D01*
X-13545Y15929D01*
X-14165Y16186D01*
X-14835D01*
X-15455Y15929D01*
X-15929Y15455D01*
X-16118Y15000D01*
X-18898D01*
X-19633Y15304D01*
X-20196Y15867D01*
X-20500Y16602D01*
Y17000D01*
Y38000D01*
X-20500Y38398D01*
X-20196Y39133D01*
X-19633Y39696D01*
X-18898Y40000D01*
X-18500Y40000D01*
X-18500Y40000D01*
X-12000Y40000D01*
X-11602Y40000D01*
X-10867Y39696D01*
D02*
G37*
G36*
X59500Y27000D02*
X59500Y27000D01*
X59500D01*
X59956Y26894D01*
X60066Y26848D01*
X60348Y26566D01*
X60500Y26199D01*
X60500Y26000D01*
Y19999D01*
X59303D01*
X58529Y19897D01*
X57808Y19598D01*
X57188Y19123D01*
X56713Y18503D01*
X56530Y18061D01*
X55955Y17929D01*
X55335Y18186D01*
X54665D01*
X54045Y17929D01*
X53571Y17455D01*
X53314Y16835D01*
Y16165D01*
X53571Y15545D01*
X54045Y15071D01*
X54665Y14814D01*
X55335D01*
X55955Y15071D01*
X56238Y15353D01*
X56320Y15381D01*
X56819Y15343D01*
X56859Y15322D01*
X57188Y14893D01*
X57808Y14418D01*
X58529Y14119D01*
X59303Y14017D01*
X60080D01*
X60389Y13517D01*
X60314Y13335D01*
Y12665D01*
X60500Y12216D01*
X60500Y-7199D01*
X60348Y-7566D01*
X60066Y-7848D01*
X59699Y-8000D01*
X53000D01*
X52801Y-8000D01*
X52434Y-7848D01*
X52152Y-7566D01*
X52000Y-7199D01*
X52000Y-7000D01*
Y-4485D01*
X52121Y-4404D01*
X52792D01*
X53411Y-4147D01*
X53886Y-3673D01*
X54142Y-3053D01*
Y-2382D01*
X53969Y-1964D01*
X53955Y-1429D01*
X54429Y-955D01*
X54686Y-335D01*
Y335D01*
X54429Y955D01*
X53955Y1429D01*
X53335Y1686D01*
X52665D01*
X52500Y1618D01*
X52000Y1952D01*
X52000Y11500D01*
X52000D01*
X52000Y11500D01*
X52000Y11500D01*
X51962Y11890D01*
X51933Y11958D01*
X51663Y12611D01*
X51111Y13163D01*
X50464Y13431D01*
X50390Y13462D01*
X50000Y13500D01*
X49536Y13569D01*
X49150Y13728D01*
X48728Y14150D01*
X48500Y14702D01*
X48500Y16528D01*
X48500Y17000D01*
D01*
X48580Y17491D01*
X48728Y17850D01*
X49150Y18272D01*
X49702Y18500D01*
X50000D01*
Y18500D01*
X50390Y18538D01*
X51111Y18837D01*
X51663Y19389D01*
X51962Y20110D01*
X52000Y20500D01*
X52000Y26000D01*
X52000Y26000D01*
X52108Y26455D01*
X52153Y26566D01*
X52434Y26847D01*
X52801Y26999D01*
X53000Y27000D01*
X59500Y27000D01*
X59500Y27000D01*
D02*
G37*
G36*
X-67000Y42500D02*
X-39000Y42500D01*
X-38015Y42500D01*
X-37990Y42495D01*
X-37696Y41784D01*
X-37133Y41221D01*
X-36398Y40916D01*
X-35602D01*
X-34867Y41221D01*
X-34591Y41497D01*
X-34263Y41362D01*
X-32625Y40268D01*
X-31233Y38875D01*
X-30138Y37237D01*
X-29384Y35417D01*
X-29000Y33485D01*
X-29000Y32500D01*
X-29000D01*
X-29000Y32500D01*
X-29000Y16500D01*
Y16003D01*
X-29381Y15084D01*
X-30084Y14381D01*
X-31003Y14000D01*
X-31500D01*
Y14000D01*
X-37500D01*
X-37997Y14000D01*
X-38916Y14380D01*
X-39619Y15083D01*
X-40000Y16002D01*
X-40000Y16499D01*
X-40000Y16586D01*
X-40016Y16920D01*
X-40147Y17577D01*
X-40403Y18195D01*
X-40775Y18752D01*
X-41000Y19000D01*
X-41248Y19225D01*
X-41805Y19597D01*
X-42423Y19853D01*
X-42925Y19953D01*
X-42954Y19959D01*
X-42954Y19959D01*
X-43080Y19984D01*
X-43414Y20000D01*
X-43414Y20000D01*
X-43414Y20000D01*
X-43905Y20000D01*
X-54000D01*
X-76500Y28000D01*
X-82500Y31000D01*
X-83000Y33500D01*
X-77500Y44500D01*
X-75000Y46000D01*
X-67000Y42500D01*
D02*
G37*
G36*
X-72805Y25069D02*
X-46677Y11849D01*
X-46133Y11304D01*
X-45398Y11000D01*
X-44702D01*
X-44150Y10772D01*
X-43728Y10350D01*
X-43500Y9798D01*
Y9500D01*
Y6000D01*
Y5702D01*
X-43728Y5150D01*
X-44150Y4728D01*
X-44702Y4500D01*
X-45000D01*
X-76426Y9384D01*
X-87344Y10724D01*
X-88134Y12386D01*
X-84644Y27503D01*
X-82260Y28324D01*
X-72805Y25069D01*
D02*
G37*
G36*
X-76578Y8049D02*
X-45000Y3500D01*
X-44702D01*
X-44150Y3272D01*
X-43728Y2850D01*
X-43500Y2298D01*
Y2000D01*
Y-2000D01*
Y-2298D01*
X-43728Y-2850D01*
X-44150Y-3272D01*
X-44702Y-3500D01*
X-45000D01*
X-76578Y-8049D01*
X-86523Y-9094D01*
X-88661Y-7757D01*
Y7757D01*
X-86523Y9094D01*
X-76578Y8049D01*
D02*
G37*
G36*
X-44150Y-4728D02*
X-43728Y-5150D01*
X-43500Y-5702D01*
Y-6000D01*
Y-9500D01*
Y-9798D01*
X-43728Y-10350D01*
X-44150Y-10772D01*
X-44702Y-11000D01*
X-45000D01*
X-72805Y-25069D01*
X-82260Y-28324D01*
X-84644Y-27503D01*
X-88134Y-12386D01*
X-87344Y-10724D01*
X-76426Y-9384D01*
X-45000Y-4500D01*
X-44702D01*
X-44150Y-4728D01*
D02*
G37*
%LPC*%
G36*
X6835Y21686D02*
X6165D01*
X5545Y21429D01*
X5071Y20955D01*
X4814Y20335D01*
Y19665D01*
X5071Y19045D01*
X5545Y18571D01*
X6165Y18314D01*
X6835D01*
X7455Y18571D01*
X7929Y19045D01*
X8186Y19665D01*
Y20335D01*
X7929Y20955D01*
X7455Y21429D01*
X6835Y21686D01*
D02*
G37*
G36*
X-7165Y20186D02*
X-7835D01*
X-8455Y19929D01*
X-8929Y19455D01*
X-9186Y18835D01*
Y18165D01*
X-8929Y17545D01*
X-8455Y17071D01*
X-7835Y16814D01*
X-7165D01*
X-6545Y17071D01*
X-6071Y17545D01*
X-5814Y18165D01*
Y18835D01*
X-6071Y19455D01*
X-6545Y19929D01*
X-7165Y20186D01*
D02*
G37*
G36*
X43335Y21186D02*
X42665D01*
X42045Y20929D01*
X41571Y20455D01*
X41314Y19835D01*
Y19165D01*
X40971Y18686D01*
X40665D01*
X40045Y18429D01*
X39571Y17955D01*
X39314Y17335D01*
Y16665D01*
X39571Y16045D01*
X40045Y15571D01*
X40665Y15314D01*
X41335D01*
X41955Y15571D01*
X42429Y16045D01*
X42686Y16665D01*
Y17335D01*
X43029Y17814D01*
X43335D01*
X43955Y18071D01*
X44429Y18545D01*
X44686Y19165D01*
Y19835D01*
X44429Y20455D01*
X43955Y20929D01*
X43335Y21186D01*
D02*
G37*
G36*
X-2665Y16686D02*
X-3335D01*
X-3955Y16429D01*
X-4429Y15955D01*
X-4686Y15335D01*
Y14665D01*
X-4429Y14045D01*
X-3955Y13571D01*
X-3335Y13314D01*
X-2665D01*
X-2045Y13571D01*
X-1571Y14045D01*
X-1314Y14665D01*
Y15335D01*
X-1571Y15955D01*
X-2045Y16429D01*
X-2665Y16686D01*
D02*
G37*
G36*
X835Y13686D02*
X165D01*
X-455Y13429D01*
X-929Y12955D01*
X-1186Y12335D01*
X-1507Y12121D01*
X-1665Y12186D01*
X-2335D01*
X-2955Y11929D01*
X-3429Y11455D01*
X-3686Y10835D01*
Y10165D01*
X-3429Y9545D01*
X-2955Y9071D01*
X-2335Y8814D01*
X-1665D01*
X-1045Y9071D01*
X-571Y9545D01*
X-314Y10165D01*
X7Y10379D01*
X165Y10314D01*
X835D01*
X1455Y10571D01*
X1929Y11045D01*
X2186Y11665D01*
Y12335D01*
X1929Y12955D01*
X1455Y13429D01*
X835Y13686D01*
D02*
G37*
G36*
X40835Y9686D02*
X40165D01*
X39545Y9429D01*
X39071Y8955D01*
X38814Y8335D01*
Y7665D01*
X39071Y7045D01*
X39545Y6571D01*
X40165Y6314D01*
X40835D01*
X41455Y6571D01*
X41929Y7045D01*
X42186Y7665D01*
Y8335D01*
X41929Y8955D01*
X41455Y9429D01*
X40835Y9686D01*
D02*
G37*
G36*
X32835Y1686D02*
X32165D01*
X31545Y1429D01*
X31071Y955D01*
X30814Y335D01*
Y-335D01*
X31071Y-955D01*
X31545Y-1429D01*
X32165Y-1686D01*
X32835D01*
X33455Y-1429D01*
X33929Y-955D01*
X34186Y-335D01*
Y335D01*
X33929Y955D01*
X33455Y1429D01*
X32835Y1686D01*
D02*
G37*
G36*
X40835Y-6314D02*
X40165D01*
X39545Y-6571D01*
X39071Y-7045D01*
X38814Y-7665D01*
Y-8335D01*
X39071Y-8955D01*
X39545Y-9429D01*
X40165Y-9686D01*
X40835D01*
X41455Y-9429D01*
X41929Y-8955D01*
X42186Y-8335D01*
Y-7665D01*
X41929Y-7045D01*
X41455Y-6571D01*
X40835Y-6314D01*
D02*
G37*
G36*
X-21665Y-15814D02*
X-22335D01*
X-22955Y-16071D01*
X-23429Y-16545D01*
X-23686Y-17165D01*
Y-17835D01*
X-23429Y-18455D01*
X-22955Y-18929D01*
X-22335Y-19186D01*
X-21665D01*
X-21045Y-18929D01*
X-20571Y-18455D01*
X-20314Y-17835D01*
Y-17165D01*
X-20571Y-16545D01*
X-21045Y-16071D01*
X-21665Y-15814D01*
D02*
G37*
G36*
X7835Y-17314D02*
X7165D01*
X6545Y-17571D01*
X6071Y-18045D01*
X5814Y-18665D01*
Y-19335D01*
X6071Y-19955D01*
X6545Y-20429D01*
X7165Y-20686D01*
X7835D01*
X8455Y-20429D01*
X8929Y-19955D01*
X9186Y-19335D01*
Y-18665D01*
X8929Y-18045D01*
X8455Y-17571D01*
X7835Y-17314D01*
D02*
G37*
G36*
X35218Y-17355D02*
X34548D01*
X33928Y-17611D01*
X33454Y-18085D01*
X33197Y-18705D01*
Y-19376D01*
X33454Y-19995D01*
X33928Y-20470D01*
X34548Y-20726D01*
X35218D01*
X35314Y-20686D01*
X35814Y-21021D01*
Y-21335D01*
X36071Y-21955D01*
X36545Y-22429D01*
X37165Y-22686D01*
X37835D01*
X38314Y-23029D01*
Y-23335D01*
X38571Y-23955D01*
X39045Y-24429D01*
X39665Y-24686D01*
X40335D01*
X40814Y-25029D01*
Y-25335D01*
X41071Y-25955D01*
X41545Y-26429D01*
X42165Y-26686D01*
X42835D01*
X43455Y-26429D01*
X43929Y-25955D01*
X44186Y-25335D01*
Y-24665D01*
X43929Y-24045D01*
X43455Y-23571D01*
X42835Y-23314D01*
X42165D01*
X41686Y-22971D01*
Y-22665D01*
X41429Y-22045D01*
X40955Y-21571D01*
X40335Y-21314D01*
X39665D01*
X39186Y-20971D01*
Y-20665D01*
X38929Y-20045D01*
X38455Y-19571D01*
X37835Y-19314D01*
X37165D01*
X37069Y-19354D01*
X36569Y-19020D01*
Y-18705D01*
X36312Y-18085D01*
X35838Y-17611D01*
X35218Y-17355D01*
D02*
G37*
G36*
X56804Y6140D02*
X56133D01*
X55514Y5883D01*
X55040Y5409D01*
X54783Y4789D01*
Y4118D01*
X55040Y3499D01*
X55514Y3025D01*
X56133Y2768D01*
X56804D01*
X57424Y3025D01*
X57898Y3499D01*
X58155Y4118D01*
Y4789D01*
X57898Y5409D01*
X57424Y5883D01*
X56804Y6140D01*
D02*
G37*
G36*
X57335Y686D02*
X56665D01*
X56045Y429D01*
X55571Y-45D01*
X55314Y-665D01*
Y-1335D01*
X55571Y-1955D01*
X56045Y-2429D01*
X56665Y-2686D01*
X57335D01*
X57955Y-2429D01*
X58429Y-1955D01*
X58686Y-1335D01*
Y-665D01*
X58429Y-45D01*
X57955Y429D01*
X57335Y686D01*
D02*
G37*
%LPD*%
D13*
X1460Y-2540D02*
G03*
X-1000Y-8479I5939J-5939D01*
G01*
X6000Y1000D02*
G03*
X4293Y293I0J-2414D01*
G01*
X-5439Y-7439D02*
G03*
X-6500Y-10000I2561J-2561D01*
G01*
X6057Y2559D02*
G03*
X3500Y1500I0J-3616D01*
G01*
X7500Y500D02*
G03*
X8707Y0I1207J1207D01*
G01*
X7500Y500D02*
G03*
X6293Y1000I-1207J-1207D01*
G01*
X-6500Y-5000D02*
G03*
X-3939Y-3939I0J3621D01*
G01*
X3354Y3354D02*
G03*
X3353Y3353I4259J-4261D01*
G01*
X7614Y5118D02*
G03*
X3354Y3354I0J-6025D01*
G01*
X14677Y7677D02*
G03*
X16000Y9000I0J1323D01*
G01*
X-1000Y-9500D02*
Y-8479D01*
X-5439Y-7439D02*
X3500Y1500D01*
X1460Y-2540D02*
X4293Y293D01*
X6000Y1000D02*
X6293D01*
X-3939Y-3939D02*
X3353Y3353D01*
X7614Y5118D02*
X11614D01*
X6057Y2559D02*
X11614D01*
X8707Y0D02*
X11614D01*
X11614Y7677D02*
X14677D01*
X16000Y9000D02*
Y14000D01*
D14*
X32172Y22000D02*
G03*
X37000Y24000I0J6828D01*
G01*
X37793Y24793D02*
G03*
X38500Y26500I-1707J1707D01*
G01*
X16500Y24000D02*
G03*
X21328Y22000I4828J4828D01*
G01*
X15500Y26414D02*
G03*
X16500Y24000I3414J0D01*
G01*
X-42500Y-12000D02*
G03*
X-43500Y-14414I2414J-2414D01*
G01*
Y-24672D02*
G03*
X-41500Y-29500I6828J0D01*
G01*
X-42207Y-11707D02*
G03*
X-41500Y-10000I-1707J1707D01*
G01*
X-40442Y10058D02*
G03*
X-41500Y7500I2563J-2558D01*
G01*
X-36646Y13854D02*
G03*
X-36083Y15213I-1359J1359D01*
G01*
X-24000Y47642D02*
G03*
X-21071Y40571I10000J0D01*
G01*
X21328Y22000D02*
X28000D01*
X32172D01*
X37000Y24000D02*
X37793Y24793D01*
X15500Y26414D02*
Y61000D01*
X-17764Y5118D02*
X-11614D01*
X-17764Y2461D02*
Y5118D01*
X38500Y26500D02*
Y40500D01*
X-43500Y-24672D02*
Y-14414D01*
X-42500Y-12000D02*
X-42207Y-11707D01*
X-41500Y-10000D02*
Y7500D01*
X-40442Y10058D02*
X-36646Y13854D01*
X-21071Y40571D02*
X-18500Y38000D01*
X-24000Y47642D02*
Y64000D01*
D21*
X-14965Y0D02*
D03*
X-18035D02*
D03*
D40*
X-74600Y36385D02*
D03*
D41*
X-80873Y18671D02*
D03*
D42*
X-83000Y0D02*
D03*
D43*
X-80873Y-18671D02*
D03*
D44*
X-74600Y-36385D02*
D03*
D86*
X-28000Y0D02*
D03*
D87*
X82374Y17008D02*
D03*
Y-17008D02*
D03*
D88*
X61272Y17008D02*
D03*
Y-17008D02*
D03*
D89*
X-24000Y64000D02*
D03*
X-14000D02*
D03*
X-4000D02*
D03*
X6000D02*
D03*
D90*
X0Y-37402D02*
D03*
Y37402D02*
D03*
D91*
X68000Y500D02*
D03*
X52456Y-2718D02*
D03*
X50000Y-4500D02*
D03*
X5866Y-1366D02*
D03*
X5000Y-4000D02*
D03*
X-1000Y-9500D02*
D03*
X3500Y-6500D02*
D03*
X-6500Y-10000D02*
D03*
Y-5000D02*
D03*
X-7000Y-2000D02*
D03*
X37500Y-21000D02*
D03*
X34883Y-19040D02*
D03*
X40000Y-23000D02*
D03*
X42500Y-25000D02*
D03*
X53000Y0D02*
D03*
X57000Y-1000D02*
D03*
X56469Y4454D02*
D03*
X56500Y8428D02*
D03*
X68000Y3500D02*
D03*
X34000Y52500D02*
D03*
X500Y12000D02*
D03*
X-2000Y10500D02*
D03*
X-7395Y1047D02*
D03*
X28000Y22000D02*
D03*
X62000Y-13000D02*
D03*
Y13000D02*
D03*
X-3000Y15000D02*
D03*
X500Y4500D02*
D03*
X24500Y-3500D02*
D03*
X55000Y16500D02*
D03*
X57000Y-6000D02*
D03*
X57500Y43500D02*
D03*
X43000Y19500D02*
D03*
X41000Y17000D02*
D03*
X29500Y46500D02*
D03*
X31000Y42500D02*
D03*
X20000Y65500D02*
D03*
X-40000Y-13000D02*
D03*
X-41500Y-29500D02*
D03*
X3500Y-18000D02*
D03*
X-40500Y-20000D02*
D03*
X16000Y14000D02*
D03*
X49500Y21000D02*
D03*
X25000Y-20000D02*
D03*
X-10500Y-23000D02*
D03*
X-17000Y-13500D02*
D03*
X7500Y-19000D02*
D03*
X50000Y-11000D02*
D03*
X-22000Y-17500D02*
D03*
X-3760Y1928D02*
D03*
X-27500Y-18500D02*
D03*
X-26500Y-15000D02*
D03*
X-40500Y-16500D02*
D03*
X-14500Y14500D02*
D03*
X-7500Y18500D02*
D03*
X6500Y20000D02*
D03*
X41500Y47500D02*
D03*
X50500D02*
D03*
X38500Y40500D02*
D03*
X15500Y61000D02*
D03*
X24543Y7957D02*
D03*
X40500Y8000D02*
D03*
X32500Y0D02*
D03*
X40500Y-8000D02*
D03*
X24500D02*
D03*
X49500Y-30000D02*
D03*
X-34500Y-35000D02*
D03*
X-30000Y-25000D02*
D03*
X11000Y31500D02*
D03*
X13000Y34500D02*
D03*
X15000Y74000D02*
D03*
X35500Y26000D02*
D03*
X15000Y80500D02*
D03*
X68000Y22000D02*
D03*
X62500Y26000D02*
D03*
X23000Y-30500D02*
D03*
D92*
X-45000Y-6000D02*
D03*
Y2000D02*
D03*
Y-2000D02*
D03*
Y6000D02*
D03*
Y9500D02*
D03*
X55000Y25500D02*
D03*
X59000D02*
D03*
X-12000Y38000D02*
D03*
X-37500Y21500D02*
D03*
X-45000Y-9500D02*
D03*
Y13000D02*
D03*
Y16500D02*
D03*
X-53000Y-20500D02*
D03*
X-47500Y-19000D02*
D03*
X-51000Y-16500D02*
D03*
X-48500Y-23500D02*
D03*
X-47500Y-27500D02*
D03*
X-46500Y-31500D02*
D03*
X-65000Y-28000D02*
D03*
X-63000Y-33000D02*
D03*
X-61000Y-38500D02*
D03*
X-50500Y39500D02*
D03*
X-60500Y40000D02*
D03*
X-64000Y31500D02*
D03*
X-37500Y25000D02*
D03*
Y28500D02*
D03*
X-46000Y30500D02*
D03*
X-46500Y36000D02*
D03*
X-62000Y35500D02*
D03*
X-65500Y27000D02*
D03*
X-47500Y26500D02*
D03*
X-48500Y16000D02*
D03*
X-51500Y17500D02*
D03*
X-36000Y42917D02*
D03*
Y32083D02*
D03*
X-18500Y38000D02*
D03*
D93*
X-17764Y2461D02*
D03*
X-33315D02*
D03*
X-28000D02*
D03*
X-22685D02*
D03*
Y6299D02*
D03*
X-28000D02*
D03*
X-33315D02*
D03*
X-38236Y-2461D02*
D03*
Y2461D02*
D03*
X-33315Y-2461D02*
D03*
X-28000D02*
D03*
X-22685D02*
D03*
X-17764D02*
D03*
X-22685Y-6299D02*
D03*
X-28000D02*
D03*
X-33315D02*
D03*
D94*
X-76326Y32846D02*
D03*
X-72874Y39923D02*
D03*
X-74600Y36385D02*
D03*
X-79864Y34572D02*
D03*
X-76413Y41649D02*
D03*
X-78139Y38111D02*
D03*
X-72787Y31120D02*
D03*
X-69336Y38197D02*
D03*
X-71061Y34659D02*
D03*
X-81758Y14835D02*
D03*
X-79987Y22507D02*
D03*
X-80873Y18671D02*
D03*
X-85594Y15721D02*
D03*
X-83823Y23393D02*
D03*
X-84709Y19557D02*
D03*
X-77922Y13949D02*
D03*
X-76151Y21621D02*
D03*
X-77037Y17785D02*
D03*
X-83000Y-3937D02*
D03*
Y3937D02*
D03*
Y0D02*
D03*
X-86937Y-3937D02*
D03*
Y3937D02*
D03*
Y0D02*
D03*
X-79063Y-3937D02*
D03*
Y3937D02*
D03*
Y0D02*
D03*
X-79987Y-22507D02*
D03*
X-81758Y-14835D02*
D03*
X-80873Y-18671D02*
D03*
X-83823Y-23393D02*
D03*
X-85594Y-15721D02*
D03*
X-84709Y-19557D02*
D03*
X-76151Y-21621D02*
D03*
X-77922Y-13949D02*
D03*
X-77037Y-17785D02*
D03*
X-72874Y-39923D02*
D03*
X-76326Y-32846D02*
D03*
X-74600Y-36385D02*
D03*
X-76413Y-41649D02*
D03*
X-79864Y-34572D02*
D03*
X-78139Y-38111D02*
D03*
X-69336Y-38197D02*
D03*
X-72787Y-31120D02*
D03*
X-71061Y-34659D02*
D03*
D95*
X24500Y-3500D02*
G03*
X22228Y-2559I-2272J-2272D01*
G01*
X11614D02*
X22228D01*
D96*
X11614Y7677D02*
D03*
Y5118D02*
D03*
Y2559D02*
D03*
Y0D02*
D03*
Y-2559D02*
D03*
Y-5118D02*
D03*
Y-7677D02*
D03*
X-11614Y7677D02*
D03*
Y5118D02*
D03*
Y2559D02*
D03*
Y0D02*
D03*
Y-2559D02*
D03*
Y-5118D02*
D03*
Y-7677D02*
D03*
M02*
