G04*
G04 #@! TF.GenerationSoftware,Altium Limited,Altium Designer,21.5.1 (32)*
G04*
G04 Layer_Color=32896*
%FSLAX25Y25*%
%MOIN*%
G70*
G04*
G04 #@! TF.SameCoordinates,9F226A22-D70E-441E-867E-09538FDFB880*
G04*
G04*
G04 #@! TF.FilePolarity,Positive*
G04*
G01*
G75*
%ADD10C,0.00984*%
%ADD12C,0.00787*%
%ADD13C,0.00800*%
%ADD98C,0.02362*%
G36*
X6340Y-51644D02*
X6293D01*
Y-51739D01*
X6245D01*
Y-51835D01*
X6197D01*
Y-51883D01*
X6149D01*
Y-51979D01*
X6101D01*
Y-52074D01*
X6053D01*
Y-52170D01*
X6005D01*
Y-52218D01*
X5957D01*
Y-52314D01*
X5910D01*
Y-52410D01*
X5862D01*
Y-52505D01*
X5814D01*
Y-52553D01*
X5766D01*
Y-52649D01*
X5718D01*
Y-52745D01*
X5670D01*
Y-52793D01*
X5622D01*
Y-52888D01*
X5574D01*
Y-52984D01*
X5527D01*
Y-53080D01*
X5479D01*
Y-53128D01*
X5431D01*
Y-53223D01*
X5383D01*
Y-53319D01*
X5335D01*
Y-53415D01*
X5287D01*
Y-53463D01*
X5239D01*
Y-53558D01*
X5192D01*
Y-53654D01*
X5144D01*
Y-53750D01*
X5096D01*
Y-53798D01*
X5048D01*
Y-53894D01*
X5000D01*
Y-53989D01*
X4952D01*
Y-54037D01*
X4904D01*
Y-54133D01*
X4856D01*
Y-54229D01*
X4809D01*
Y-54325D01*
X4761D01*
Y-54372D01*
X4713D01*
Y-54468D01*
X4665D01*
Y-54564D01*
X4617D01*
Y-54660D01*
X4569D01*
Y-54707D01*
X4521D01*
Y-54803D01*
X4473D01*
Y-54899D01*
X4425D01*
Y-54995D01*
X4378D01*
Y-55043D01*
X4330D01*
Y-55138D01*
X4282D01*
Y-55234D01*
X4234D01*
Y-55282D01*
X4186D01*
Y-55378D01*
X4138D01*
Y-55473D01*
X4090D01*
Y-55569D01*
X4042D01*
Y-55617D01*
X3995D01*
Y-55713D01*
X3947D01*
Y-55809D01*
X3899D01*
Y-55904D01*
X3851D01*
Y-55952D01*
X3803D01*
Y-56048D01*
X3755D01*
Y-56144D01*
X3708D01*
Y-56191D01*
X3660D01*
Y-56287D01*
X3612D01*
Y-56383D01*
X3564D01*
Y-56479D01*
X3516D01*
Y-56527D01*
X3468D01*
Y-56622D01*
X3420D01*
Y-56718D01*
X3372D01*
Y-56814D01*
X3325D01*
Y-56862D01*
X3277D01*
Y-56957D01*
X3229D01*
Y-57053D01*
X3181D01*
Y-57149D01*
X3133D01*
Y-57197D01*
X3085D01*
Y-57293D01*
X3037D01*
Y-57388D01*
X2989D01*
Y-57436D01*
X2942D01*
Y-57532D01*
X2894D01*
Y-57628D01*
X2846D01*
Y-57723D01*
X2798D01*
Y-57771D01*
X2750D01*
Y-57867D01*
X2702D01*
Y-57963D01*
X2654D01*
Y-58059D01*
X2606D01*
Y-58106D01*
X2558D01*
Y-58202D01*
X2511D01*
Y-58298D01*
X2463D01*
Y-58394D01*
X2415D01*
Y-58442D01*
X2367D01*
Y-58537D01*
X2319D01*
Y-58633D01*
X2271D01*
Y-58681D01*
X2223D01*
Y-58777D01*
X2176D01*
Y-58872D01*
X2128D01*
Y-58968D01*
X2080D01*
Y-59016D01*
X2032D01*
Y-59112D01*
X1984D01*
Y-59207D01*
X1936D01*
Y-59303D01*
X1888D01*
Y-59351D01*
X1840D01*
Y-59447D01*
X1792D01*
Y-59543D01*
X1745D01*
Y-59638D01*
X1697D01*
Y-59686D01*
X1649D01*
Y-59782D01*
X1601D01*
Y-59878D01*
X1553D01*
Y-59926D01*
X1505D01*
Y-60021D01*
X1457D01*
Y-60117D01*
X1410D01*
Y-60213D01*
X1362D01*
Y-60261D01*
X1314D01*
Y-60356D01*
X1266D01*
Y-60452D01*
X1218D01*
Y-60548D01*
X1170D01*
Y-60596D01*
X1122D01*
Y-60691D01*
X1075D01*
Y-60787D01*
X1027D01*
Y-60835D01*
X979D01*
Y-60931D01*
X931D01*
Y-61027D01*
X883D01*
Y-61122D01*
X835D01*
Y-61170D01*
X787D01*
Y-61266D01*
X739D01*
Y-61362D01*
X691D01*
Y-61457D01*
X644D01*
Y-61505D01*
X596D01*
Y-61601D01*
X548D01*
Y-61697D01*
X500D01*
Y-61793D01*
X452D01*
Y-61840D01*
X404D01*
Y-61936D01*
X356D01*
Y-62032D01*
X308D01*
Y-62080D01*
X261D01*
Y-62176D01*
X213D01*
Y-62271D01*
X165D01*
Y-62367D01*
X117D01*
Y-62415D01*
X69D01*
Y-62511D01*
X21D01*
Y-62606D01*
X-27D01*
Y-62702D01*
X-75D01*
Y-62750D01*
X-122D01*
Y-62846D01*
X-170D01*
Y-62941D01*
X-218D01*
Y-63037D01*
X-266D01*
Y-63085D01*
X-314D01*
Y-63181D01*
X-362D01*
Y-63277D01*
X-410D01*
Y-63324D01*
X-457D01*
Y-63420D01*
X-505D01*
Y-63516D01*
X-553D01*
Y-63612D01*
X-601D01*
Y-63660D01*
X-649D01*
Y-63755D01*
X-697D01*
Y-63851D01*
X-745D01*
Y-63947D01*
X-793D01*
Y-63995D01*
X-840D01*
Y-64090D01*
X-888D01*
Y-64186D01*
X-936D01*
Y-64138D01*
X-984D01*
Y-64090D01*
X-1032D01*
Y-63995D01*
X-1080D01*
Y-63899D01*
X-1128D01*
Y-63803D01*
X-1175D01*
Y-63755D01*
X-1223D01*
Y-63660D01*
X-1271D01*
Y-63564D01*
X-1319D01*
Y-63468D01*
X-1367D01*
Y-63420D01*
X-1415D01*
Y-63324D01*
X-1463D01*
Y-63229D01*
X-1511D01*
Y-63181D01*
X-1558D01*
Y-63085D01*
X-1606D01*
Y-62989D01*
X-1654D01*
Y-62894D01*
X-1702D01*
Y-62846D01*
X-1750D01*
Y-62750D01*
X-1798D01*
Y-62654D01*
X-1846D01*
Y-62559D01*
X-1894D01*
Y-62511D01*
X-1942D01*
Y-62415D01*
X-1989D01*
Y-62319D01*
X-2037D01*
Y-62223D01*
X-2085D01*
Y-62176D01*
X-2133D01*
Y-62080D01*
X-2181D01*
Y-61984D01*
X-2229D01*
Y-61936D01*
X-2277D01*
Y-61840D01*
X-2324D01*
Y-61745D01*
X-2372D01*
Y-61649D01*
X-2420D01*
Y-61601D01*
X-2468D01*
Y-61505D01*
X-2516D01*
Y-61410D01*
X-2564D01*
Y-61314D01*
X-2612D01*
Y-61266D01*
X-2660D01*
Y-61170D01*
X-2708D01*
Y-61075D01*
X-2755D01*
Y-60979D01*
X-2803D01*
Y-60931D01*
X-2851D01*
Y-60835D01*
X-2899D01*
Y-60739D01*
X-2947D01*
Y-60691D01*
X-2995D01*
Y-60596D01*
X-3042D01*
Y-60500D01*
X-3090D01*
Y-60404D01*
X-3138D01*
Y-60356D01*
X-3186D01*
Y-60261D01*
X-3234D01*
Y-60165D01*
X-3282D01*
Y-60069D01*
X-3330D01*
Y-60021D01*
X-3378D01*
Y-59926D01*
X-3426D01*
Y-59830D01*
X-3473D01*
Y-59782D01*
X-3521D01*
Y-59686D01*
X-3569D01*
Y-59590D01*
X-3617D01*
Y-59495D01*
X-3665D01*
Y-59447D01*
X-3713D01*
Y-59351D01*
X-3761D01*
Y-59255D01*
X-3808D01*
Y-59160D01*
X-3856D01*
Y-59112D01*
X-3904D01*
Y-59016D01*
X-3952D01*
Y-58920D01*
X-4000D01*
Y-58824D01*
X-4048D01*
Y-58777D01*
X-4096D01*
Y-58681D01*
X-4144D01*
Y-58585D01*
X-4191D01*
Y-58537D01*
X-4239D01*
Y-58442D01*
X-4287D01*
Y-58346D01*
X-4335D01*
Y-58250D01*
X-4383D01*
Y-58202D01*
X-4431D01*
Y-58106D01*
X-4479D01*
Y-58011D01*
X-4527D01*
Y-57915D01*
X-4575D01*
Y-57867D01*
X-4622D01*
Y-57819D01*
X-4670D01*
Y-57867D01*
X-4718D01*
Y-57963D01*
X-4766D01*
Y-58059D01*
X-4814D01*
Y-58106D01*
X-4862D01*
Y-58202D01*
X-4910D01*
Y-58298D01*
X-4958D01*
Y-58346D01*
X-5005D01*
Y-58442D01*
X-5053D01*
Y-58537D01*
X-5101D01*
Y-58633D01*
X-5149D01*
Y-58681D01*
X-5197D01*
Y-58777D01*
X-5245D01*
Y-58872D01*
X-5293D01*
Y-58968D01*
X-5340D01*
Y-59016D01*
X-5388D01*
Y-59112D01*
X-5436D01*
Y-59207D01*
X-5484D01*
Y-59303D01*
X-5532D01*
Y-59351D01*
X-5580D01*
Y-59447D01*
X-5628D01*
Y-59543D01*
X-5675D01*
Y-59590D01*
X-5723D01*
Y-59686D01*
X-5771D01*
Y-59782D01*
X-5819D01*
Y-59878D01*
X-5867D01*
Y-59926D01*
X-5915D01*
Y-60021D01*
X-5963D01*
Y-60117D01*
X-6011D01*
Y-60213D01*
X-6058D01*
Y-60261D01*
X-6106D01*
Y-60356D01*
X-6154D01*
Y-60452D01*
X-6202D01*
Y-60548D01*
X-6250D01*
Y-60596D01*
X-6298D01*
Y-60691D01*
X-6346D01*
Y-60787D01*
X-6394D01*
Y-60835D01*
X-6442D01*
Y-60931D01*
X-6489D01*
Y-61027D01*
X-6537D01*
Y-61122D01*
X-6585D01*
Y-61170D01*
X-6633D01*
Y-61266D01*
X-6681D01*
Y-61362D01*
X-6729D01*
Y-61457D01*
X-6777D01*
Y-61505D01*
X-6825D01*
Y-61601D01*
X-6872D01*
Y-61697D01*
X-6920D01*
Y-61793D01*
X-6968D01*
Y-61840D01*
X-7016D01*
Y-61936D01*
X-7064D01*
Y-62032D01*
X-7112D01*
Y-62080D01*
X-7160D01*
Y-62176D01*
X-7208D01*
Y-62271D01*
X-7255D01*
Y-62367D01*
X-7303D01*
Y-62415D01*
X-7351D01*
Y-62511D01*
X-7399D01*
Y-62606D01*
X-7447D01*
Y-62702D01*
X-7495D01*
Y-62750D01*
X-7542D01*
Y-62846D01*
X-7590D01*
Y-62941D01*
X-7638D01*
Y-62989D01*
X-7686D01*
Y-63085D01*
X-7734D01*
Y-63181D01*
X-7782D01*
Y-63277D01*
X-7830D01*
Y-63324D01*
X-7878D01*
Y-63420D01*
X-7925D01*
Y-63516D01*
X-7973D01*
Y-63612D01*
X-8021D01*
Y-63660D01*
X-8069D01*
Y-63755D01*
X-8117D01*
Y-63851D01*
X-8165D01*
Y-63947D01*
X-8213D01*
Y-63995D01*
X-8261D01*
Y-64090D01*
X-8309D01*
Y-64186D01*
X-8356D01*
Y-64234D01*
X-8404D01*
Y-64330D01*
X-8452D01*
Y-64425D01*
X-8500D01*
Y-64521D01*
X-8548D01*
Y-64569D01*
X-8596D01*
Y-64665D01*
X-8644D01*
Y-64761D01*
X-8692D01*
Y-64856D01*
X-8739D01*
Y-64904D01*
X-8787D01*
Y-65000D01*
X-8835D01*
Y-65096D01*
X-8883D01*
Y-65192D01*
X-8931D01*
Y-65239D01*
X-8979D01*
Y-65335D01*
X-9027D01*
Y-65431D01*
X-9075D01*
Y-65479D01*
X-9122D01*
Y-65575D01*
X-9170D01*
Y-65670D01*
X-9218D01*
Y-65766D01*
X-9266D01*
Y-65814D01*
X-9314D01*
Y-65910D01*
X-9362D01*
Y-66005D01*
X-9410D01*
Y-66101D01*
X-9458D01*
Y-66149D01*
X-9505D01*
Y-66245D01*
X-9553D01*
Y-66340D01*
X-9601D01*
Y-66388D01*
X-9649D01*
Y-66484D01*
X-9697D01*
Y-66580D01*
X-9745D01*
Y-66676D01*
X-9792D01*
Y-66723D01*
X-9840D01*
Y-66819D01*
X-9888D01*
Y-66915D01*
X-9936D01*
Y-67011D01*
X-9984D01*
Y-67058D01*
X-10032D01*
Y-67154D01*
X-10080D01*
Y-67250D01*
X-10128D01*
Y-67346D01*
X-10176D01*
Y-67394D01*
X-10223D01*
Y-67489D01*
X-10271D01*
Y-67585D01*
X-10319D01*
Y-67633D01*
X-10367D01*
Y-67729D01*
X-10415D01*
Y-67825D01*
X-10463D01*
Y-67920D01*
X-10511D01*
Y-67968D01*
X-10559D01*
Y-68064D01*
X-10606D01*
Y-68160D01*
X-10654D01*
Y-68255D01*
X-10702D01*
Y-68303D01*
X-10750D01*
Y-68399D01*
X-10798D01*
Y-68495D01*
X-10846D01*
Y-68590D01*
X-10894D01*
Y-68638D01*
X-10942D01*
Y-68734D01*
X-10989D01*
Y-68830D01*
X-11037D01*
Y-68878D01*
X-11085D01*
Y-68973D01*
X-11133D01*
Y-69069D01*
X-11181D01*
Y-69165D01*
X-11229D01*
Y-69213D01*
X-11277D01*
Y-69309D01*
X-11325D01*
Y-69404D01*
X-11372D01*
Y-69500D01*
X-11420D01*
Y-69548D01*
X-11468D01*
Y-69644D01*
X-11516D01*
Y-69739D01*
X-11564D01*
Y-69835D01*
X-11612D01*
Y-69883D01*
X-11660D01*
Y-69979D01*
X-11708D01*
Y-70074D01*
X-11755D01*
Y-70122D01*
X-11803D01*
Y-70218D01*
X-11851D01*
Y-70314D01*
X-11899D01*
Y-70410D01*
X-11947D01*
Y-70457D01*
X-11995D01*
Y-70553D01*
X-12043D01*
Y-70649D01*
X-12090D01*
Y-70745D01*
X-12138D01*
Y-70793D01*
X-12186D01*
Y-70888D01*
X-12234D01*
Y-70984D01*
X-12282D01*
Y-71032D01*
X-12330D01*
Y-71128D01*
X-12378D01*
Y-71223D01*
X-12426D01*
Y-71319D01*
X-12473D01*
Y-71367D01*
X-12521D01*
Y-71463D01*
X-12569D01*
Y-71558D01*
X-12617D01*
Y-71654D01*
X-12665D01*
Y-71702D01*
X-12713D01*
Y-71798D01*
X-12761D01*
Y-71894D01*
X-12809D01*
Y-71989D01*
X-12856D01*
Y-72037D01*
X-12904D01*
Y-72133D01*
X-12952D01*
Y-72229D01*
X-13000D01*
Y-72277D01*
X-13048D01*
Y-72372D01*
X-13096D01*
Y-72468D01*
X-13144D01*
Y-72564D01*
X-13192D01*
Y-72612D01*
X-13239D01*
Y-72707D01*
X-13287D01*
Y-72803D01*
X-13335D01*
Y-72899D01*
X-13383D01*
Y-72947D01*
X-13431D01*
Y-73043D01*
X-13479D01*
Y-73138D01*
X-13527D01*
Y-73234D01*
X-13575D01*
Y-73282D01*
X-13622D01*
Y-73378D01*
X-13670D01*
Y-73473D01*
X-13718D01*
Y-73521D01*
X-13766D01*
Y-73617D01*
X-13814D01*
Y-73713D01*
X-13862D01*
Y-73808D01*
X-13910D01*
Y-73856D01*
X-13958D01*
Y-73952D01*
X-14005D01*
Y-74048D01*
X-14053D01*
Y-74144D01*
X-14101D01*
Y-74191D01*
X-14149D01*
Y-74287D01*
X-14197D01*
Y-74383D01*
X-14245D01*
Y-74479D01*
X-14292D01*
Y-74527D01*
X-14340D01*
Y-74622D01*
X-14388D01*
Y-74718D01*
X-14436D01*
Y-74766D01*
X-14484D01*
Y-74862D01*
X-14532D01*
Y-74957D01*
X-14580D01*
Y-75053D01*
X-14628D01*
Y-75101D01*
X-14675D01*
Y-75197D01*
X-14723D01*
Y-75293D01*
X-14771D01*
Y-75388D01*
X-14819D01*
Y-75436D01*
X-14867D01*
Y-75532D01*
X-14915D01*
Y-75628D01*
X-14963D01*
Y-75675D01*
X-15011D01*
Y-75771D01*
X-15058D01*
Y-75867D01*
X-15106D01*
Y-75963D01*
X-15154D01*
Y-76011D01*
X-15202D01*
Y-76106D01*
X-15250D01*
Y-76202D01*
X-15298D01*
Y-76298D01*
X-15346D01*
Y-76346D01*
X-15394D01*
Y-76442D01*
X-15441D01*
Y-76537D01*
X-15489D01*
Y-76633D01*
X-15537D01*
Y-76681D01*
X-15585D01*
Y-76777D01*
X-15633D01*
Y-76872D01*
X-15681D01*
Y-76920D01*
X-15729D01*
Y-77016D01*
X-15777D01*
Y-77112D01*
X-15824D01*
Y-77207D01*
X-15872D01*
Y-77255D01*
X-15920D01*
Y-77351D01*
X-15968D01*
Y-77447D01*
X-16016D01*
Y-77543D01*
X-16064D01*
Y-77590D01*
X-16112D01*
Y-77686D01*
X-16160D01*
Y-77782D01*
X-16207D01*
Y-77878D01*
X-16255D01*
Y-77925D01*
X-16303D01*
Y-78021D01*
X-16351D01*
Y-78117D01*
X-16399D01*
Y-78165D01*
X-16447D01*
Y-78261D01*
X-16495D01*
Y-78356D01*
X-16543D01*
Y-78452D01*
X-16590D01*
Y-78500D01*
X-16638D01*
Y-78596D01*
X-16686D01*
Y-78692D01*
X-16734D01*
Y-78787D01*
X-16782D01*
Y-78835D01*
X-16830D01*
Y-78931D01*
X-16878D01*
Y-79027D01*
X-16926D01*
Y-79122D01*
X-16973D01*
Y-79170D01*
X-17021D01*
Y-79266D01*
X-17069D01*
Y-79362D01*
X7777D01*
Y-79266D01*
X7729D01*
Y-79170D01*
X7681D01*
Y-79075D01*
X7633D01*
Y-78979D01*
X7585D01*
Y-78931D01*
X7537D01*
Y-78835D01*
X7489D01*
Y-78739D01*
X7441D01*
Y-78644D01*
X7394D01*
Y-78596D01*
X7346D01*
Y-78500D01*
X7298D01*
Y-78404D01*
X7250D01*
Y-78308D01*
X7202D01*
Y-78261D01*
X7154D01*
Y-78165D01*
X7106D01*
Y-78069D01*
X7058D01*
Y-78021D01*
X7011D01*
Y-77925D01*
X6963D01*
Y-77830D01*
X6915D01*
Y-77734D01*
X6867D01*
Y-77686D01*
X6819D01*
Y-77590D01*
X6771D01*
Y-77495D01*
X6723D01*
Y-77399D01*
X6675D01*
Y-77351D01*
X6628D01*
Y-77255D01*
X6580D01*
Y-77160D01*
X6532D01*
Y-77112D01*
X6484D01*
Y-77016D01*
X6436D01*
Y-76920D01*
X6388D01*
Y-76824D01*
X6340D01*
Y-76777D01*
X6293D01*
Y-76681D01*
X6245D01*
Y-76585D01*
X6197D01*
Y-76489D01*
X6149D01*
Y-76442D01*
X6101D01*
Y-76346D01*
X6053D01*
Y-76250D01*
X6005D01*
Y-76154D01*
X5957D01*
Y-76106D01*
X5910D01*
Y-76011D01*
X5862D01*
Y-75915D01*
X5814D01*
Y-75867D01*
X5766D01*
Y-75771D01*
X5718D01*
Y-75675D01*
X5670D01*
Y-75580D01*
X5622D01*
Y-75532D01*
X5574D01*
Y-75436D01*
X5527D01*
Y-75340D01*
X5479D01*
Y-75245D01*
X5431D01*
Y-75197D01*
X5383D01*
Y-75101D01*
X5335D01*
Y-75005D01*
X5287D01*
Y-74910D01*
X5239D01*
Y-74862D01*
X5192D01*
Y-74766D01*
X5144D01*
Y-74670D01*
X5096D01*
Y-74622D01*
X5048D01*
Y-74527D01*
X5000D01*
Y-74431D01*
X4952D01*
Y-74335D01*
X4904D01*
Y-74287D01*
X4856D01*
Y-74191D01*
X4809D01*
Y-74096D01*
X4761D01*
Y-74000D01*
X4713D01*
Y-73952D01*
X4665D01*
Y-73856D01*
X4617D01*
Y-73761D01*
X4569D01*
Y-73713D01*
X4521D01*
Y-73617D01*
X4473D01*
Y-73521D01*
X4425D01*
Y-73426D01*
X4378D01*
Y-73378D01*
X4330D01*
Y-73282D01*
X4282D01*
Y-73186D01*
X4234D01*
Y-73090D01*
X18835D01*
Y-72995D01*
X18787D01*
Y-72899D01*
X18739D01*
Y-72803D01*
X18691D01*
Y-72755D01*
X18644D01*
Y-72660D01*
X18596D01*
Y-72564D01*
X18548D01*
Y-72468D01*
X18500D01*
Y-72420D01*
X18452D01*
Y-72325D01*
X18404D01*
Y-72229D01*
X18356D01*
Y-72133D01*
X18308D01*
Y-72085D01*
X18261D01*
Y-71989D01*
X18213D01*
Y-71894D01*
X18165D01*
Y-71846D01*
X18117D01*
Y-71750D01*
X18069D01*
Y-71654D01*
X18021D01*
Y-71558D01*
X17973D01*
Y-71511D01*
X17925D01*
Y-71415D01*
X17878D01*
Y-71319D01*
X17830D01*
Y-71223D01*
X17782D01*
Y-71175D01*
X17734D01*
Y-71080D01*
X17686D01*
Y-70984D01*
X17638D01*
Y-70888D01*
X17590D01*
Y-70840D01*
X17542D01*
Y-70745D01*
X17495D01*
Y-70649D01*
X17447D01*
Y-70601D01*
X17399D01*
Y-70505D01*
X17351D01*
Y-70410D01*
X17303D01*
Y-70314D01*
X17255D01*
Y-70266D01*
X17208D01*
Y-70170D01*
X17160D01*
Y-70074D01*
X17112D01*
Y-69979D01*
X17064D01*
Y-69931D01*
X17016D01*
Y-69835D01*
X16968D01*
Y-69739D01*
X16920D01*
Y-69691D01*
X16872D01*
Y-69596D01*
X16825D01*
Y-69500D01*
X16777D01*
Y-69404D01*
X16729D01*
Y-69356D01*
X16681D01*
Y-69261D01*
X16633D01*
Y-69165D01*
X16585D01*
Y-69069D01*
X16537D01*
Y-69021D01*
X16489D01*
Y-68925D01*
X16442D01*
Y-68830D01*
X16394D01*
Y-68734D01*
X16346D01*
Y-68686D01*
X16298D01*
Y-68590D01*
X16250D01*
Y-68495D01*
X16202D01*
Y-68447D01*
X16154D01*
Y-68351D01*
X16106D01*
Y-68255D01*
X16059D01*
Y-68160D01*
X16011D01*
Y-68112D01*
X15963D01*
Y-68016D01*
X15915D01*
Y-67920D01*
X15867D01*
Y-67825D01*
X15819D01*
Y-67777D01*
X15771D01*
Y-67681D01*
X15723D01*
Y-67585D01*
X15676D01*
Y-67489D01*
X15628D01*
Y-67441D01*
X15580D01*
Y-67346D01*
X15532D01*
Y-67250D01*
X15484D01*
Y-67202D01*
X15436D01*
Y-67106D01*
X15388D01*
Y-67011D01*
X15340D01*
Y-66915D01*
X15292D01*
Y-66867D01*
X15245D01*
Y-66771D01*
X15197D01*
Y-66676D01*
X15149D01*
Y-66580D01*
X15101D01*
Y-66532D01*
X15053D01*
Y-66436D01*
X15005D01*
Y-66340D01*
X14957D01*
Y-66245D01*
X14910D01*
Y-66197D01*
X14862D01*
Y-66101D01*
X14814D01*
Y-66005D01*
X14766D01*
Y-65957D01*
X14718D01*
Y-65862D01*
X14670D01*
Y-65766D01*
X14622D01*
Y-65670D01*
X14574D01*
Y-65622D01*
X14527D01*
Y-65527D01*
X14479D01*
Y-65431D01*
X14431D01*
Y-65335D01*
X14383D01*
Y-65287D01*
X14335D01*
Y-65192D01*
X14287D01*
Y-65096D01*
X14239D01*
Y-65048D01*
X14191D01*
Y-64952D01*
X14144D01*
Y-64856D01*
X14096D01*
Y-64761D01*
X14048D01*
Y-64713D01*
X14000D01*
Y-64617D01*
X13952D01*
Y-64521D01*
X13904D01*
Y-64425D01*
X13856D01*
Y-64378D01*
X13808D01*
Y-64282D01*
X13761D01*
Y-64186D01*
X13713D01*
Y-64090D01*
X13665D01*
Y-64043D01*
X13617D01*
Y-63947D01*
X13569D01*
Y-63851D01*
X13521D01*
Y-63803D01*
X13473D01*
Y-63707D01*
X13426D01*
Y-63612D01*
X13378D01*
Y-63516D01*
X13330D01*
Y-63468D01*
X13282D01*
Y-63372D01*
X13234D01*
Y-63277D01*
X13186D01*
Y-63181D01*
X13138D01*
Y-63133D01*
X13090D01*
Y-63037D01*
X13043D01*
Y-62941D01*
X12995D01*
Y-62846D01*
X12947D01*
Y-62798D01*
X12899D01*
Y-62702D01*
X12851D01*
Y-62606D01*
X12803D01*
Y-62559D01*
X12755D01*
Y-62463D01*
X12708D01*
Y-62367D01*
X12660D01*
Y-62271D01*
X12612D01*
Y-62223D01*
X12564D01*
Y-62128D01*
X12516D01*
Y-62032D01*
X12468D01*
Y-61936D01*
X12420D01*
Y-61888D01*
X12372D01*
Y-61793D01*
X12325D01*
Y-61697D01*
X12277D01*
Y-61601D01*
X12229D01*
Y-61553D01*
X12181D01*
Y-61457D01*
X12133D01*
Y-61362D01*
X12085D01*
Y-61314D01*
X12037D01*
Y-61218D01*
X11989D01*
Y-61122D01*
X11942D01*
Y-61027D01*
X11894D01*
Y-60979D01*
X11846D01*
Y-60883D01*
X11798D01*
Y-60787D01*
X11750D01*
Y-60691D01*
X11702D01*
Y-60644D01*
X11654D01*
Y-60548D01*
X11606D01*
Y-60452D01*
X11558D01*
Y-60404D01*
X11511D01*
Y-60308D01*
X11463D01*
Y-60213D01*
X11415D01*
Y-60117D01*
X11367D01*
Y-60069D01*
X11319D01*
Y-59973D01*
X11271D01*
Y-59878D01*
X11223D01*
Y-59782D01*
X11175D01*
Y-59734D01*
X11128D01*
Y-59638D01*
X11080D01*
Y-59543D01*
X11032D01*
Y-59447D01*
X10984D01*
Y-59399D01*
X10936D01*
Y-59303D01*
X10888D01*
Y-59207D01*
X10840D01*
Y-59160D01*
X10792D01*
Y-59064D01*
X10745D01*
Y-58968D01*
X10697D01*
Y-58872D01*
X10649D01*
Y-58824D01*
X10601D01*
Y-58729D01*
X10553D01*
Y-58633D01*
X10505D01*
Y-58537D01*
X10458D01*
Y-58489D01*
X10410D01*
Y-58394D01*
X10362D01*
Y-58298D01*
X10314D01*
Y-58202D01*
X10266D01*
Y-58154D01*
X10218D01*
Y-58059D01*
X10170D01*
Y-57963D01*
X10122D01*
Y-57915D01*
X10074D01*
Y-57819D01*
X10027D01*
Y-57723D01*
X9979D01*
Y-57628D01*
X9931D01*
Y-57580D01*
X9883D01*
Y-57484D01*
X9835D01*
Y-57388D01*
X9787D01*
Y-57293D01*
X9739D01*
Y-57245D01*
X9691D01*
Y-57149D01*
X9644D01*
Y-57053D01*
X9596D01*
Y-57005D01*
X9548D01*
Y-56910D01*
X9500D01*
Y-56814D01*
X9452D01*
Y-56718D01*
X9404D01*
Y-56670D01*
X9356D01*
Y-56574D01*
X9308D01*
Y-56479D01*
X9261D01*
Y-56383D01*
X9213D01*
Y-56335D01*
X9165D01*
Y-56239D01*
X9117D01*
Y-56144D01*
X9069D01*
Y-56048D01*
X9021D01*
Y-56000D01*
X8973D01*
Y-55904D01*
X8925D01*
Y-55809D01*
X8878D01*
Y-55761D01*
X8830D01*
Y-55665D01*
X8782D01*
Y-55569D01*
X8734D01*
Y-55473D01*
X8686D01*
Y-55426D01*
X8638D01*
Y-55330D01*
X8590D01*
Y-55234D01*
X8542D01*
Y-55138D01*
X8495D01*
Y-55090D01*
X8447D01*
Y-54995D01*
X8399D01*
Y-54899D01*
X8351D01*
Y-54803D01*
X8303D01*
Y-54755D01*
X8255D01*
Y-54660D01*
X8207D01*
Y-54564D01*
X8160D01*
Y-54516D01*
X8112D01*
Y-54420D01*
X8064D01*
Y-54325D01*
X8016D01*
Y-54229D01*
X7968D01*
Y-54181D01*
X7920D01*
Y-54085D01*
X7872D01*
Y-53989D01*
X7824D01*
Y-53894D01*
X7777D01*
Y-53846D01*
X7729D01*
Y-53750D01*
X7681D01*
Y-53654D01*
X7633D01*
Y-53558D01*
X7585D01*
Y-53511D01*
X7537D01*
Y-53415D01*
X7489D01*
Y-53319D01*
X7441D01*
Y-53271D01*
X7394D01*
Y-53175D01*
X7346D01*
Y-53080D01*
X7298D01*
Y-52984D01*
X7250D01*
Y-52936D01*
X7202D01*
Y-52840D01*
X7154D01*
Y-52745D01*
X7106D01*
Y-52649D01*
X7058D01*
Y-52601D01*
X7011D01*
Y-52505D01*
X6963D01*
Y-52410D01*
X6915D01*
Y-52362D01*
X6867D01*
Y-52266D01*
X6819D01*
Y-52170D01*
X6771D01*
Y-52074D01*
X6723D01*
Y-52027D01*
X6675D01*
Y-51931D01*
X6628D01*
Y-51835D01*
X6580D01*
Y-51739D01*
X6532D01*
Y-51692D01*
X6484D01*
Y-51596D01*
X6436D01*
Y-51548D01*
X6388D01*
Y-51596D01*
X6340D01*
Y-51644D01*
D02*
G37*
%LPC*%
G36*
X3803Y-72420D02*
Y-72468D01*
X3851D01*
Y-72564D01*
X3899D01*
Y-72660D01*
X3947D01*
Y-72755D01*
X3995D01*
Y-72803D01*
X4042D01*
Y-72899D01*
X4090D01*
Y-72995D01*
X4138D01*
Y-73043D01*
X-6011D01*
Y-72995D01*
X-5963D01*
Y-72947D01*
X-5915D01*
Y-72851D01*
X-5867D01*
Y-72755D01*
X-5819D01*
Y-72660D01*
X-5771D01*
Y-72612D01*
X-5723D01*
Y-72516D01*
X-5675D01*
Y-72420D01*
X-5628D01*
Y-72325D01*
X-5580D01*
Y-72277D01*
X-5532D01*
Y-72181D01*
X-5484D01*
Y-72085D01*
X-5436D01*
Y-71989D01*
X-5388D01*
Y-71942D01*
X-5340D01*
Y-71846D01*
X-5293D01*
Y-71750D01*
X-5245D01*
Y-71702D01*
X-5197D01*
Y-71606D01*
X-5149D01*
Y-71511D01*
X-5101D01*
Y-71415D01*
X-5053D01*
Y-71367D01*
X-5005D01*
Y-71271D01*
X-4958D01*
Y-71175D01*
X-4910D01*
Y-71080D01*
X-4862D01*
Y-71032D01*
X-4814D01*
Y-70936D01*
X-4766D01*
Y-70840D01*
X-4718D01*
Y-70745D01*
X-4670D01*
Y-70697D01*
X-4622D01*
Y-70601D01*
X-4575D01*
Y-70505D01*
X-4527D01*
Y-70457D01*
X-4479D01*
Y-70362D01*
X-4431D01*
Y-70266D01*
X-4383D01*
Y-70170D01*
X-4335D01*
Y-70122D01*
X-4287D01*
Y-70027D01*
X-4239D01*
Y-69931D01*
X-4191D01*
Y-69835D01*
X-4144D01*
Y-69787D01*
X-4096D01*
Y-69691D01*
X-4048D01*
Y-69596D01*
X-4000D01*
Y-69500D01*
X-3952D01*
Y-69452D01*
X-3904D01*
Y-69356D01*
X-3856D01*
Y-69261D01*
X-3808D01*
Y-69213D01*
X-3761D01*
Y-69117D01*
X-3713D01*
Y-69021D01*
X-3665D01*
Y-68925D01*
X-3617D01*
Y-68878D01*
X-3569D01*
Y-68782D01*
X-3521D01*
Y-68686D01*
X-3473D01*
Y-68590D01*
X-3426D01*
Y-68543D01*
X-3378D01*
Y-68447D01*
X-3330D01*
Y-68351D01*
X-3282D01*
Y-68303D01*
X-3234D01*
Y-68207D01*
X-3186D01*
Y-68112D01*
X-3138D01*
Y-68016D01*
X-3090D01*
Y-67968D01*
X-3042D01*
Y-67872D01*
X-2995D01*
Y-67777D01*
X-2947D01*
Y-67681D01*
X-2899D01*
Y-67633D01*
X-2851D01*
Y-67537D01*
X-2803D01*
Y-67441D01*
X-2755D01*
Y-67346D01*
X-2708D01*
Y-67298D01*
X-2660D01*
Y-67202D01*
X-2612D01*
Y-67106D01*
X-2564D01*
Y-67058D01*
X-2516D01*
Y-66963D01*
X-2468D01*
Y-66867D01*
X-2420D01*
Y-66771D01*
X-2372D01*
Y-66723D01*
X-2324D01*
Y-66628D01*
X-2277D01*
Y-66532D01*
X-2229D01*
Y-66436D01*
X-2181D01*
Y-66388D01*
X-2133D01*
Y-66293D01*
X-2085D01*
Y-66197D01*
X-2037D01*
Y-66101D01*
X-1989D01*
Y-66053D01*
X-1942D01*
Y-65957D01*
X-1894D01*
Y-65862D01*
X-1846D01*
Y-65814D01*
X-1798D01*
Y-65718D01*
X-1750D01*
Y-65622D01*
X-1702D01*
Y-65527D01*
X-1654D01*
Y-65479D01*
X-1606D01*
Y-65383D01*
X-1558D01*
Y-65287D01*
X-1511D01*
Y-65192D01*
X-1463D01*
Y-65144D01*
X-1415D01*
Y-65048D01*
X-1367D01*
Y-64952D01*
X-1319D01*
Y-64856D01*
X-1271D01*
Y-64808D01*
X-1223D01*
Y-64713D01*
X-1175D01*
Y-64617D01*
X-1128D01*
Y-64569D01*
X-1080D01*
Y-64473D01*
X-1032D01*
Y-64378D01*
X-984D01*
Y-64282D01*
X-888D01*
Y-64378D01*
X-840D01*
Y-64425D01*
X-793D01*
Y-64521D01*
X-745D01*
Y-64617D01*
X-697D01*
Y-64713D01*
X-649D01*
Y-64761D01*
X-601D01*
Y-64856D01*
X-553D01*
Y-64952D01*
X-505D01*
Y-65048D01*
X-457D01*
Y-65096D01*
X-410D01*
Y-65192D01*
X-362D01*
Y-65287D01*
X-314D01*
Y-65335D01*
X-266D01*
Y-65431D01*
X-218D01*
Y-65527D01*
X-170D01*
Y-65622D01*
X-122D01*
Y-65670D01*
X-75D01*
Y-65766D01*
X-27D01*
Y-65862D01*
X21D01*
Y-65957D01*
X69D01*
Y-66005D01*
X117D01*
Y-66101D01*
X165D01*
Y-66197D01*
X213D01*
Y-66245D01*
X261D01*
Y-66340D01*
X308D01*
Y-66436D01*
X356D01*
Y-66532D01*
X404D01*
Y-66580D01*
X452D01*
Y-66676D01*
X500D01*
Y-66771D01*
X548D01*
Y-66867D01*
X596D01*
Y-66915D01*
X644D01*
Y-67011D01*
X691D01*
Y-67106D01*
X739D01*
Y-67202D01*
X787D01*
Y-67250D01*
X835D01*
Y-67346D01*
X883D01*
Y-67441D01*
X931D01*
Y-67489D01*
X979D01*
Y-67585D01*
X1027D01*
Y-67681D01*
X1075D01*
Y-67777D01*
X1122D01*
Y-67825D01*
X1170D01*
Y-67920D01*
X1218D01*
Y-68016D01*
X1266D01*
Y-68112D01*
X1314D01*
Y-68160D01*
X1362D01*
Y-68255D01*
X1410D01*
Y-68351D01*
X1457D01*
Y-68447D01*
X1505D01*
Y-68495D01*
X1553D01*
Y-68590D01*
X1601D01*
Y-68686D01*
X1649D01*
Y-68734D01*
X1697D01*
Y-68830D01*
X1745D01*
Y-68925D01*
X1792D01*
Y-69021D01*
X1840D01*
Y-69069D01*
X1888D01*
Y-69165D01*
X1936D01*
Y-69261D01*
X1984D01*
Y-69356D01*
X2032D01*
Y-69404D01*
X2080D01*
Y-69500D01*
X2128D01*
Y-69596D01*
X2176D01*
Y-69691D01*
X2223D01*
Y-69739D01*
X2271D01*
Y-69835D01*
X2319D01*
Y-69931D01*
X2367D01*
Y-69979D01*
X2415D01*
Y-70074D01*
X2463D01*
Y-70170D01*
X2511D01*
Y-70266D01*
X2558D01*
Y-70314D01*
X2606D01*
Y-70410D01*
X2654D01*
Y-70505D01*
X2702D01*
Y-70601D01*
X2750D01*
Y-70649D01*
X2798D01*
Y-70745D01*
X2846D01*
Y-70840D01*
X2894D01*
Y-70888D01*
X2942D01*
Y-70984D01*
X2989D01*
Y-71080D01*
X3037D01*
Y-71175D01*
X3085D01*
Y-71223D01*
X3133D01*
Y-71319D01*
X3181D01*
Y-71415D01*
X3229D01*
Y-71511D01*
X3277D01*
Y-71558D01*
X3325D01*
Y-71654D01*
X3372D01*
Y-71750D01*
X3420D01*
Y-71846D01*
X3468D01*
Y-71894D01*
X3516D01*
Y-71989D01*
X3564D01*
Y-72085D01*
X3612D01*
Y-72133D01*
X3660D01*
Y-72229D01*
X3708D01*
Y-72325D01*
X3755D01*
Y-72420D01*
X3803D01*
D02*
G37*
%LPD*%
D10*
X12106Y10728D02*
G03*
X12106Y10728I-492J0D01*
G01*
D12*
X7283Y-10039D02*
Y10039D01*
X-7283Y-10039D02*
Y10039D01*
X7283D01*
X-7283Y-10039D02*
X7283D01*
D13*
X-64736Y-33798D02*
X-64067Y-34028D01*
X-63629Y-34927D01*
X-63859Y-35595D01*
X-65656Y-36472D01*
X-66325Y-36242D01*
X-66763Y-35343D01*
X-66533Y-34675D01*
X-65634Y-34236D01*
X-65196Y-35135D01*
X-67420Y-33995D02*
X-64725Y-32681D01*
X-68297Y-32198D01*
X-65601Y-30884D01*
X-66040Y-29985D02*
X-68735Y-31300D01*
X-69392Y-29952D01*
X-69162Y-29284D01*
X-67365Y-28407D01*
X-66697Y-28637D01*
X-66040Y-29985D01*
X-70417Y-17283D02*
X-73340Y-17958D01*
X-72590Y-16759D01*
X-73789Y-16010D01*
X-70867Y-15335D01*
X-72500Y-1000D02*
X-74500D01*
X-75499Y0D01*
X-74500Y1000D01*
X-72500D01*
X-70867Y15335D02*
X-73302Y15897D01*
X-73677Y16497D01*
X-73452Y17471D01*
X-72852Y17845D01*
X-70417Y17283D01*
X-66259Y29536D02*
X-68056Y30412D01*
X-68516Y31749D01*
X-67179Y32209D01*
X-65382Y31333D01*
X-64517Y34247D02*
X-64287Y33579D01*
X-64725Y32681D01*
X-65393Y32451D01*
X-65842Y32670D01*
X-66072Y33338D01*
X-65634Y34236D01*
X-65864Y34905D01*
X-66314Y35124D01*
X-66982Y34894D01*
X-67420Y33995D01*
X-67190Y33327D01*
D98*
X4528Y6102D02*
G03*
X4528Y6102I-1181J0D01*
G01*
M02*
