G04*
G04 #@! TF.GenerationSoftware,Altium Limited,Altium Designer,21.5.1 (32)*
G04*
G04 Layer_Physical_Order=2*
G04 Layer_Color=36540*
%FSLAX25Y25*%
%MOIN*%
G70*
G04*
G04 #@! TF.SameCoordinates,9F226A22-D70E-441E-867E-09538FDFB880*
G04*
G04*
G04 #@! TF.FilePolarity,Positive*
G04*
G01*
G75*
%ADD89C,0.04921*%
%ADD90C,0.17500*%
%ADD91C,0.01772*%
%ADD92C,0.02400*%
%ADD93C,0.00787*%
%ADD94C,0.01200*%
G36*
X8780Y89148D02*
X14592Y88383D01*
X20341Y87239D01*
X26004Y85722D01*
X31554Y83838D01*
X36970Y81595D01*
X42228Y79002D01*
X47304Y76071D01*
X52178Y72815D01*
X56829Y69246D01*
X61236Y65381D01*
X65381Y61236D01*
X69246Y56829D01*
X72815Y52178D01*
X76071Y47304D01*
X79002Y42228D01*
X81595Y36970D01*
X83838Y31554D01*
X85722Y26004D01*
X87239Y20341D01*
X87341Y19830D01*
X86888Y19548D01*
X86822Y19598D01*
X86101Y19897D01*
X85327Y19999D01*
X79421D01*
X78647Y19897D01*
X77926Y19598D01*
X77306Y19123D01*
X76831Y18503D01*
X76532Y17782D01*
X76430Y17008D01*
X76532Y16234D01*
X76831Y15512D01*
X77306Y14893D01*
X77926Y14418D01*
X78647Y14119D01*
X79421Y14017D01*
X85327D01*
X86101Y14119D01*
X86822Y14418D01*
X87442Y14893D01*
X87737Y15278D01*
X88271Y15153D01*
X88383Y14592D01*
X89148Y8780D01*
X89532Y2931D01*
Y-0D01*
Y-2931D01*
X89148Y-8780D01*
X88383Y-14592D01*
X88271Y-15153D01*
X87737Y-15278D01*
X87442Y-14893D01*
X86822Y-14418D01*
X86101Y-14119D01*
X85327Y-14017D01*
X79421D01*
X78647Y-14119D01*
X77926Y-14418D01*
X77306Y-14893D01*
X76831Y-15512D01*
X76532Y-16234D01*
X76430Y-17008D01*
X76532Y-17782D01*
X76831Y-18503D01*
X77306Y-19123D01*
X77926Y-19598D01*
X78647Y-19897D01*
X79421Y-19999D01*
X85327D01*
X86101Y-19897D01*
X86822Y-19598D01*
X86888Y-19548D01*
X87341Y-19830D01*
X87239Y-20341D01*
X85722Y-26004D01*
X83838Y-31554D01*
X81595Y-36970D01*
X79002Y-42228D01*
X76071Y-47304D01*
X72815Y-52178D01*
X69246Y-56829D01*
X65381Y-61236D01*
X61236Y-65381D01*
X56829Y-69246D01*
X52178Y-72815D01*
X47304Y-76071D01*
X42228Y-79002D01*
X36970Y-81595D01*
X31554Y-83838D01*
X26004Y-85722D01*
X20341Y-87239D01*
X14592Y-88383D01*
X8780Y-89148D01*
X2931Y-89532D01*
X-2931D01*
X-8780Y-89148D01*
X-14592Y-88383D01*
X-20341Y-87239D01*
X-26004Y-85722D01*
X-31554Y-83838D01*
X-36970Y-81595D01*
X-42228Y-79002D01*
X-47304Y-76071D01*
X-52178Y-72815D01*
X-56829Y-69246D01*
X-61236Y-65381D01*
X-65381Y-61236D01*
X-69246Y-56829D01*
X-72815Y-52178D01*
X-76071Y-47304D01*
X-79002Y-42228D01*
X-81595Y-36970D01*
X-83838Y-31554D01*
X-85722Y-26004D01*
X-87239Y-20341D01*
X-88383Y-14592D01*
X-89148Y-8780D01*
X-89532Y-2931D01*
Y0D01*
Y2931D01*
X-89148Y8780D01*
X-88383Y14592D01*
X-87239Y20341D01*
X-85722Y26004D01*
X-83838Y31554D01*
X-81595Y36970D01*
X-79002Y42228D01*
X-76071Y47304D01*
X-72815Y52178D01*
X-69246Y56829D01*
X-65381Y61236D01*
X-61236Y65381D01*
X-56829Y69246D01*
X-52178Y72815D01*
X-47304Y76071D01*
X-42228Y79002D01*
X-36970Y81595D01*
X-31554Y83838D01*
X-26004Y85722D01*
X-20341Y87239D01*
X-14592Y88383D01*
X-8780Y89148D01*
X-2931Y89532D01*
X2931D01*
X8780Y89148D01*
D02*
G37*
%LPC*%
G36*
X15000Y82219D02*
X14342Y82088D01*
X13785Y81715D01*
X13412Y81158D01*
X13281Y80500D01*
X13412Y79842D01*
X13785Y79285D01*
X14342Y78912D01*
X15000Y78781D01*
X15658Y78912D01*
X16215Y79285D01*
X16588Y79842D01*
X16719Y80500D01*
X16588Y81158D01*
X16215Y81715D01*
X15658Y82088D01*
X15000Y82219D01*
D02*
G37*
G36*
X20000Y67219D02*
X19342Y67088D01*
X18785Y66715D01*
X18412Y66158D01*
X18281Y65500D01*
X18412Y64842D01*
X18785Y64285D01*
X19342Y63912D01*
X20000Y63781D01*
X20658Y63912D01*
X21215Y64285D01*
X21588Y64842D01*
X21719Y65500D01*
X21588Y66158D01*
X21215Y66715D01*
X20658Y67088D01*
X20000Y67219D01*
D02*
G37*
G36*
X-4000Y67289D02*
X-4851Y67177D01*
X-5644Y66848D01*
X-6325Y66325D01*
X-6848Y65644D01*
X-7177Y64851D01*
X-7289Y64000D01*
X-7177Y63149D01*
X-6848Y62356D01*
X-6325Y61674D01*
X-5644Y61152D01*
X-4851Y60823D01*
X-4000Y60711D01*
X-3149Y60823D01*
X-2356Y61152D01*
X-1674Y61674D01*
X-1152Y62356D01*
X-823Y63149D01*
X-711Y64000D01*
X-823Y64851D01*
X-1152Y65644D01*
X-1674Y66325D01*
X-2356Y66848D01*
X-3149Y67177D01*
X-4000Y67289D01*
D02*
G37*
G36*
X-14000D02*
X-14851Y67177D01*
X-15644Y66848D01*
X-16326Y66325D01*
X-16848Y65644D01*
X-17177Y64851D01*
X-17289Y64000D01*
X-17177Y63149D01*
X-16848Y62356D01*
X-16326Y61674D01*
X-15644Y61152D01*
X-14851Y60823D01*
X-14000Y60711D01*
X-13149Y60823D01*
X-12356Y61152D01*
X-11675Y61674D01*
X-11152Y62356D01*
X-10823Y63149D01*
X-10711Y64000D01*
X-10823Y64851D01*
X-11152Y65644D01*
X-11675Y66325D01*
X-12356Y66848D01*
X-13149Y67177D01*
X-14000Y67289D01*
D02*
G37*
G36*
X-24000D02*
X-24851Y67177D01*
X-25644Y66848D01*
X-26326Y66325D01*
X-26848Y65644D01*
X-27177Y64851D01*
X-27289Y64000D01*
X-27177Y63149D01*
X-26848Y62356D01*
X-26326Y61674D01*
X-25644Y61152D01*
X-24851Y60823D01*
X-24000Y60711D01*
X-23149Y60823D01*
X-22356Y61152D01*
X-21675Y61674D01*
X-21152Y62356D01*
X-20823Y63149D01*
X-20711Y64000D01*
X-20823Y64851D01*
X-21152Y65644D01*
X-21675Y66325D01*
X-22356Y66848D01*
X-23149Y67177D01*
X-24000Y67289D01*
D02*
G37*
G36*
X15500Y62719D02*
X14842Y62588D01*
X14285Y62215D01*
X13912Y61658D01*
X13781Y61000D01*
X13912Y60342D01*
X14285Y59785D01*
X14842Y59412D01*
X15500Y59281D01*
X16158Y59412D01*
X16715Y59785D01*
X17088Y60342D01*
X17219Y61000D01*
X17088Y61658D01*
X16715Y62215D01*
X16158Y62588D01*
X15500Y62719D01*
D02*
G37*
G36*
X29500Y48219D02*
X28842Y48088D01*
X28285Y47715D01*
X27912Y47158D01*
X27781Y46500D01*
X27912Y45842D01*
X28285Y45285D01*
X28842Y44912D01*
X29500Y44781D01*
X30158Y44912D01*
X30715Y45285D01*
X31088Y45842D01*
X31219Y46500D01*
X31088Y47158D01*
X30715Y47715D01*
X30158Y48088D01*
X29500Y48219D01*
D02*
G37*
G36*
X57500Y45219D02*
X56842Y45088D01*
X56285Y44715D01*
X55912Y44158D01*
X55781Y43500D01*
X55912Y42842D01*
X56285Y42285D01*
X56842Y41912D01*
X57500Y41781D01*
X58158Y41912D01*
X58715Y42285D01*
X59088Y42842D01*
X59219Y43500D01*
X59088Y44158D01*
X58715Y44715D01*
X58158Y45088D01*
X57500Y45219D01*
D02*
G37*
G36*
X31000Y44219D02*
X30342Y44088D01*
X29785Y43715D01*
X29412Y43158D01*
X29281Y42500D01*
X29412Y41842D01*
X29785Y41285D01*
X30342Y40912D01*
X31000Y40781D01*
X31658Y40912D01*
X32215Y41285D01*
X32588Y41842D01*
X32719Y42500D01*
X32588Y43158D01*
X32215Y43715D01*
X31658Y44088D01*
X31000Y44219D01*
D02*
G37*
G36*
X-76413Y43077D02*
X-76959Y42968D01*
X-77422Y42659D01*
X-77731Y42195D01*
X-77840Y41649D01*
X-77731Y41103D01*
X-77422Y40640D01*
X-76959Y40330D01*
X-76413Y40222D01*
X-75866Y40330D01*
X-75403Y40640D01*
X-75094Y41103D01*
X-74985Y41649D01*
X-75094Y42195D01*
X-75403Y42659D01*
X-75866Y42968D01*
X-76413Y43077D01*
D02*
G37*
G36*
X38500Y42219D02*
X37842Y42088D01*
X37285Y41715D01*
X36912Y41158D01*
X36781Y40500D01*
X36912Y39842D01*
X37285Y39285D01*
X37842Y38912D01*
X38500Y38781D01*
X39158Y38912D01*
X39715Y39285D01*
X40088Y39842D01*
X40219Y40500D01*
X40088Y41158D01*
X39715Y41715D01*
X39158Y42088D01*
X38500Y42219D01*
D02*
G37*
G36*
X-72874Y41351D02*
X-73420Y41242D01*
X-73883Y40933D01*
X-74193Y40470D01*
X-74301Y39923D01*
X-74193Y39377D01*
X-73883Y38914D01*
X-73420Y38605D01*
X-72874Y38496D01*
X-72328Y38605D01*
X-71865Y38914D01*
X-71555Y39377D01*
X-71447Y39923D01*
X-71555Y40470D01*
X-71865Y40933D01*
X-72328Y41242D01*
X-72874Y41351D01*
D02*
G37*
G36*
X-60500Y42039D02*
X-61280Y41884D01*
X-61942Y41442D01*
X-62384Y40780D01*
X-62539Y40000D01*
X-62384Y39220D01*
X-61942Y38558D01*
X-61280Y38116D01*
X-60500Y37961D01*
X-59720Y38116D01*
X-59058Y38558D01*
X-58616Y39220D01*
X-58461Y40000D01*
X-58616Y40780D01*
X-59058Y41442D01*
X-59720Y41884D01*
X-60500Y42039D01*
D02*
G37*
G36*
X-50500Y41539D02*
X-51280Y41384D01*
X-51942Y40942D01*
X-52384Y40280D01*
X-52539Y39500D01*
X-52384Y38720D01*
X-51942Y38058D01*
X-51280Y37616D01*
X-50500Y37461D01*
X-49720Y37616D01*
X-49058Y38058D01*
X-48616Y38720D01*
X-48461Y39500D01*
X-48616Y40280D01*
X-49058Y40942D01*
X-49720Y41384D01*
X-50500Y41539D01*
D02*
G37*
G36*
X-69336Y39625D02*
X-69882Y39516D01*
X-70345Y39207D01*
X-70654Y38744D01*
X-70763Y38197D01*
X-70654Y37651D01*
X-70345Y37188D01*
X-69882Y36879D01*
X-69336Y36770D01*
X-68789Y36879D01*
X-68326Y37188D01*
X-68017Y37651D01*
X-67908Y38197D01*
X-68017Y38744D01*
X-68326Y39207D01*
X-68789Y39516D01*
X-69336Y39625D01*
D02*
G37*
G36*
X-78139Y39538D02*
X-78685Y39430D01*
X-79148Y39120D01*
X-79457Y38657D01*
X-79566Y38111D01*
X-79457Y37564D01*
X-79148Y37101D01*
X-78685Y36792D01*
X-78139Y36683D01*
X-77592Y36792D01*
X-77129Y37101D01*
X-76820Y37564D01*
X-76711Y38111D01*
X-76820Y38657D01*
X-77129Y39120D01*
X-77592Y39430D01*
X-78139Y39538D01*
D02*
G37*
G36*
X-12000Y40039D02*
X-12780Y39884D01*
X-13442Y39442D01*
X-13884Y38780D01*
X-14039Y38000D01*
X-13884Y37220D01*
X-13442Y36558D01*
X-12780Y36116D01*
X-12000Y35961D01*
X-11220Y36116D01*
X-10558Y36558D01*
X-10116Y37220D01*
X-9961Y38000D01*
X-10116Y38780D01*
X-10558Y39442D01*
X-11220Y39884D01*
X-12000Y40039D01*
D02*
G37*
G36*
X-18500D02*
X-19280Y39884D01*
X-19942Y39442D01*
X-20384Y38780D01*
X-20539Y38000D01*
X-20384Y37220D01*
X-19942Y36558D01*
X-19280Y36116D01*
X-18500Y35961D01*
X-17720Y36116D01*
X-17058Y36558D01*
X-16616Y37220D01*
X-16461Y38000D01*
X-16616Y38780D01*
X-17058Y39442D01*
X-17720Y39884D01*
X-18500Y40039D01*
D02*
G37*
G36*
X-74600Y37812D02*
X-75146Y37704D01*
X-75609Y37394D01*
X-75919Y36931D01*
X-76027Y36385D01*
X-75919Y35839D01*
X-75609Y35375D01*
X-75146Y35066D01*
X-74600Y34957D01*
X-74054Y35066D01*
X-73590Y35375D01*
X-73281Y35839D01*
X-73172Y36385D01*
X-73281Y36931D01*
X-73590Y37394D01*
X-74054Y37704D01*
X-74600Y37812D01*
D02*
G37*
G36*
X-46500Y38039D02*
X-47280Y37884D01*
X-47942Y37442D01*
X-48384Y36780D01*
X-48539Y36000D01*
X-48384Y35220D01*
X-47942Y34558D01*
X-47280Y34116D01*
X-46500Y33961D01*
X-45720Y34116D01*
X-45058Y34558D01*
X-44616Y35220D01*
X-44461Y36000D01*
X-44616Y36780D01*
X-45058Y37442D01*
X-45720Y37884D01*
X-46500Y38039D01*
D02*
G37*
G36*
X-62000Y37539D02*
X-62780Y37384D01*
X-63442Y36942D01*
X-63884Y36280D01*
X-64039Y35500D01*
X-63884Y34720D01*
X-63442Y34058D01*
X-63186Y33887D01*
X-63381Y33416D01*
X-64000Y33539D01*
X-64780Y33384D01*
X-65442Y32942D01*
X-65884Y32280D01*
X-66039Y31500D01*
X-65884Y30720D01*
X-65442Y30058D01*
X-64780Y29616D01*
X-64000Y29461D01*
X-63220Y29616D01*
X-62558Y30058D01*
X-62116Y30720D01*
X-61961Y31500D01*
X-62116Y32280D01*
X-62558Y32942D01*
X-62814Y33113D01*
X-62619Y33584D01*
X-62000Y33461D01*
X-61220Y33616D01*
X-60558Y34058D01*
X-60116Y34720D01*
X-59961Y35500D01*
X-60116Y36280D01*
X-60558Y36942D01*
X-61220Y37384D01*
X-62000Y37539D01*
D02*
G37*
G36*
X-71061Y36086D02*
X-71608Y35978D01*
X-72071Y35668D01*
X-72380Y35205D01*
X-72489Y34659D01*
X-72380Y34113D01*
X-72071Y33650D01*
X-71608Y33340D01*
X-71061Y33231D01*
X-70515Y33340D01*
X-70052Y33650D01*
X-69743Y34113D01*
X-69634Y34659D01*
X-69743Y35205D01*
X-70052Y35668D01*
X-70515Y35978D01*
X-71061Y36086D01*
D02*
G37*
G36*
X13000Y36219D02*
X12342Y36088D01*
X11785Y35715D01*
X11412Y35158D01*
X11281Y34500D01*
X11412Y33842D01*
X11563Y33617D01*
X11262Y33167D01*
X11000Y33219D01*
X10342Y33088D01*
X9785Y32715D01*
X9412Y32158D01*
X9281Y31500D01*
X9412Y30842D01*
X9785Y30285D01*
X10342Y29912D01*
X11000Y29781D01*
X11658Y29912D01*
X12215Y30285D01*
X12588Y30842D01*
X12719Y31500D01*
X12588Y32158D01*
X12437Y32383D01*
X12738Y32833D01*
X13000Y32781D01*
X13658Y32912D01*
X14215Y33285D01*
X14588Y33842D01*
X14719Y34500D01*
X14588Y35158D01*
X14215Y35715D01*
X13658Y36088D01*
X13000Y36219D01*
D02*
G37*
G36*
X-79864Y36000D02*
X-80411Y35891D01*
X-80874Y35581D01*
X-81183Y35118D01*
X-81292Y34572D01*
X-81183Y34026D01*
X-80874Y33563D01*
X-80411Y33253D01*
X-79864Y33145D01*
X-79318Y33253D01*
X-78855Y33563D01*
X-78546Y34026D01*
X-78437Y34572D01*
X-78546Y35118D01*
X-78855Y35581D01*
X-79318Y35891D01*
X-79864Y36000D01*
D02*
G37*
G36*
X-76326Y34274D02*
X-76872Y34165D01*
X-77335Y33856D01*
X-77644Y33393D01*
X-77753Y32846D01*
X-77644Y32300D01*
X-77335Y31837D01*
X-76872Y31528D01*
X-76326Y31419D01*
X-75779Y31528D01*
X-75316Y31837D01*
X-75007Y32300D01*
X-74898Y32846D01*
X-75007Y33393D01*
X-75316Y33856D01*
X-75779Y34165D01*
X-76326Y34274D01*
D02*
G37*
G36*
X-72787Y32548D02*
X-73334Y32439D01*
X-73797Y32130D01*
X-74106Y31667D01*
X-74215Y31120D01*
X-74106Y30574D01*
X-73797Y30111D01*
X-73334Y29802D01*
X-72787Y29693D01*
X-72241Y29802D01*
X-71778Y30111D01*
X-71468Y30574D01*
X-71360Y31120D01*
X-71468Y31667D01*
X-71778Y32130D01*
X-72241Y32439D01*
X-72787Y32548D01*
D02*
G37*
G36*
X59000Y27539D02*
X58220Y27384D01*
X57558Y26942D01*
X57300Y26556D01*
X56700D01*
X56442Y26942D01*
X55780Y27384D01*
X55000Y27539D01*
X54220Y27384D01*
X53558Y26942D01*
X53116Y26280D01*
X52961Y25500D01*
X53116Y24720D01*
X53558Y24058D01*
X54220Y23616D01*
X55000Y23461D01*
X55780Y23616D01*
X56442Y24058D01*
X56700Y24444D01*
X57300D01*
X57558Y24058D01*
X58220Y23616D01*
X59000Y23461D01*
X59780Y23616D01*
X60442Y24058D01*
X60884Y24720D01*
X61039Y25500D01*
X60884Y26280D01*
X60442Y26942D01*
X59780Y27384D01*
X59000Y27539D01*
D02*
G37*
G36*
X-65500Y29039D02*
X-66280Y28884D01*
X-66942Y28442D01*
X-67384Y27780D01*
X-67539Y27000D01*
X-67384Y26220D01*
X-66942Y25558D01*
X-66280Y25116D01*
X-65500Y24961D01*
X-64720Y25116D01*
X-64058Y25558D01*
X-63616Y26220D01*
X-63461Y27000D01*
X-63616Y27780D01*
X-64058Y28442D01*
X-64720Y28884D01*
X-65500Y29039D01*
D02*
G37*
G36*
X-46000Y32539D02*
X-46780Y32384D01*
X-47442Y31942D01*
X-47884Y31280D01*
X-48039Y30500D01*
X-47884Y29720D01*
X-47442Y29058D01*
X-47398Y29029D01*
X-47471Y28680D01*
X-47550Y28529D01*
X-48280Y28384D01*
X-48942Y27942D01*
X-49384Y27280D01*
X-49539Y26500D01*
X-49384Y25720D01*
X-48942Y25058D01*
X-48280Y24616D01*
X-47500Y24461D01*
X-46720Y24616D01*
X-46058Y25058D01*
X-45616Y25720D01*
X-45461Y26500D01*
X-45616Y27280D01*
X-46058Y27942D01*
X-46102Y27971D01*
X-46029Y28320D01*
X-45950Y28471D01*
X-45220Y28616D01*
X-44558Y29058D01*
X-44116Y29720D01*
X-43961Y30500D01*
X-44116Y31280D01*
X-44558Y31942D01*
X-45220Y32384D01*
X-46000Y32539D01*
D02*
G37*
G36*
X35500Y27719D02*
X34842Y27588D01*
X34285Y27215D01*
X33912Y26658D01*
X33781Y26000D01*
X33912Y25342D01*
X34285Y24785D01*
X34842Y24412D01*
X35500Y24281D01*
X36158Y24412D01*
X36715Y24785D01*
X37088Y25342D01*
X37219Y26000D01*
X37088Y26658D01*
X36715Y27215D01*
X36158Y27588D01*
X35500Y27719D01*
D02*
G37*
G36*
X-83823Y24820D02*
X-84369Y24711D01*
X-84833Y24402D01*
X-85142Y23939D01*
X-85251Y23393D01*
X-85142Y22846D01*
X-84833Y22383D01*
X-84369Y22074D01*
X-83823Y21965D01*
X-83277Y22074D01*
X-82814Y22383D01*
X-82504Y22846D01*
X-82396Y23393D01*
X-82504Y23939D01*
X-82814Y24402D01*
X-83277Y24711D01*
X-83823Y24820D01*
D02*
G37*
G36*
X-79987Y23934D02*
X-80533Y23826D01*
X-80996Y23516D01*
X-81306Y23053D01*
X-81415Y22507D01*
X-81306Y21961D01*
X-80996Y21498D01*
X-80533Y21188D01*
X-79987Y21080D01*
X-79441Y21188D01*
X-78978Y21498D01*
X-78668Y21961D01*
X-78560Y22507D01*
X-78668Y23053D01*
X-78978Y23516D01*
X-79441Y23826D01*
X-79987Y23934D01*
D02*
G37*
G36*
X28000Y23719D02*
X27342Y23588D01*
X26785Y23215D01*
X26412Y22658D01*
X26281Y22000D01*
X26412Y21342D01*
X26785Y20785D01*
X27342Y20412D01*
X28000Y20281D01*
X28658Y20412D01*
X29215Y20785D01*
X29588Y21342D01*
X29719Y22000D01*
X29588Y22658D01*
X29215Y23215D01*
X28658Y23588D01*
X28000Y23719D01*
D02*
G37*
G36*
X-76151Y23049D02*
X-76697Y22940D01*
X-77160Y22631D01*
X-77470Y22168D01*
X-77578Y21621D01*
X-77470Y21075D01*
X-77160Y20612D01*
X-76697Y20303D01*
X-76151Y20194D01*
X-75605Y20303D01*
X-75142Y20612D01*
X-74832Y21075D01*
X-74724Y21621D01*
X-74832Y22168D01*
X-75142Y22631D01*
X-75605Y22940D01*
X-76151Y23049D01*
D02*
G37*
G36*
X-36000Y34123D02*
X-36780Y33968D01*
X-37442Y33525D01*
X-37884Y32864D01*
X-38039Y32083D01*
X-37884Y31303D01*
X-37689Y31011D01*
X-37919Y30456D01*
X-38280Y30384D01*
X-38942Y29942D01*
X-39384Y29280D01*
X-39539Y28500D01*
X-39384Y27720D01*
X-38942Y27058D01*
X-38855Y27000D01*
Y26500D01*
X-38942Y26442D01*
X-39384Y25780D01*
X-39539Y25000D01*
X-39384Y24220D01*
X-38942Y23558D01*
X-38855Y23500D01*
Y23000D01*
X-38942Y22942D01*
X-39384Y22280D01*
X-39539Y21500D01*
X-39384Y20720D01*
X-38942Y20058D01*
X-38280Y19616D01*
X-37500Y19461D01*
X-36720Y19616D01*
X-36058Y20058D01*
X-35616Y20720D01*
X-35461Y21500D01*
X-35616Y22280D01*
X-36058Y22942D01*
X-36145Y23000D01*
Y23500D01*
X-36058Y23558D01*
X-35616Y24220D01*
X-35461Y25000D01*
X-35616Y25780D01*
X-36058Y26442D01*
X-36145Y26500D01*
Y27000D01*
X-36058Y27058D01*
X-35616Y27720D01*
X-35461Y28500D01*
X-35616Y29280D01*
X-35811Y29572D01*
X-35581Y30128D01*
X-35220Y30200D01*
X-34558Y30642D01*
X-34116Y31303D01*
X-33961Y32083D01*
X-34116Y32864D01*
X-34558Y33525D01*
X-35220Y33968D01*
X-36000Y34123D01*
D02*
G37*
G36*
X49500Y22719D02*
X48842Y22588D01*
X48285Y22215D01*
X47912Y21658D01*
X47781Y21000D01*
X47912Y20342D01*
X48285Y19785D01*
X48842Y19412D01*
X49500Y19281D01*
X50158Y19412D01*
X50715Y19785D01*
X51088Y20342D01*
X51219Y21000D01*
X51088Y21658D01*
X50715Y22215D01*
X50158Y22588D01*
X49500Y22719D01*
D02*
G37*
G36*
X-84709Y20984D02*
X-85255Y20875D01*
X-85718Y20566D01*
X-86028Y20103D01*
X-86136Y19557D01*
X-86028Y19010D01*
X-85718Y18547D01*
X-85255Y18238D01*
X-84709Y18129D01*
X-84163Y18238D01*
X-83700Y18547D01*
X-83390Y19010D01*
X-83281Y19557D01*
X-83390Y20103D01*
X-83700Y20566D01*
X-84163Y20875D01*
X-84709Y20984D01*
D02*
G37*
G36*
X63240Y19999D02*
X59303D01*
X58529Y19897D01*
X57808Y19598D01*
X57188Y19123D01*
X56713Y18503D01*
X56534Y18071D01*
X55957Y17893D01*
X55946Y17895D01*
X55658Y18088D01*
X55000Y18219D01*
X54342Y18088D01*
X53785Y17715D01*
X53412Y17158D01*
X53281Y16500D01*
X53412Y15842D01*
X53785Y15285D01*
X54342Y14912D01*
X55000Y14781D01*
X55658Y14912D01*
X56215Y15285D01*
X56273Y15370D01*
X56850Y15334D01*
X57188Y14893D01*
X57808Y14418D01*
X58529Y14119D01*
X59303Y14017D01*
X63240D01*
X64014Y14119D01*
X64736Y14418D01*
X65355Y14893D01*
X65830Y15512D01*
X66129Y16234D01*
X66231Y17008D01*
X66129Y17782D01*
X65830Y18503D01*
X65355Y19123D01*
X64736Y19598D01*
X64014Y19897D01*
X63240Y19999D01*
D02*
G37*
G36*
X-80873Y20098D02*
X-81419Y19990D01*
X-81882Y19680D01*
X-82191Y19217D01*
X-82300Y18671D01*
X-82191Y18125D01*
X-81882Y17662D01*
X-81419Y17352D01*
X-80873Y17244D01*
X-80326Y17352D01*
X-79863Y17662D01*
X-79554Y18125D01*
X-79445Y18671D01*
X-79554Y19217D01*
X-79863Y19680D01*
X-80326Y19990D01*
X-80873Y20098D01*
D02*
G37*
G36*
X-77037Y19213D02*
X-77583Y19104D01*
X-78046Y18795D01*
X-78355Y18332D01*
X-78464Y17785D01*
X-78355Y17239D01*
X-78046Y16776D01*
X-77583Y16466D01*
X-77037Y16358D01*
X-76490Y16466D01*
X-76027Y16776D01*
X-75718Y17239D01*
X-75609Y17785D01*
X-75718Y18332D01*
X-76027Y18795D01*
X-76490Y19104D01*
X-77037Y19213D01*
D02*
G37*
G36*
X43000Y21219D02*
X42342Y21088D01*
X41785Y20715D01*
X41412Y20158D01*
X41281Y19500D01*
X41349Y19159D01*
X41003Y18723D01*
X40967Y18712D01*
X40342Y18588D01*
X39785Y18215D01*
X39412Y17658D01*
X39281Y17000D01*
X39412Y16342D01*
X39785Y15785D01*
X40342Y15412D01*
X41000Y15281D01*
X41658Y15412D01*
X42215Y15785D01*
X42588Y16342D01*
X42719Y17000D01*
X42651Y17341D01*
X42997Y17777D01*
X43033Y17788D01*
X43658Y17912D01*
X44215Y18285D01*
X44588Y18842D01*
X44719Y19500D01*
X44588Y20158D01*
X44215Y20715D01*
X43658Y21088D01*
X43000Y21219D01*
D02*
G37*
G36*
X-85594Y17148D02*
X-86141Y17039D01*
X-86604Y16730D01*
X-86913Y16267D01*
X-87022Y15721D01*
X-86913Y15174D01*
X-86604Y14711D01*
X-86141Y14402D01*
X-85594Y14293D01*
X-85048Y14402D01*
X-84585Y14711D01*
X-84276Y15174D01*
X-84167Y15721D01*
X-84276Y16267D01*
X-84585Y16730D01*
X-85048Y17039D01*
X-85594Y17148D01*
D02*
G37*
G36*
X-81758Y16262D02*
X-82305Y16154D01*
X-82768Y15844D01*
X-83077Y15381D01*
X-83186Y14835D01*
X-83077Y14289D01*
X-82768Y13826D01*
X-82305Y13516D01*
X-81758Y13407D01*
X-81212Y13516D01*
X-80749Y13826D01*
X-80440Y14289D01*
X-80331Y14835D01*
X-80440Y15381D01*
X-80749Y15844D01*
X-81212Y16154D01*
X-81758Y16262D01*
D02*
G37*
G36*
X-3000Y16719D02*
X-3658Y16588D01*
X-4215Y16215D01*
X-4588Y15658D01*
X-4719Y15000D01*
X-4588Y14342D01*
X-4215Y13785D01*
X-3658Y13412D01*
X-3000Y13281D01*
X-2342Y13412D01*
X-1785Y13785D01*
X-1412Y14342D01*
X-1281Y15000D01*
X-1412Y15658D01*
X-1785Y16215D01*
X-2342Y16588D01*
X-3000Y16719D01*
D02*
G37*
G36*
X-77922Y15377D02*
X-78469Y15268D01*
X-78932Y14958D01*
X-79241Y14495D01*
X-79350Y13949D01*
X-79241Y13403D01*
X-78932Y12940D01*
X-78469Y12630D01*
X-77922Y12522D01*
X-77376Y12630D01*
X-76913Y12940D01*
X-76604Y13403D01*
X-76495Y13949D01*
X-76604Y14495D01*
X-76913Y14958D01*
X-77376Y15268D01*
X-77922Y15377D01*
D02*
G37*
G36*
X16000Y15719D02*
X15342Y15588D01*
X14785Y15215D01*
X14412Y14658D01*
X14281Y14000D01*
X14412Y13342D01*
X14785Y12785D01*
X15342Y12412D01*
X16000Y12281D01*
X16658Y12412D01*
X17215Y12785D01*
X17588Y13342D01*
X17719Y14000D01*
X17588Y14658D01*
X17215Y15215D01*
X16658Y15588D01*
X16000Y15719D01*
D02*
G37*
G36*
X-2000Y12219D02*
X-2658Y12088D01*
X-3215Y11715D01*
X-3588Y11158D01*
X-3719Y10500D01*
X-3588Y9842D01*
X-3215Y9285D01*
X-2658Y8912D01*
X-2000Y8781D01*
X-1342Y8912D01*
X-785Y9285D01*
X-412Y9842D01*
X-281Y10500D01*
X-412Y11158D01*
X-785Y11715D01*
X-1342Y12088D01*
X-2000Y12219D01*
D02*
G37*
G36*
X56500Y10147D02*
X55842Y10016D01*
X55285Y9643D01*
X54912Y9086D01*
X54781Y8428D01*
X54912Y7770D01*
X55285Y7212D01*
X55842Y6840D01*
X56500Y6709D01*
X57158Y6840D01*
X57715Y7212D01*
X58088Y7770D01*
X58219Y8428D01*
X58088Y9086D01*
X57715Y9643D01*
X57158Y10016D01*
X56500Y10147D01*
D02*
G37*
G36*
X500Y6219D02*
X-158Y6088D01*
X-715Y5715D01*
X-1088Y5158D01*
X-1219Y4500D01*
X-1088Y3842D01*
X-715Y3285D01*
X-158Y2912D01*
X500Y2781D01*
X1158Y2912D01*
X1715Y3285D01*
X2088Y3842D01*
X2219Y4500D01*
X2088Y5158D01*
X1715Y5715D01*
X1158Y6088D01*
X500Y6219D01*
D02*
G37*
G36*
X56469Y6173D02*
X55811Y6042D01*
X55253Y5669D01*
X54881Y5111D01*
X54750Y4454D01*
X54881Y3796D01*
X55253Y3238D01*
X55811Y2866D01*
X56469Y2735D01*
X57126Y2866D01*
X57684Y3238D01*
X58057Y3796D01*
X58188Y4454D01*
X58057Y5111D01*
X57684Y5669D01*
X57126Y6042D01*
X56469Y6173D01*
D02*
G37*
G36*
X-79063Y5364D02*
X-79609Y5256D01*
X-80072Y4946D01*
X-80382Y4483D01*
X-80490Y3937D01*
X-80382Y3391D01*
X-80072Y2928D01*
X-79609Y2618D01*
X-79063Y2510D01*
X-78517Y2618D01*
X-78054Y2928D01*
X-77744Y3391D01*
X-77636Y3937D01*
X-77744Y4483D01*
X-78054Y4946D01*
X-78517Y5256D01*
X-79063Y5364D01*
D02*
G37*
G36*
X-83000D02*
X-83546Y5256D01*
X-84009Y4946D01*
X-84319Y4483D01*
X-84427Y3937D01*
X-84319Y3391D01*
X-84009Y2928D01*
X-83546Y2618D01*
X-83000Y2510D01*
X-82454Y2618D01*
X-81991Y2928D01*
X-81681Y3391D01*
X-81573Y3937D01*
X-81681Y4483D01*
X-81991Y4946D01*
X-82454Y5256D01*
X-83000Y5364D01*
D02*
G37*
G36*
X-86937D02*
X-87483Y5256D01*
X-87946Y4946D01*
X-88256Y4483D01*
X-88364Y3937D01*
X-88256Y3391D01*
X-87946Y2928D01*
X-87483Y2618D01*
X-86937Y2510D01*
X-86391Y2618D01*
X-85928Y2928D01*
X-85618Y3391D01*
X-85510Y3937D01*
X-85618Y4483D01*
X-85928Y4946D01*
X-86391Y5256D01*
X-86937Y5364D01*
D02*
G37*
G36*
X68000Y5219D02*
X67342Y5088D01*
X66785Y4715D01*
X66412Y4158D01*
X66281Y3500D01*
X66412Y2842D01*
X66770Y2307D01*
X66836Y2173D01*
Y1827D01*
X66770Y1693D01*
X66412Y1158D01*
X66281Y500D01*
X66412Y-158D01*
X66785Y-715D01*
X67342Y-1088D01*
X68000Y-1219D01*
X68658Y-1088D01*
X69215Y-715D01*
X69588Y-158D01*
X69719Y500D01*
X69588Y1158D01*
X69230Y1693D01*
X69164Y1827D01*
Y2173D01*
X69230Y2307D01*
X69588Y2842D01*
X69719Y3500D01*
X69588Y4158D01*
X69215Y4715D01*
X68658Y5088D01*
X68000Y5219D01*
D02*
G37*
G36*
X-79063Y1427D02*
X-79609Y1319D01*
X-80072Y1009D01*
X-80382Y546D01*
X-80490Y0D01*
X-80382Y-546D01*
X-80072Y-1009D01*
X-79609Y-1319D01*
X-79063Y-1427D01*
X-78517Y-1319D01*
X-78054Y-1009D01*
X-77744Y-546D01*
X-77636Y0D01*
X-77744Y546D01*
X-78054Y1009D01*
X-78517Y1319D01*
X-79063Y1427D01*
D02*
G37*
G36*
X-83000D02*
X-83546Y1319D01*
X-84009Y1009D01*
X-84319Y546D01*
X-84427Y0D01*
X-84319Y-546D01*
X-84009Y-1009D01*
X-83546Y-1319D01*
X-83000Y-1427D01*
X-82454Y-1319D01*
X-81991Y-1009D01*
X-81681Y-546D01*
X-81573Y0D01*
X-81681Y546D01*
X-81991Y1009D01*
X-82454Y1319D01*
X-83000Y1427D01*
D02*
G37*
G36*
X-86937D02*
X-87483Y1319D01*
X-87946Y1009D01*
X-88256Y546D01*
X-88364Y0D01*
X-88256Y-546D01*
X-87946Y-1009D01*
X-87483Y-1319D01*
X-86937Y-1427D01*
X-86391Y-1319D01*
X-85928Y-1009D01*
X-85618Y-546D01*
X-85510Y0D01*
X-85618Y546D01*
X-85928Y1009D01*
X-86391Y1319D01*
X-86937Y1427D01*
D02*
G37*
G36*
X57000Y719D02*
X56342Y588D01*
X55785Y215D01*
X55412Y-342D01*
X55281Y-1000D01*
X55412Y-1658D01*
X55785Y-2215D01*
X56342Y-2588D01*
X57000Y-2719D01*
X57658Y-2588D01*
X58215Y-2215D01*
X58588Y-1658D01*
X58719Y-1000D01*
X58588Y-342D01*
X58215Y215D01*
X57658Y588D01*
X57000Y719D01*
D02*
G37*
G36*
X53000Y1719D02*
X52342Y1588D01*
X51785Y1215D01*
X51412Y658D01*
X51281Y0D01*
X51412Y-658D01*
X51749Y-1163D01*
X51241Y-1502D01*
X50868Y-2060D01*
X50788Y-2467D01*
X50713Y-2724D01*
X50250Y-2831D01*
X50000Y-2781D01*
X49342Y-2912D01*
X48785Y-3285D01*
X48412Y-3842D01*
X48281Y-4500D01*
X48412Y-5158D01*
X48785Y-5715D01*
X49342Y-6088D01*
X50000Y-6219D01*
X50658Y-6088D01*
X51215Y-5715D01*
X51588Y-5158D01*
X51669Y-4751D01*
X51744Y-4494D01*
X52206Y-4387D01*
X52456Y-4437D01*
X53114Y-4306D01*
X53672Y-3933D01*
X54044Y-3376D01*
X54175Y-2718D01*
X54044Y-2060D01*
X53707Y-1555D01*
X54215Y-1215D01*
X54588Y-658D01*
X54719Y0D01*
X54588Y658D01*
X54215Y1215D01*
X53658Y1588D01*
X53000Y1719D01*
D02*
G37*
G36*
X-79063Y-2510D02*
X-79609Y-2618D01*
X-80072Y-2928D01*
X-80382Y-3391D01*
X-80490Y-3937D01*
X-80382Y-4483D01*
X-80072Y-4946D01*
X-79609Y-5256D01*
X-79063Y-5364D01*
X-78517Y-5256D01*
X-78054Y-4946D01*
X-77744Y-4483D01*
X-77636Y-3937D01*
X-77744Y-3391D01*
X-78054Y-2928D01*
X-78517Y-2618D01*
X-79063Y-2510D01*
D02*
G37*
G36*
X-83000D02*
X-83546Y-2618D01*
X-84009Y-2928D01*
X-84319Y-3391D01*
X-84427Y-3937D01*
X-84319Y-4483D01*
X-84009Y-4946D01*
X-83546Y-5256D01*
X-83000Y-5364D01*
X-82454Y-5256D01*
X-81991Y-4946D01*
X-81681Y-4483D01*
X-81573Y-3937D01*
X-81681Y-3391D01*
X-81991Y-2928D01*
X-82454Y-2618D01*
X-83000Y-2510D01*
D02*
G37*
G36*
X-86937D02*
X-87483Y-2618D01*
X-87946Y-2928D01*
X-88256Y-3391D01*
X-88364Y-3937D01*
X-88256Y-4483D01*
X-87946Y-4946D01*
X-87483Y-5256D01*
X-86937Y-5364D01*
X-86391Y-5256D01*
X-85928Y-4946D01*
X-85618Y-4483D01*
X-85510Y-3937D01*
X-85618Y-3391D01*
X-85928Y-2928D01*
X-86391Y-2618D01*
X-86937Y-2510D01*
D02*
G37*
G36*
X-7395Y2766D02*
X-8053Y2635D01*
X-8610Y2262D01*
X-8983Y1705D01*
X-9114Y1047D01*
X-8983Y389D01*
X-8610Y-169D01*
X-8402Y-308D01*
X-8215Y-785D01*
X-8309Y-925D01*
X-8588Y-1342D01*
X-8719Y-2000D01*
X-8588Y-2658D01*
X-8215Y-3215D01*
X-7989Y-3366D01*
X-7738Y-3751D01*
X-7863Y-4006D01*
X-8088Y-4342D01*
X-8219Y-5000D01*
X-8088Y-5658D01*
X-7715Y-6215D01*
X-7158Y-6588D01*
X-6500Y-6719D01*
X-5842Y-6588D01*
X-5285Y-6215D01*
X-4912Y-5658D01*
X-4781Y-5000D01*
X-4912Y-4342D01*
X-5285Y-3785D01*
X-5511Y-3634D01*
X-5762Y-3249D01*
X-5636Y-2994D01*
X-5412Y-2658D01*
X-5281Y-2000D01*
X-5412Y-1342D01*
X-5785Y-785D01*
X-5993Y-645D01*
X-6180Y-169D01*
X-6086Y-28D01*
X-5807Y389D01*
X-5676Y1047D01*
X-5807Y1705D01*
X-6180Y2262D01*
X-6737Y2635D01*
X-7395Y2766D01*
D02*
G37*
G36*
X57000Y-4281D02*
X56342Y-4412D01*
X55785Y-4785D01*
X55412Y-5342D01*
X55281Y-6000D01*
X55412Y-6658D01*
X55785Y-7215D01*
X56342Y-7588D01*
X57000Y-7719D01*
X57658Y-7588D01*
X58215Y-7215D01*
X58588Y-6658D01*
X58719Y-6000D01*
X58588Y-5342D01*
X58215Y-4785D01*
X57658Y-4412D01*
X57000Y-4281D01*
D02*
G37*
G36*
X5866Y353D02*
X5209Y222D01*
X4651Y-151D01*
X4278Y-709D01*
X4148Y-1366D01*
X4257Y-1919D01*
X4342Y-2412D01*
X3785Y-2785D01*
X3412Y-3342D01*
X3281Y-4000D01*
X3412Y-4658D01*
X3348Y-4811D01*
X2842Y-4912D01*
X2285Y-5285D01*
X1912Y-5842D01*
X1781Y-6500D01*
X1912Y-7158D01*
X2285Y-7715D01*
X2842Y-8088D01*
X3500Y-8219D01*
X4158Y-8088D01*
X4715Y-7715D01*
X5088Y-7158D01*
X5219Y-6500D01*
X5088Y-5842D01*
X5152Y-5689D01*
X5658Y-5588D01*
X6215Y-5215D01*
X6588Y-4658D01*
X6719Y-4000D01*
X6609Y-3447D01*
X6524Y-2954D01*
X7082Y-2582D01*
X7454Y-2024D01*
X7585Y-1366D01*
X7454Y-709D01*
X7082Y-151D01*
X6524Y222D01*
X5866Y353D01*
D02*
G37*
G36*
X-1000Y-7781D02*
X-1658Y-7912D01*
X-2215Y-8285D01*
X-2588Y-8842D01*
X-2719Y-9500D01*
X-2588Y-10158D01*
X-2215Y-10715D01*
X-1658Y-11088D01*
X-1000Y-11219D01*
X-342Y-11088D01*
X215Y-10715D01*
X588Y-10158D01*
X719Y-9500D01*
X588Y-8842D01*
X215Y-8285D01*
X-342Y-7912D01*
X-1000Y-7781D01*
D02*
G37*
G36*
X-45000Y11539D02*
X-45780Y11384D01*
X-46442Y10942D01*
X-46884Y10280D01*
X-47039Y9500D01*
X-46884Y8720D01*
X-46442Y8058D01*
X-46355Y8000D01*
Y7500D01*
X-46442Y7442D01*
X-46884Y6780D01*
X-47039Y6000D01*
X-46884Y5220D01*
X-46442Y4558D01*
X-46056Y4300D01*
Y3700D01*
X-46442Y3442D01*
X-46884Y2780D01*
X-47039Y2000D01*
X-46884Y1220D01*
X-46442Y558D01*
X-46056Y300D01*
Y-300D01*
X-46442Y-558D01*
X-46884Y-1220D01*
X-47039Y-2000D01*
X-46884Y-2780D01*
X-46442Y-3442D01*
X-46056Y-3700D01*
Y-4300D01*
X-46442Y-4558D01*
X-46884Y-5220D01*
X-47039Y-6000D01*
X-46884Y-6780D01*
X-46442Y-7442D01*
X-46355Y-7500D01*
Y-8000D01*
X-46442Y-8058D01*
X-46884Y-8720D01*
X-47039Y-9500D01*
X-46884Y-10280D01*
X-46442Y-10942D01*
X-45780Y-11384D01*
X-45000Y-11539D01*
X-44220Y-11384D01*
X-43558Y-10942D01*
X-43116Y-10280D01*
X-42961Y-9500D01*
X-43116Y-8720D01*
X-43558Y-8058D01*
X-43645Y-8000D01*
Y-7500D01*
X-43558Y-7442D01*
X-43116Y-6780D01*
X-42961Y-6000D01*
X-43116Y-5220D01*
X-43558Y-4558D01*
X-43944Y-4300D01*
Y-3700D01*
X-43558Y-3442D01*
X-43116Y-2780D01*
X-42961Y-2000D01*
X-43116Y-1220D01*
X-43558Y-558D01*
X-43944Y-300D01*
Y300D01*
X-43558Y558D01*
X-43116Y1220D01*
X-42961Y2000D01*
X-43116Y2780D01*
X-43558Y3442D01*
X-43944Y3700D01*
Y4300D01*
X-43558Y4558D01*
X-43116Y5220D01*
X-42961Y6000D01*
X-43116Y6780D01*
X-43558Y7442D01*
X-43645Y7500D01*
Y8000D01*
X-43558Y8058D01*
X-43116Y8720D01*
X-42961Y9500D01*
X-43116Y10280D01*
X-43558Y10942D01*
X-44220Y11384D01*
X-45000Y11539D01*
D02*
G37*
G36*
X-6500Y-8281D02*
X-7158Y-8412D01*
X-7715Y-8785D01*
X-8088Y-9342D01*
X-8219Y-10000D01*
X-8088Y-10658D01*
X-7715Y-11215D01*
X-7158Y-11588D01*
X-6500Y-11719D01*
X-5842Y-11588D01*
X-5285Y-11215D01*
X-4912Y-10658D01*
X-4781Y-10000D01*
X-4912Y-9342D01*
X-5285Y-8785D01*
X-5842Y-8412D01*
X-6500Y-8281D01*
D02*
G37*
G36*
X50000Y-9281D02*
X49342Y-9412D01*
X48785Y-9785D01*
X48412Y-10342D01*
X48281Y-11000D01*
X48412Y-11658D01*
X48785Y-12215D01*
X49342Y-12588D01*
X50000Y-12719D01*
X50658Y-12588D01*
X51215Y-12215D01*
X51588Y-11658D01*
X51719Y-11000D01*
X51588Y-10342D01*
X51215Y-9785D01*
X50658Y-9412D01*
X50000Y-9281D01*
D02*
G37*
G36*
X-17000Y-11781D02*
X-17658Y-11912D01*
X-18215Y-12285D01*
X-18588Y-12842D01*
X-18719Y-13500D01*
X-18588Y-14158D01*
X-18215Y-14715D01*
X-17658Y-15088D01*
X-17000Y-15219D01*
X-16342Y-15088D01*
X-15785Y-14715D01*
X-15412Y-14158D01*
X-15281Y-13500D01*
X-15412Y-12842D01*
X-15785Y-12285D01*
X-16342Y-11912D01*
X-17000Y-11781D01*
D02*
G37*
G36*
X-77922Y-12522D02*
X-78469Y-12630D01*
X-78932Y-12940D01*
X-79241Y-13403D01*
X-79350Y-13949D01*
X-79241Y-14495D01*
X-78932Y-14958D01*
X-78469Y-15268D01*
X-77922Y-15377D01*
X-77376Y-15268D01*
X-76913Y-14958D01*
X-76604Y-14495D01*
X-76495Y-13949D01*
X-76604Y-13403D01*
X-76913Y-12940D01*
X-77376Y-12630D01*
X-77922Y-12522D01*
D02*
G37*
G36*
X-81758Y-13407D02*
X-82305Y-13516D01*
X-82768Y-13826D01*
X-83077Y-14289D01*
X-83186Y-14835D01*
X-83077Y-15381D01*
X-82768Y-15844D01*
X-82305Y-16154D01*
X-81758Y-16262D01*
X-81212Y-16154D01*
X-80749Y-15844D01*
X-80440Y-15381D01*
X-80331Y-14835D01*
X-80440Y-14289D01*
X-80749Y-13826D01*
X-81212Y-13516D01*
X-81758Y-13407D01*
D02*
G37*
G36*
X-85594Y-14293D02*
X-86141Y-14402D01*
X-86604Y-14711D01*
X-86913Y-15174D01*
X-87022Y-15721D01*
X-86913Y-16267D01*
X-86604Y-16730D01*
X-86141Y-17039D01*
X-85594Y-17148D01*
X-85048Y-17039D01*
X-84585Y-16730D01*
X-84276Y-16267D01*
X-84167Y-15721D01*
X-84276Y-15174D01*
X-84585Y-14711D01*
X-85048Y-14402D01*
X-85594Y-14293D01*
D02*
G37*
G36*
X-77037Y-16358D02*
X-77583Y-16466D01*
X-78046Y-16776D01*
X-78355Y-17239D01*
X-78464Y-17785D01*
X-78355Y-18332D01*
X-78046Y-18795D01*
X-77583Y-19104D01*
X-77037Y-19213D01*
X-76490Y-19104D01*
X-76027Y-18795D01*
X-75718Y-18332D01*
X-75609Y-17785D01*
X-75718Y-17239D01*
X-76027Y-16776D01*
X-76490Y-16466D01*
X-77037Y-16358D01*
D02*
G37*
G36*
X-22000Y-15781D02*
X-22658Y-15912D01*
X-23215Y-16285D01*
X-23588Y-16842D01*
X-23719Y-17500D01*
X-23588Y-18158D01*
X-23215Y-18715D01*
X-22658Y-19088D01*
X-22000Y-19219D01*
X-21342Y-19088D01*
X-20785Y-18715D01*
X-20412Y-18158D01*
X-20281Y-17500D01*
X-20412Y-16842D01*
X-20785Y-16285D01*
X-21342Y-15912D01*
X-22000Y-15781D01*
D02*
G37*
G36*
X3500Y-16281D02*
X2842Y-16412D01*
X2285Y-16785D01*
X1912Y-17342D01*
X1781Y-18000D01*
X1912Y-18658D01*
X2285Y-19215D01*
X2842Y-19588D01*
X3500Y-19719D01*
X4158Y-19588D01*
X4715Y-19215D01*
X5088Y-18658D01*
X5219Y-18000D01*
X5088Y-17342D01*
X4715Y-16785D01*
X4158Y-16412D01*
X3500Y-16281D01*
D02*
G37*
G36*
X63240Y-14017D02*
X59303D01*
X58529Y-14119D01*
X57808Y-14418D01*
X57188Y-14893D01*
X56713Y-15512D01*
X56414Y-16234D01*
X56312Y-17008D01*
X56414Y-17782D01*
X56713Y-18503D01*
X57188Y-19123D01*
X57808Y-19598D01*
X58529Y-19897D01*
X59303Y-19999D01*
X63240D01*
X64014Y-19897D01*
X64736Y-19598D01*
X65355Y-19123D01*
X65830Y-18503D01*
X66129Y-17782D01*
X66231Y-17008D01*
X66129Y-16234D01*
X65830Y-15512D01*
X65355Y-14893D01*
X64736Y-14418D01*
X64014Y-14119D01*
X63240Y-14017D01*
D02*
G37*
G36*
X-80873Y-17244D02*
X-81419Y-17352D01*
X-81882Y-17662D01*
X-82191Y-18125D01*
X-82300Y-18671D01*
X-82191Y-19217D01*
X-81882Y-19680D01*
X-81419Y-19990D01*
X-80873Y-20098D01*
X-80326Y-19990D01*
X-79863Y-19680D01*
X-79554Y-19217D01*
X-79445Y-18671D01*
X-79554Y-18125D01*
X-79863Y-17662D01*
X-80326Y-17352D01*
X-80873Y-17244D01*
D02*
G37*
G36*
X-26500Y-13281D02*
X-27158Y-13412D01*
X-27715Y-13785D01*
X-28088Y-14342D01*
X-28219Y-15000D01*
X-28088Y-15658D01*
X-27715Y-16215D01*
X-27602Y-16292D01*
X-27707Y-16822D01*
X-28158Y-16912D01*
X-28715Y-17285D01*
X-29088Y-17842D01*
X-29219Y-18500D01*
X-29088Y-19158D01*
X-28715Y-19715D01*
X-28158Y-20088D01*
X-27500Y-20219D01*
X-26842Y-20088D01*
X-26285Y-19715D01*
X-25912Y-19158D01*
X-25781Y-18500D01*
X-25912Y-17842D01*
X-26285Y-17285D01*
X-26399Y-17209D01*
X-26293Y-16678D01*
X-25842Y-16588D01*
X-25285Y-16215D01*
X-24912Y-15658D01*
X-24781Y-15000D01*
X-24912Y-14342D01*
X-25285Y-13785D01*
X-25842Y-13412D01*
X-26500Y-13281D01*
D02*
G37*
G36*
X7500Y-17281D02*
X6842Y-17412D01*
X6285Y-17785D01*
X5912Y-18342D01*
X5781Y-19000D01*
X5912Y-19658D01*
X6285Y-20215D01*
X6842Y-20588D01*
X7500Y-20719D01*
X8158Y-20588D01*
X8715Y-20215D01*
X9088Y-19658D01*
X9219Y-19000D01*
X9088Y-18342D01*
X8715Y-17785D01*
X8158Y-17412D01*
X7500Y-17281D01*
D02*
G37*
G36*
X-84709Y-18129D02*
X-85255Y-18238D01*
X-85718Y-18547D01*
X-86028Y-19010D01*
X-86136Y-19557D01*
X-86028Y-20103D01*
X-85718Y-20566D01*
X-85255Y-20875D01*
X-84709Y-20984D01*
X-84163Y-20875D01*
X-83700Y-20566D01*
X-83390Y-20103D01*
X-83281Y-19557D01*
X-83390Y-19010D01*
X-83700Y-18547D01*
X-84163Y-18238D01*
X-84709Y-18129D01*
D02*
G37*
G36*
X25000Y-18281D02*
X24342Y-18412D01*
X23785Y-18785D01*
X23412Y-19342D01*
X23281Y-20000D01*
X23412Y-20658D01*
X23785Y-21215D01*
X24342Y-21588D01*
X25000Y-21719D01*
X25658Y-21588D01*
X26215Y-21215D01*
X26588Y-20658D01*
X26719Y-20000D01*
X26588Y-19342D01*
X26215Y-18785D01*
X25658Y-18412D01*
X25000Y-18281D01*
D02*
G37*
G36*
X-40000Y-11281D02*
X-40658Y-11412D01*
X-41215Y-11785D01*
X-41588Y-12342D01*
X-41719Y-13000D01*
X-41588Y-13658D01*
X-41215Y-14215D01*
X-40987Y-14368D01*
X-41092Y-14899D01*
X-41158Y-14912D01*
X-41715Y-15285D01*
X-42088Y-15842D01*
X-42219Y-16500D01*
X-42088Y-17158D01*
X-41715Y-17715D01*
X-41331Y-17972D01*
X-41327Y-17982D01*
Y-18518D01*
X-41331Y-18528D01*
X-41715Y-18785D01*
X-42088Y-19342D01*
X-42219Y-20000D01*
X-42088Y-20658D01*
X-41715Y-21215D01*
X-41158Y-21588D01*
X-40500Y-21719D01*
X-39842Y-21588D01*
X-39285Y-21215D01*
X-38912Y-20658D01*
X-38781Y-20000D01*
X-38912Y-19342D01*
X-39285Y-18785D01*
X-39669Y-18528D01*
X-39673Y-18518D01*
Y-17982D01*
X-39669Y-17972D01*
X-39285Y-17715D01*
X-38912Y-17158D01*
X-38781Y-16500D01*
X-38912Y-15842D01*
X-39285Y-15285D01*
X-39513Y-15132D01*
X-39408Y-14601D01*
X-39342Y-14588D01*
X-38785Y-14215D01*
X-38412Y-13658D01*
X-38281Y-13000D01*
X-38412Y-12342D01*
X-38785Y-11785D01*
X-39342Y-11412D01*
X-40000Y-11281D01*
D02*
G37*
G36*
X-76151Y-20194D02*
X-76697Y-20303D01*
X-77160Y-20612D01*
X-77470Y-21075D01*
X-77578Y-21621D01*
X-77470Y-22168D01*
X-77160Y-22631D01*
X-76697Y-22940D01*
X-76151Y-23049D01*
X-75605Y-22940D01*
X-75142Y-22631D01*
X-74832Y-22168D01*
X-74724Y-21621D01*
X-74832Y-21075D01*
X-75142Y-20612D01*
X-75605Y-20303D01*
X-76151Y-20194D01*
D02*
G37*
G36*
X-79987Y-21080D02*
X-80533Y-21188D01*
X-80996Y-21498D01*
X-81306Y-21961D01*
X-81415Y-22507D01*
X-81306Y-23053D01*
X-80996Y-23516D01*
X-80533Y-23826D01*
X-79987Y-23934D01*
X-79441Y-23826D01*
X-78978Y-23516D01*
X-78668Y-23053D01*
X-78560Y-22507D01*
X-78668Y-21961D01*
X-78978Y-21498D01*
X-79441Y-21188D01*
X-79987Y-21080D01*
D02*
G37*
G36*
X-10500Y-21281D02*
X-11158Y-21412D01*
X-11715Y-21785D01*
X-12088Y-22342D01*
X-12219Y-23000D01*
X-12088Y-23658D01*
X-11715Y-24215D01*
X-11158Y-24588D01*
X-10500Y-24719D01*
X-9842Y-24588D01*
X-9285Y-24215D01*
X-8912Y-23658D01*
X-8781Y-23000D01*
X-8912Y-22342D01*
X-9285Y-21785D01*
X-9842Y-21412D01*
X-10500Y-21281D01*
D02*
G37*
G36*
X-83823Y-21965D02*
X-84369Y-22074D01*
X-84833Y-22383D01*
X-85142Y-22846D01*
X-85251Y-23393D01*
X-85142Y-23939D01*
X-84833Y-24402D01*
X-84369Y-24711D01*
X-83823Y-24820D01*
X-83277Y-24711D01*
X-82814Y-24402D01*
X-82504Y-23939D01*
X-82396Y-23393D01*
X-82504Y-22846D01*
X-82814Y-22383D01*
X-83277Y-22074D01*
X-83823Y-21965D01*
D02*
G37*
G36*
X34883Y-17322D02*
X34225Y-17452D01*
X33667Y-17825D01*
X33295Y-18383D01*
X33164Y-19040D01*
X33295Y-19698D01*
X33667Y-20256D01*
X34225Y-20628D01*
X34883Y-20759D01*
X35337Y-20669D01*
X35746Y-20974D01*
X35791Y-21049D01*
X35912Y-21658D01*
X36285Y-22215D01*
X36842Y-22588D01*
X37500Y-22719D01*
X37841Y-22651D01*
X38277Y-22997D01*
X38288Y-23033D01*
X38412Y-23658D01*
X38785Y-24215D01*
X39342Y-24588D01*
X40000Y-24719D01*
X40341Y-24651D01*
X40777Y-24997D01*
X40788Y-25033D01*
X40912Y-25658D01*
X41285Y-26215D01*
X41842Y-26588D01*
X42500Y-26719D01*
X43158Y-26588D01*
X43715Y-26215D01*
X44088Y-25658D01*
X44219Y-25000D01*
X44088Y-24342D01*
X43715Y-23785D01*
X43158Y-23412D01*
X42500Y-23281D01*
X42159Y-23349D01*
X41723Y-23003D01*
X41712Y-22967D01*
X41588Y-22342D01*
X41215Y-21785D01*
X40658Y-21412D01*
X40000Y-21281D01*
X39659Y-21349D01*
X39223Y-21003D01*
X39212Y-20967D01*
X39088Y-20342D01*
X38715Y-19785D01*
X38158Y-19412D01*
X37500Y-19281D01*
X37046Y-19372D01*
X36637Y-19067D01*
X36592Y-18991D01*
X36471Y-18383D01*
X36098Y-17825D01*
X35541Y-17452D01*
X34883Y-17322D01*
D02*
G37*
G36*
X-41500Y-27781D02*
X-42158Y-27912D01*
X-42715Y-28285D01*
X-43088Y-28842D01*
X-43219Y-29500D01*
X-43088Y-30158D01*
X-42715Y-30715D01*
X-42158Y-31088D01*
X-41500Y-31219D01*
X-40842Y-31088D01*
X-40285Y-30715D01*
X-39912Y-30158D01*
X-39781Y-29500D01*
X-39912Y-28842D01*
X-40285Y-28285D01*
X-40842Y-27912D01*
X-41500Y-27781D01*
D02*
G37*
%LPD*%
D89*
X6000Y64000D02*
D03*
D90*
X0Y-37402D02*
D03*
Y37402D02*
D03*
D91*
X34000Y52500D02*
D03*
X500Y12000D02*
D03*
X62000Y-13000D02*
D03*
Y13000D02*
D03*
X24500Y-3500D02*
D03*
X-3760Y1928D02*
D03*
X-14500Y14500D02*
D03*
X-7500Y18500D02*
D03*
X6500Y20000D02*
D03*
X41500Y47500D02*
D03*
X50500D02*
D03*
X24543Y7957D02*
D03*
X40500Y8000D02*
D03*
X32500Y0D02*
D03*
X40500Y-8000D02*
D03*
X24500D02*
D03*
X49500Y-30000D02*
D03*
X-34500Y-35000D02*
D03*
X-30000Y-25000D02*
D03*
X15000Y74000D02*
D03*
X68000Y22000D02*
D03*
X62500Y26000D02*
D03*
X23000Y-30500D02*
D03*
D92*
X-45000Y13000D02*
D03*
Y16500D02*
D03*
X-53000Y-20500D02*
D03*
X-47500Y-19000D02*
D03*
X-51000Y-16500D02*
D03*
X-48500Y-23500D02*
D03*
X-47500Y-27500D02*
D03*
X-46500Y-31500D02*
D03*
X-65000Y-28000D02*
D03*
X-63000Y-33000D02*
D03*
X-61000Y-38500D02*
D03*
X-48500Y16000D02*
D03*
X-51500Y17500D02*
D03*
X-36000Y42917D02*
D03*
D93*
X-17764Y2461D02*
D03*
X-33315D02*
D03*
X-28000D02*
D03*
X-22685D02*
D03*
Y6299D02*
D03*
X-28000D02*
D03*
X-33315D02*
D03*
X-38236Y-2461D02*
D03*
Y2461D02*
D03*
X-33315Y-2461D02*
D03*
X-28000D02*
D03*
X-22685D02*
D03*
X-17764D02*
D03*
X-22685Y-6299D02*
D03*
X-28000D02*
D03*
X-33315D02*
D03*
D94*
X-72874Y-39923D02*
D03*
X-76326Y-32846D02*
D03*
X-74600Y-36385D02*
D03*
X-76413Y-41649D02*
D03*
X-79864Y-34572D02*
D03*
X-78139Y-38111D02*
D03*
X-69336Y-38197D02*
D03*
X-72787Y-31120D02*
D03*
X-71061Y-34659D02*
D03*
M02*
